<?xml version="1.0" encoding="utf-8"?>
<!-- Generator: Adobe Illustrator 22.0.1, SVG Export Plug-In . SVG Version: 6.00 Build 0)  -->
<svg version="1.1" id="Ebene_1" xmlns="http://www.w3.org/2000/svg" xmlns:xlink="http://www.w3.org/1999/xlink" x="0px" y="0px"
	 viewBox="0 0 31.3 24.3" style="enable-background:new 0 0 31.3 24.3;" xml:space="preserve">
<style type="text/css">
	.st0{fill:#182F30;}
	.st1{fill:#ECEEEF;}
</style>
<g>
	<g>
		<polygon class="st0" points="29.5,24.4 26.1,21.1 15.3,21.1 15.3,19.2 16,19.2 16,20.4 26.4,20.4 28.8,22.9 28.8,20.4 30.7,20.4 
			30.7,8.7 24.6,8.7 24.6,8 31.3,8 31.3,21.1 29.5,21.1 		"/>
	</g>
	<g>
		<g>
			<polygon class="st0" points="23.9,0 0,0 0,18.6 3.7,18.6 3.7,22.1 8.1,18.6 23.9,18.6 			"/>
		</g>
		<g>
			<g>
				<path class="st1" d="M5.7,8.9c0-0.9,0.6-1.6,1.5-1.6C8,7.3,8.6,8,8.6,8.9c0,0.9-0.6,1.6-1.5,1.6C6.3,10.5,5.7,9.8,5.7,8.9z"/>
			</g>
			<g>
				<path class="st1" d="M10.8,8.9c0-0.9,0.6-1.6,1.5-1.6c0.9,0,1.5,0.6,1.5,1.6c0,0.9-0.6,1.6-1.5,1.6C11.4,10.5,10.8,9.8,10.8,8.9
					z"/>
			</g>
			<g>
				<path class="st1" d="M15.9,8.9c0-0.9,0.6-1.6,1.5-1.6c0.9,0,1.5,0.6,1.5,1.6c0,0.9-0.6,1.6-1.5,1.6C16.5,10.5,15.9,9.8,15.9,8.9
					z"/>
			</g>
		</g>
	</g>
</g>
</svg>
