<?xml version="1.0" encoding="utf-8"?>
<!-- Generator: Adobe Illustrator 23.0.6, SVG Export Plug-In . SVG Version: 6.00 Build 0)  -->
<svg version="1.1" id="Ebene_1" xmlns="http://www.w3.org/2000/svg" xmlns:xlink="http://www.w3.org/1999/xlink" x="0px" y="0px"
	 viewBox="0 0 152 127" style="enable-background:new 0 0 152 127;" xml:space="preserve">
<style type="text/css">
	.st0{fill:#182F30;}
	.st1{fill:#ECEEEF;}
	.st2{fill:#7BA9A9;stroke:#182F30;stroke-miterlimit:10;}
</style>
<g>
	<g>
		<polygon class="st0" points="143.13,125.15 127.1,109.3 75.09,109.3 75.09,100.43 78.05,100.43 78.05,106.34 128.32,106.34 
			140.17,118.06 140.17,106.34 149.04,106.34 149.04,50.14 119.46,50.14 119.46,47.18 152,47.18 152,109.3 143.13,109.3 		"/>
	</g>
	<g>
		<g>
			<polygon class="st0" points="116.5,8.72 1.14,8.72 1.14,97.47 18.89,97.47 18.89,114.21 40.05,97.47 116.5,97.47 			"/>
		</g>
		<g>
			<g>
				<path class="st1" d="M28.43,51.28c0-4.39,2.97-7.48,7.12-7.48c4.16,0,7,3.09,7,7.48c0,4.28-2.73,7.48-7.12,7.48
					C31.28,58.76,28.43,55.56,28.43,51.28z"/>
			</g>
			<g>
				<path class="st1" d="M53.01,51.28c0-4.39,2.97-7.48,7.12-7.48c4.16,0,7,3.09,7,7.48c0,4.28-2.73,7.48-7.12,7.48
					C55.86,58.76,53.01,55.56,53.01,51.28z"/>
			</g>
			<g>
				<path class="st1" d="M77.6,51.28c0-4.39,2.97-7.48,7.12-7.48c4.16,0,7,3.09,7,7.48c0,4.28-2.73,7.48-7.12,7.48
					C80.45,58.76,77.6,55.56,77.6,51.28z"/>
			</g>
		</g>
	</g>
</g>
<g>
	<path class="st2" d="M128.08,22.43c0,11.75-9.53,21.28-21.28,21.28c-11.75,0-21.28-9.53-21.28-21.28
		c0-11.75,9.53-21.28,21.28-21.28C118.55,1.16,128.08,10.68,128.08,22.43z"/>
</g>
<g>
	<path class="st1" d="M92.77,18.46h10.41V8.02h7.07v10.44h10.46v7.07h-10.46v10.38h-7.07V25.53H92.77V18.46z"/>
</g>
</svg>
