<?xml version="1.0" encoding="utf-8"?>
<!-- Generator: Adobe Illustrator 22.0.1, SVG Export Plug-In . SVG Version: 6.00 Build 0)  -->
<svg version="1.1" id="Ebene_1" xmlns="http://www.w3.org/2000/svg" xmlns:xlink="http://www.w3.org/1999/xlink" x="0px" y="0px"
	 viewBox="0 0 375 211.1" style="enable-background:new 0 0 375 211.1;" xml:space="preserve">
<style type="text/css">
	.st0{fill:#ECEEEF;}
	.st1{clip-path:url(#SVGID_2_);}
	.st2{clip-path:url(#SVGID_4_);fill:#7BA9A9;}
	.st3{clip-path:url(#SVGID_4_);}
	.st4{fill:#17383A;}
	.st5{opacity:0.2;fill:#17383A;}
	.st6{opacity:0.2;fill:#182F30;}
	.st7{opacity:0.2;}
	.st8{fill:#D68900;}
	.st9{fill:none;stroke:#182F30;stroke-width:2;stroke-miterlimit:10;}
	.st10{fill:none;stroke:#182F30;stroke-width:3;stroke-miterlimit:10;}
	.st11{fill:#182F30;}
</style>
<g>
	<g>
		<path class="st0" d="M340.3,187.1c-0.2,1.1-0.9,2.3-1.8,3.1c-0.7,0.6-2.8,1.7-3,0.1c-0.1-0.4,0.4-2.5,0.6-2.9
			c0.5-1.2,1.1-0.4,1.9-0.3C338.8,187.2,339.6,186.4,340.3,187.1z"/>
		<path class="st0" d="M334.6,59.5c0.3,1.1,0.5,2.1,0.7,3.1c-0.8,1.2-2.4,0.8-3.6,1.4c-0.6,0.3-0.7,1.4-1.2,1.6
			c-0.4,0.1-0.8-0.4-1.2-0.4c-1,0-1.6,2.1-2.8,1.6c-0.7,0.5,0,2.5-0.9,2.7c-0.6,0.1-1-0.9-1.4-1.5c-0.5-0.7-1.1-1.2-1.2-1.8
			c0-0.6,1-1.7,1.4-2.1c0.4-0.5,1.2-1.5,1.8-1.7c1-0.3,2,0.1,2.7-0.3c0.6-0.3,0.7-1.5,1-1.8c0.3-0.3,0.6-0.2,0.9-0.4
			c0.7-0.4,1.4-2,1-3.5c-0.2-1-1.6-2.1-0.7-3.2c1.3,0.2,3,1.7,3.2,3.2c0.1,0.6-0.2,1.2-0.1,1.8C334.2,58.6,334.5,59,334.6,59.5z"/>
		<path class="st0" d="M334.9,49.9c-0.2,0.4-0.5,0.4-0.8,0.6c-0.3,0.3-0.7,1.1-1,1.1c-0.6,0.1-1.2-0.7-1.8-0.5
			c-0.7,0.2-0.3,0.8-0.5,1.6c-0.6-0.2-1.6-1-1.6-1.8c0-0.5,0.5-0.8,0.7-1.4c0.2-1-0.3-1.5-0.7-2.5c0-0.1,0.1-0.2,0.1-0.3
			c0.7-0.2,2.1,1.4,3.7,1.8C334,48.8,334.8,48.7,334.9,49.9z"/>
		<path class="st0" d="M332.2,139c0.1,0.7-1,0.6-1.1,0.2C331.1,138.6,332.1,138.4,332.2,139z"/>
		<path class="st0" d="M327.1,42.6c0.7,0.5,2.5,1.5,1.2,2.5C327.6,44.7,326.8,43.6,327.1,42.6z"/>
		<path class="st0" d="M323.7,135.1c0.8-0.5,1.7-1.7,3.2-1.1c-0.3,1.1-1.4,1.1-2.1,1.6c-0.7,0.5-1.3,1.4-2.2,1.5
			c-0.1-0.2-0.2-0.3-0.3-0.4C322.3,135.7,323.2,135.5,323.7,135.1z"/>
		<path class="st0" d="M321.8,118.6c0.9,0,1.7-0.3,2.3,0.1c-0.1,2.2-2.9,0.5-4.8,0.9c-0.4,0.1-0.5,0.4-1,0.3c0-0.7,0.7-1.5,1.4-1.6
			C320.2,118.2,321,118.6,321.8,118.6z"/>
		<path class="st0" d="M322.5,121.3c0.1,1.2-1.3,1.3-1.7,2.3c0.6,1.1,0.8,2.7,1.5,3.7c0,0.7,0.1,1.5-0.2,1.8
			c-1.5,0.3-2.3-2.8-2.8-3.9c-1.1,0.3-0.1,4.6-1.6,4c-0.7-0.3,0-1.5-0.1-2.5c-0.1-0.8-0.8-1-0.9-1.7c0-0.5,0.5-1.1,0.7-1.7
			c0.2-0.8,0.1-2.3,0.9-2.4c0.4,0,0.9,1,1.2,1.1C320.2,122.4,321.3,121.1,322.5,121.3z"/>
		<path class="st0" d="M319.8,134.4c-0.3,0.7-1.8,0.3-1.9-0.3C318.2,133.5,319.7,133.7,319.8,134.4z"/>
		<path class="st0" d="M318.4,136.5c-0.1,0.1-0.2,0.2-0.3,0.4c-0.6-0.2-1.1-0.4-1.3-1.1C317.2,135.1,318.4,135.7,318.4,136.5z"/>
		<path class="st0" d="M316.4,134.3c-0.4,0.6-1.7-0.1-2.1,0.6c-0.8,0-1.5,0-1.7-0.8c0.2-0.6,0.9-0.2,1.5-0.3
			C315,133.8,316.2,133.1,316.4,134.3z"/>
		<path class="st0" d="M306.1,167.9c0-0.8-0.4-1.5-0.5-2.3c0-0.3,0-0.7,0-1.1c0-0.5-0.3-1-0.2-1.3c0.1-0.6,0.7-0.6,0.8-1.1
			c0.2-0.8-0.3-0.9-0.3-1.9c0-0.7,0.4-1,0.7-1.9c0.1-0.4,0.1-1.2,0.3-1.5c0.2-0.4,1-0.7,1.3-0.9c1.1-0.7,2-1.9,3.1-2.1
			c0.3-0.1,0.7,0,0.9,0c0.7-0.1,1.5-0.8,2.4-1.1c0.9-0.2,1.7-0.2,2.3-0.6c0.7-0.5,1.8-1.8,2-2.6c0.3-1,0.2-1.8,0.9-2.1
			c0.3-0.2,0.6,0,0.9-0.1c0.3-0.1,1.1-0.5,1.3-0.8c0.5-0.5,0.6-1.4,1.2-2c0.4-0.4,1.1-1,1.7-1.3c0.3-0.2,0.9-0.4,1.2-0.4
			c1,0.1,1.5,1.8,2.6,1.5c0.4-0.1,0.8-1.1,1.2-1.8c0.5-0.9,0.9-2.1,1.8-2.4c0.7-0.2,1.6,0.3,2-0.4c0.1-0.6-0.3-0.9,0-1.2
			c0.9,0.1,2.3,1.4,3.6,1.5c0.7,0,2-0.9,2.1,0.4c0.1,0.6-0.5,1-0.7,1.6c-0.1,0.4,0.1,0.6-0.1,1.1c-0.6,0.3-1.2,0.4-1.2,1.2
			c0,1,1.2,1.5,1.9,2c0.5,0.4,0.9,0.9,1.2,1.1c0.2,0.2,0.6,0.2,0.7,0.3c0.5,0.4,0.8,1.2,1.5,1.2c0.7,0,1.5-1.1,1.9-2.2
			c0.5-1.3,0.5-2.8,0.7-4.1c0.1-0.4,0.3-0.9,0.4-1.3c0.3-1.2,0.7-2.8,1.5-3.2c0.9,1.1,1.2,3.3,1,5.1c0.6,0.5,1.6,0.4,1.7,1.6
			c0,0.4-0.2,1-0.1,1.4c0,0.7,0.5,1.4,0.6,2c0.1,1.2-0.2,2.1,0.3,3c0.6,1.1,1.7,1,2.4,2.2c0,0.7,0.2,1,0.4,1.6
			c0.1,0.3,0,0.7,0.1,0.9c0.2,0.6,0.9,0.6,1.1,1.1c0.1,0.2,0.1,0.7,0.2,1.1c0.2,0.6,0.7,1.1,1,1.8c0.3,0.6,0.9,1.3,0.9,1.8
			c0.1,0.9-0.4,1.5-0.5,2.2c-0.2,0.9,0,2-0.3,2.9c-0.3,1.1-1.2,2.1-1.8,3.4c-0.5,1.1-1.3,2.3-2,3.1c-0.5,0.4-1,0.7-1.5,1.1
			c-0.7,0.7-1.3,1.6-1.9,2.4c-0.7,0.8-1.5,1.5-2,2.2c-0.7,1-1.1,2.7-2.4,2.9c-0.8,0.1-1.4,0-2.1,0.4c-1.1,0.5-1.8,1.5-2.3,1.5
			c-0.6,0-1.1-0.8-1.6-0.9c-0.6-0.1-1,0.5-1.9,0.5c-0.3,0-0.5-0.2-1-0.4c-1-0.4-2.2-0.4-2.3-1.8c-0.1-0.7,0.4-1.1,0.4-1.8
			c0-0.7-0.6-0.8-0.8-1.4c0.1-0.6,0.2-1.4-0.4-1.8c0-0.5,0.1-0.9,0.3-1.2c-0.4,0.2-1,0.4-1.5,0.7c-0.5,0.4-0.9,1.3-1.5,1.1
			c-0.6-0.2-0.1-0.9-0.2-1.5c-0.1-0.4-0.9-2.2-1.2-2.5c-0.4-0.3-2-1-2.5-1.1c-2.3-0.4-3.7,1-5.5,1.2c-0.5,0.1-1-0.1-1.4,0
			c-1.5,0.3-3.1,1.7-4,2.6c-1.5,0.2-3-0.4-4.6,0.2c-1.5,0.5-2.4,2.1-4.8,1.7c-0.5-0.5-1.3-0.7-1.3-1.6c0-0.7,0.8-1.1,1.1-1.6
			c0.3-0.5,0.8-1.7,0.8-2.5c0-0.6-0.3-1.3-0.3-2C305.9,169.1,306.1,168.5,306.1,167.9z"/>
		<path class="st0" d="M304.9,131.3c0.4-0.1,0.7-0.4,1.1-0.4c0.9,0,1.7,0.8,2.7,0.6c0.2,0.3,0.1,0.5,0.1,1c0.9,0.5,2.3,0.4,2.7,1.5
			c-0.6,0.8-1.6,0.2-2.4,0.1c-0.7-0.1-1.5-0.1-2.3-0.2c-1-0.1-1.9-0.8-2.9-1c-0.6-0.1-1.2,0.1-1.8,0c-0.7-0.1-3.1-1.2-3.1-2
			c0-0.8,1.1-1,2.1-0.9C302.3,130.2,303.2,131.6,304.9,131.3z"/>
		<path class="st0" d="M306.9,125.3c-0.6-0.2-1.1-0.1-1.3-0.3c-0.5-0.4-0.4-1.4-0.6-2c-0.2-0.6-0.8-0.9-1.1-1.8
			c-0.5-1.2-0.7-3.9,0.6-4.1c0.5-0.1,1,0.4,1.4,0.3c0.7-0.2,0.6-1.3,1.2-1.8c0.3-0.3,0.9-0.1,1.4-0.3c0.5-0.2,0.8-0.8,1.2-1.2
			c0.3-0.4,0.5-1.2,0.9-1.5c0.5-0.4,0.9-0.4,1.2-0.7c1-0.9,1-2.1,1.8-3.2c0.6-0.9,1.7,0.9,1.8,1.6c0.4,0.6,1.1,0.7,1.4,1.3
			c-0.4,1.5-1.6,1.7-1.4,3.9c0,0.4,0.2,1,0.4,1.5c0.2,0.5,0.8,1.1,0.8,1.4c0,0.7-1.1,0.6-1.4,1.3c-0.2,0.6,0,0.7-0.1,1.7
			c-0.3,0.7-1.1,0.9-1.4,1.8c-0.3,1,0,2.4-0.7,3.2c-0.5,0-1,0.5-1.6,0.4c-0.6-0.1-1.3-1.1-2.3-1.1c-0.4,0-0.8,0.3-1.2,0.3
			C307.6,125.8,307.3,125.4,306.9,125.3z"/>
		<path class="st0" d="M302.1,123.3c1.9,0,1.9,3.5,0,3.5C300.3,126.8,300.3,123.3,302.1,123.3z"/>
		<path class="st0" d="M299.4,122.9c0.2,0,1,1.4,1,1.8c0,0.6-0.8,0.6-1,1.4c-0.3,1.3,0.2,2.7-0.4,3.3c-0.3,0.2-0.9,0.2-1.5,0.2
			c-1.3-1.1-2.4-2.5-3.5-3.9c-0.4-0.5-0.9-1-1.2-1.6c-0.4-0.8-0.5-1.8-0.9-2.5c-0.4-0.7-1.1-1.2-1.5-1.9c-0.3-0.6-0.3-1.4-0.7-2
			c-0.3-0.6-0.8-0.8-1.2-1.2c-0.2-0.3-0.4-0.7-0.6-1.1c-0.9-1.3-2.7-2-2.8-3.9c0.4-0.5,0.8,0.2,1.5,0.4c0.5,0.1,1,0,1.3,0.1
			c0.7,0.3,1.1,1.5,1.8,2.2c0.4,0.4,0.9,0.6,1.3,1.1c0.4,0.4,0.8,1.1,1.1,1.3c0.5,0.3,1.1,0.6,1.8,1.1c0.8,0.6,2.4,1.3,2.6,2.6
			c0,0.3-0.1,0.9-0.1,1.1c0.1,0.5,0.6,0.7,0.9,1.1c0.4,0.5,0.4,1.2,0.9,1.3C298.8,123.7,298.9,122.8,299.4,122.9z"/>
		<path class="st0" d="M265,104.5c0.6,0.2,2.7,3.3,2.1,5c-0.2,0.5-0.9,1.1-1.6,1c-1.4-0.3-1.2-4.1-0.7-5.7
			C264.8,104.6,264.9,104.5,265,104.5z"/>
		<path class="st0" d="M216.4,148.9c0.1-0.7,0.5-1.9,0.9-2.3c0.7-0.6,1.6-0.5,2.3-1c0.6-0.4,1.3-0.9,1.8-1.6
			c0.4-0.5,0.4-1.2,0.7-1.6c0.2-0.3,0.6-0.4,0.9-0.7c0.2-0.3,0.2-0.9,0.5-1.2c1-0.5,1.3,1.7,1.5,3.2c0,0.5,0.3,1,0.2,1.2
			c-0.1,0.7-0.7,0.8-0.9,1.3c0,1.9-0.7,3.6-1.2,5.2c-0.5,1.4-0.8,2.9-1.2,4c-0.1,0.4-0.5,0.8-0.6,1.1c-0.5,1.5-0.7,3.8-1.7,4.5
			c-0.3,0.2-1.7,0.6-2,0.6c-0.9,0-1.7-0.8-1.9-1.8c-0.1-0.5,0-1-0.1-1.6c-0.1-0.7-0.4-1.3-0.4-2.1c0.2-1.8,1.6-2.7,1.7-4.1
			C216.8,151.1,216.3,150,216.4,148.9z"/>
		<path class="st0" d="M181.2,24.1c0.1,1.5-1.9,1.3-2.1,2.5c-0.1,0.6,0.2,1.3,0.1,1.8c-0.1,0.9-0.9,0.7-1.8,1.1
			c-0.5,0.2-0.9,1.2-1.5,1.2c-0.5,0.1-0.8-0.3-1.1-0.3c-0.5,0.1-0.3,0.8-1,1c-0.6,0.1-1.5-0.6-1.6,0.3c0,0.6,0.9,0.9,1.5,0.8
			c0.5-0.1,0.8-0.4,1.2-0.4c0.9,0,1.4,0.8,2,0.8c1.3,0,2.5-1.4,3.8-1.2c0.6,0.1,0.9,0.6,1.4,0.5c0.7-0.1,1.3-1.1,1.8-1.4
			c-0.2-1.5,0-3.4,1.2-3.5c0.8-0.1,2,1.6,2.1,0c0.1-0.7-0.6-1.3-1.1-1.3c-0.4,0-1,1-1.3,0.2c0-0.8,0.8-0.6,1.2-0.8
			c0.3-0.1,0.5-0.6,0.9-0.7c1.7-0.7,4.1,0.7,4.8-1.1c-1.5-1.6-4.2,0.6-5.9,0.4c-0.7-0.1-1.7-0.7-2-1.6c-0.1-0.3,0-0.6-0.1-1.1
			c-0.1-0.6-0.3-1.1-0.3-1.5c0.1-1.6,3.4-1.9,3.4-3.9c-0.6-0.7-2.5-0.6-3.1,0.2c-0.2,0.3-0.2,0.8-0.5,1.4c-0.7,1.2-2.8,1.3-3.4,2.8
			c-0.1,0.3-0.4,1.2-0.3,1.8C179.6,23,181.2,23.2,181.2,24.1z M163.8,109.9c-2.1-0.4-4.3,0.6-5.7,1.4c-0.8,0.4-1.7,1.1-2.4,1.1
			c-0.7,0-1.4-0.4-2-0.5c-0.9-0.1-2,0-2.8,0.2c-0.8,0.2-1.6,0.9-2.3,1c-1.4,0.1-2.8-1.5-3.7-2.4c-0.5-0.5-1.1-0.9-1.6-1.4
			c-0.5-0.5-1.3-0.8-1.7-1.3c-0.6-0.7-0.6-1.8-0.9-2.7c-0.4-1-1.4-1.8-2.3-2.8c-0.6-0.7-2-1.9-2.2-2.8c-0.1-0.5,0.2-1.1,0.1-1.6
			c0-0.8-0.5-1.2-0.5-1.8c0-0.8,0.8-1.4,0.9-2c0.1-0.3,0-0.8,0.1-1.2c0.2-0.9,0.7-1.4,0.6-2.7c0-0.5-0.4-1-0.4-1.7
			c0-0.5,0.3-0.7,0.2-1.1c-0.1-0.7-0.9-0.9-0.9-1.8c-0.1-0.9,0.7-1.6,1.2-2.6c0.2-0.5,0.3-1.1,0.5-1.5c0.4-0.7,1.1-1.1,1.4-1.8
			c0.2-0.5,0.3-1.3,0.5-1.8c0.3-0.5,0.8-0.8,1.3-1.5c0.4-0.6,0.6-1.2,0.9-1.5c0.4-0.3,0.9-0.4,1.3-0.6c1.4-0.7,2.3-1.7,3-3.2
			c-0.2-1.4,0.1-2,0.6-3c0.4-0.9,0.8-1.8,1.5-2.3c0.9-0.6,1.8-0.7,2.4-1.8c0.3-0.6,0.8-1.6,0.8-2.2c0-0.9-0.7-2-1.4-2.1
			c-0.7-0.1-1.7,0.6-2-0.3c-0.1-0.3,0-0.9,0-1.2c-0.1-0.6-0.5-1-0.5-1.4c0-0.8,0.7-1.7,0.9-2.6c0.3-1.3,0-2.3-0.1-3.8
			c1-1.9,3.3-1,5.5-0.8c0.3,0,0.7-0.1,1.1-0.1c1.3,0,2.4,0.5,2.8-0.9c0.2-0.5,0.3-2.5,0.2-3c-0.1-0.6-1.1-2.1-1.5-2.5
			c-0.7-0.6-1.8-0.3-2.2-1.3c0.3-1.7,2-0.3,2.9-0.7c0.5-0.2,0.4-1.2,0.9-1.4c0.3-0.1,0.7,0.4,1.1,0.4c0.4,0,1.6-0.8,2-1.1
			c0.5-0.4,0.6-1.2,1-1.5c0.3-0.2,0.6-0.2,0.9-0.3c0.6-0.3,1.4-1,1.8-1.6c0.6-0.9,0.9-1.9,1.6-2.1c1-0.2,3.2,0.2,3.4-1.1
			c0.2-1.2-0.9-2.2-0.5-3.5c0.3-1,1.1-0.9,2.2-1.5c0.5,0.5,0.4,1.8,0.4,2.5c0.7,0,2.1-0.2,2.2-1c0.2-0.9-1-1.8-1.2-2.4
			c-0.3-0.6-0.3-1.6-0.9-1.8c-1.1-0.3-2.2,1.8-3.6,1.8c-0.9,0-1.9-0.8-2.1-1.7c-0.1-0.5,0-0.9-0.1-1.4c-0.1-0.7-0.4-1.5-0.3-2.5
			c0.6-1.2,1.8-1.3,2.8-1.9c0.4-0.2,0.6-0.7,1-0.9c0.7-0.3,1.6,0,2.3-0.4c0.4-0.3,0.3-0.8,0.6-1.3c0.2-0.4,0.6-0.6,0.9-1
			c0.2-0.3,0.2-0.7,0.4-1c0.6-0.9,1.8-1.3,2.3-2.3c0.2-0.4-0.4-0.6-0.2-1.2c0.2-0.6,1.1-0.2,1.7-0.3c0.7-0.1,1.4-1.2,2.2-1.4
			c0.8-0.2,1.7-0.1,2.5-0.4c0.5-0.2,0.9-0.7,1.3-0.8c0.2,0,0.6,0.1,0.8,0.1c0.3,0,0.6-0.2,0.9-0.3c0.5-0.1,1.2,0.2,1.9,0.2
			c1.2,0,2.3-0.4,3.2,0.1c0.5,0.3,0.4,0.9,1.1,1.2c0.3,0.1,0.8-0.1,1.2,0c0.7,0.1,1.5,0.7,2.4,0.8c0.3,0,0.7-0.1,1,0
			c1,0.2,2.2,0.8,3.2,1.2c0.9,0.3,2.7,0.8,2.7,1.8c0,1.2-1.6,1.5-2.3,1.5c-1.1,0-2.7-0.8-3.9-0.3c0,2,1.8,3.5,3.4,3.2
			c0.1-0.9-0.9-0.4-0.8-1.3c0.7-0.7,1.6,0.4,2.6,0.3c0.4-0.1,0.3-0.8,0.4-1.3c0.9-0.6,2-1.6,3.3-0.9c0.1-0.2,0.2-0.3,0.3-0.4
			c0.1-1-0.9-1.5-0.4-2.4c0.3-0.6,1.6-0.4,1.8,0.1c0.1,0.6-0.3,0.5-0.3,1.1c0.3,0.7,0.9,0.8,1.2,0.8c0.7,0,0.9-0.8,1.5-1.2
			c0.3-0.2,0.7-0.2,1-0.4c0.4-0.2,0.8-0.6,1.1-0.7c0.2-0.1,0.6,0,0.9-0.1c0.4-0.1,0.9-0.5,1.2-0.5c0.4,0,0.8,0.6,1.3,0.7
			c0.3,0,0.7-0.2,1.1-0.3c0.4,0,0.7,0.1,1,0c0.7-0.1,1.2-0.6,1.8-0.5c0.4,0,1.1,0.7,1.4,0.4c0.5-0.6-0.6-1-0.3-1.5
			c1.1,0.1,2.3,0.1,3.4,0.3c1.7,0.3,3.2,1.3,4.7,1.3c-0.1-1.2-1.3-0.9-1.8-1.4c-0.2-0.2-0.8-1.4-0.8-1.8c0-0.2,0.8-1.9,1-2.1
			c0.6-0.7,2.8-0.7,3.4,0.3c0.4,0.7,0.3,1.7,0.9,1.7c0.5,0,0.8-1.5,1.4-1.6c0.5,0,0.7,1,1.2,1c0.6,0,1-1.4,1.8-1.4
			c0.4,0,0.6,0.3,1.2,0.4c0.5-0.4-0.2-0.8,0.1-1.3c0.8-0.7,2.7-0.2,3.7-0.6c0.3-0.4-0.4-0.7-0.1-1.1c0.9-0.8,2.4-0.8,3.9-1.1
			c0.9-0.2,1.8-1,2.6-1.1c0.8-0.1,1.5,0.5,2.2,0.5c0.4,0,0.9-0.2,1.3-0.3c0.4-0.2,0.7-0.7,1.1-0.8c0.6-0.2,1.4,0.1,2.2,0
			c0.8-0.1,1.5-0.5,2-0.3c0.5,0.1,1,0.8,1.5,0.9c1.5,0.3,3.1-0.3,4.5,0.2c0.3,0.1,0.5,0.4,0.8,0.5c0.9,0.4,1.6,0.3,1.8,1.7
			c0.7,0.3,1.2,1.1,2,1.4c0.6,0.2,1.2-0.1,1.8-0.1c0.9,0,2,0,2.7,0.2c0.4,0.1,0.8,0.4,1.2,0.5c0.3,0.1,0.7,0,1,0
			c0.5,0.1,0.9,0.3,1.2,0.3c0.8,0,1.3-0.8,2-1c0.3-0.1,0.8,0.1,1.1,0.2c1.2,0.1,2.6-0.2,3.7,0.1c0.5,0.2,1.5,0.9,2,1.4
			c0.4,0.4,0.7,1,1.1,1.3c0.4,0.3,1.4,0.8,1.8,0.7c0.5-0.1,0.5-0.7,0.9-1c1.4-0.4,4,0.6,5.2-0.1c0.5-0.3,0.4-0.8,0.7-1.1
			c2.2-0.1,4.4,0.1,6.4,0.2c0.7,0,1.5-0.2,2.1-0.1c0.7,0.2,1.2,1,2,1.3c0.5,0.2,1.3,0.1,2,0.3c0.5,0.1,0.9,0.5,1.2,0.5
			c0.8,0.1,1.5-0.1,2.3-0.2c1.7-0.2,3.8-0.3,5.5,0.5c0.9,0.4,1.2,1.3,2.2,1.4c1.3,0.2,3.4-0.1,4.8,0c0.3,0,0.6,0.2,0.9,0.2
			c0.5,0,0.7-0.5,1.3-0.5c0.7,0,1.9,1.4,2.9,1.1c0.5-0.4-0.4-0.9,0.1-1.2c0.4-0.4,1,0,1.6,0c0.3,0,0.8-0.2,1.1-0.2
			c0.8,0.1,1.6,1,2.6,1.2c0.8,0.2,1.9,0.3,2.8,0.2c0.7-0.1,1.3-0.4,2-0.3c0.3,0.1,0.6,0.3,0.9,0.4c0.3,0.1,0.6,0,0.9,0.1
			c0.2,0.1,0.5,0.4,0.7,0.4c1.4,0.5,3.2,0.7,4.6,1.2c0.8,0.3,1.7,0.9,2.4,1c0.3,0,0.7-0.2,1.1-0.2c2.2,0,4.8,1.1,4.6,3.6
			c-2.6,0.7-4.7-2.1-7.4-1.3c-0.4,0.1-0.9,0.7-0.9,1.2c0.1,1.5,3.3,1.4,3.6,2.9c-0.5,0.5-1.1,0-1.5,0.1c-0.7,0.1-1.8,0.9-2.2,1.4
			c-0.5,0.6-0.9,2-1.5,2.1c-0.7,0.2-1.6-0.8-2.6-0.5c-0.4,0.1-0.7,0.6-1,0.7c-0.8,0.2-1.8-0.5-2.3,0.6c0.3,0.8,0.1,1.9,0.7,2.4
			c0.4,0.3,0.8,0.1,1.2,0.3c0.5,0.2,0.8,1,1.2,1.4c0.4,0.3,0.8,0.4,1,0.8c0,0.6-0.2,0.7-0.1,1.1c0.1,0.7,1.1,0.9,1.1,1.4
			c0,0.6-0.6,0.5-0.7,1.1c0,0.4,0.4,0.5,0.4,1.1c0,0.4-0.2,0.7-0.2,1.1c0,0.6,0.4,1,0.4,1.5c0,0.4-0.4,0.8-0.7,1
			c-1.4-1.1-2.7-2.6-4.2-3.9c-1.5-1.4-4-3.2-4.2-6.1c0-0.5,0.8-0.8,0.9-1.5c0.1-0.3-0.1-0.7-0.1-1.1c0.1-1,0.8-2,0.7-2.6
			c0-0.7-1.1-1.9-1.6-2.1c-0.4,0.3,0,0.8-0.1,1.2c-0.1,0.5-0.6,1.2-1.1,1.2c-1.4,0.1-1.5-2.1-3.7-1.5c-0.6,0.2-1.4,1.2-1.2,2.5
			c0.1,0.4,0.9,0.8,0.9,1.3c-0.1,0.5-2,0.7-2.4,0.6c-1.2-0.1-1.8-1.2-2.8-1.1c-0.5,0-1,0.5-1.4,0.6c-2.3,0.5-5.7-1.4-6.5,1.1
			c-0.1,0.3,0,0.8-0.1,1.1c-0.1,0.5-0.5,0.9-0.6,1.2c-0.1,0.3-0.1,0.8-0.2,1.2c-0.1,0.4-1.5,1.9-0.3,2.3c0.3,0.1,0.4-0.2,0.8-0.1
			c0.6,0.1,1.7,1.3,2.4,1.3c0.4,0,1.1-0.6,1.4-0.6c0.7,0,1.2,0.5,1.7,0.8c0.5,0.3,1.2,0.9,1.6,0.9c0.7,0,0.4-0.6,1-0.9
			c1.3,0.4,1.9,2.1,3.1,3.3c0.4,0.5,1.1,0.9,1.7,1.5c0.3,0.4,1.3,1.3,1.4,1.8c0,0.4-0.3,0.6-0.4,1c-0.1,0.5,0.2,0.9-0.1,1.3
			c-1.2-0.5-1.4-1.9-2.3-3.1c-0.3-0.4-0.6-1-1.1-1.6c-0.2-0.3-1-1.3-1.5-1.1c-0.9,0.4,0.5,2.1,0.7,2.5c0.5,0.8,1.1,1.8,1.2,2.6
			c0,0.5-0.3,1.5-0.3,2.4c0,0.6,0.1,1.2,0.1,1.7c-0.1,0.5-0.4,1.1-0.5,1.7c-0.2,0.6-0.2,1.4-0.4,1.8c-0.3,0.8-1.2,1.7-1.9,1.8
			c-0.6,0-0.9-0.6-1.5-0.5c-0.9,0.1-1.1,1-1.6,1.8c0,0.9,0.3,1.2,0.1,1.8c-0.2,0.9-1.3,1.1-1.2,2c0,0.9,1,1,1.5,1.4
			c0.7,0.5,1.8,1.7,2.4,2.6c0.4,0.6,1,1.8,0.9,2.5c-0.1,0.9-2.1,2.1-3,1.8c-0.8-0.3-0.5-1.2-0.7-2.1c-0.1-0.7-0.6-1-0.8-1.5
			c-0.1-0.3-0.1-0.7-0.2-1.1c-0.4-0.9-1.2-0.4-2.1-1c-0.6-0.4-0.4-1.1-0.7-1.8c-0.3-0.9-1.6-1.4-2.7-1.1c-0.8,0.2-1,1-1.8,1.1
			c-1.1-0.8,0.2-2.6-1.1-2.8c-1-0.1-1.7,1.7-2.3,2.3c-0.4,0.4-1.1,0.4-1.2,1c-0.1,1,0.8,0.8,1.6,1.1c0.7,0.3,0.8,1.3,1.4,1.3
			c0.5,0,0.9-0.6,1.4-0.7c0.9-0.1,1.6,0.4,2.2,0.8c-0.4,1.1-2.3,1.8-2.3,3.2c0,0.8,0.8,1,1.4,1.5c0.5,0.5,1.2,1.7,1.9,2.6
			c0.3,0.4,0.8,0.6,1,0.9c0.3,0.6,0.3,1.3,0.7,1.7c0.1,0.5-0.2,0.6-0.1,1.1c0.2,0.6,1,0.5,1.2,1.1c-0.1,1.5,0.4,2.9-0.7,3.5
			c-0.5,2.7-1,4.8-2.6,6.3c-1.4,1.3-3.2,1.7-4.9,2.4c-0.4,0.2-0.8,0.7-1.2,0.9c-1,0.4-2.7,0.2-2.8,1.6c0,0.7,0.7,1.1,0.8,1.8
			c0.1,1.1-0.7,2.2-1.3,2.3c-0.4,0.1-1.3-0.3-1.4-1.2c-0.1-1,1.1-1.5,1.2-2.1c0.2-1.1-0.8-2.2-1.9-2.1c-1,0.1-3.2,2.4-3.2,3.7
			c0,1,1.6,2.9,2.1,3.5c2.1,2.2,4.2,3.5,3.9,8.8c-0.5,1.3-1.8,1.6-2.8,2.4c-0.8,0.6-1.2,2.3-2.5,2.5c-0.5-0.2-0.2-1.2-0.4-1.7
			c-0.2-0.6-1.2-0.9-1.9-1.6c-0.5-0.5-0.8-1.4-1.2-1.8c-0.5-0.6-1.3-0.7-1.9-1.1c-0.4-0.3-0.7-1.2-1.1-1.1c-0.6,0-0.4,0.8-0.6,2
			c-0.2,1.2-0.9,2.2-0.7,3.6c0.1,0.6,0.7,1.1,1,1.7c0.5,1,0.6,2.2,1.1,2.7c0.3,0.4,0.9,0.5,1.3,0.8c0.8,0.7,2.1,2.1,2.4,2.9
			c0.3,0.9,0,2,0.2,3c0.2,1.1,1.5,1.9,0.7,3.1c-0.7-0.2-1.3-0.7-1.9-1.1c-1-0.7-1.5-1.4-2.1-2.6c-0.2-0.4-0.5-0.7-0.6-1.1
			c-0.3-0.8-0.2-1.7-0.4-2.6c-0.2-0.8-1-2.1-1.6-2.8c-0.5-0.6-1.4-0.9-1.5-1.8c-0.1-1.2,0.3-2.6,0.3-3.9c0-0.3-0.2-0.6-0.2-1
			c-0.1-0.7,0.1-1.5-0.1-2.1c-0.1-0.6-0.5-1.1-0.7-1.6c-0.2-0.5-0.4-1-0.6-1.7c-0.3-1-0.6-3-1.3-3.1c-0.7-0.1-1.5,1.6-2.4,1.7
			c-0.5,0-1.1-0.5-1.2-1.1c-0.1-0.5,0.2-1.1,0.2-1.7c0-1.2-0.7-1.6-1.2-2.5c-0.2-0.3-0.3-0.8-0.4-1.1c-0.3-0.5-1-0.7-1.4-1.2
			c-0.4-0.5-0.8-1.1-1-1.6c-0.3-0.7-0.4-1.6-0.8-1.7c-0.4-0.1-0.9,0.6-1.3,0.8c-0.4,0.2-1.5,0.4-2,0.4c-1.5,0.1-2.7-0.3-2.5,1.8
			c-0.2,0.9-1.1,1-1.6,1.4c-0.7,0.6-1.2,1.7-2,2.6c-0.4,0.4-0.9,0.7-1.2,1.1c-0.3,0.3-0.4,0.9-0.7,1.2c-0.8,0.9-1.9,1-2.5,2.2
			c0,1.5,0.6,2.6,0.4,3.9c-0.1,0.6-0.5,1.2-0.5,1.8c0,0.6,0.2,1.2,0.1,1.8c-0.1,0.3-0.4,0.5-0.6,0.9c-0.2,0.3-0.3,0.8-0.4,1.1
			c-0.2,0.4-0.7,0.6-0.9,1c-0.4,0.5-0.4,0.9-0.8,1c-1.6,0.3-2-3.4-2.7-4.9c-0.3-0.7-1-1.3-1.3-2.2c-0.4-1-0.5-2.2-1-3.3
			c-0.5-1-1.1-1.9-1.4-2.9c-0.3-0.8-0.5-1.9-0.7-2.8c-0.3-1-0.5-2.2-0.6-3c-0.1-1.1,0.2-1.8-0.6-2.3c-0.7,0.2-1,1.1-1.8,1.1
			c-0.8,0-2.9-1.6-2.3-3.1c-0.5-0.9-1.8-1.3-2.8-2.4c-0.6-0.6-1.1-2-2-2.1c-0.3,0-0.6,0.1-0.9,0.2c-0.6,0.1-1.7-0.1-2.4,0
			c-0.9,0.1-2,0.3-3.1,0.2c-0.7-0.1-1.6-0.3-2.3-0.3c-0.9-0.1-2.2-0.4-2.7-1c-0.3-0.4-0.5-1.5-1-1.7c-0.7-0.2-1,0.4-1.7,0.6
			c-1.3,0.4-2.5-0.3-3.4-1.1c-0.6-0.5-1.2-0.8-1.7-1.1c-1.1-0.9-1.3-3.6-3-3.6c-0.6,0-1.5,0.4-1.6,1.2c-0.1,0.6,0.6,1.6,0.8,2
			c0.8,1.4,2.3,1.9,2.8,3.8c0.3,0.1,0.9-0.3,1.2,0.1c0.3,0.8,0,2.3,0.7,2.6c3,0.6,3.9-1.4,5.3-2.8c0.8,0.6,0.5,1.2,0.8,1.8
			c0.3,0.7,0.7,1.2,1.2,1.5c0.4,0.2,0.8,0,1.4,0.3c0.3,0.2,1.8,1.8,1.8,2.4c0,0.5-0.9,2.3-1.2,2.7c-0.3,0.4-0.7,0.7-0.9,1.1
			c-0.1,0.3-0.1,0.9-0.1,1.1c-0.1,0.3-0.8,0.8-1.2,1.2c-0.4,0.4-0.9,0.8-1.2,1.1c-0.5,0.4-0.7,1-1.2,1.2c-1,0.4-1.9,0.2-2.7,0.9
			c-0.5,0.4-0.5,1.3-1.2,1.8c-0.7,0.5-1.8,0.5-2.8,1.1c-0.6,0.3-1,1-1.5,1.2c-0.2,0.1-0.5,0-0.7,0.1c-0.5,0.1-0.9,0.6-1.4,0.7
			c-0.4,0.1-0.7,0.1-1.1,0.2c-1.1,0.4-2.2,1.8-3.3,1c-0.5-1.5-0.6-3.3-1.2-4.6c-0.3-0.7-0.9-0.9-1.2-1.6c0-0.6,0.5-0.4,0.6-0.9
			c-0.2-0.9-0.9-1.4-1.4-2.2c-0.2-0.4-0.3-1-0.6-1.4c-0.9-1.5-2.6-2.3-2.9-4.2c-0.1-0.5,0-0.9-0.1-1.3c-0.1-0.6-0.5-1.3-0.9-1.8
			c-0.3-0.4-0.8-0.7-1.2-1.2c-0.2-0.4-0.3-0.9-0.4-1.3c-0.7-1.6-1.8-3.1-2.9-4.2c-0.6,0.1-1.2,0.2-1.5,0.6c0.3,1.1,0.8,2.1,1.2,3.1
			c0.4,0.9,1.1,1.8,1.4,2.8c0.1,0.4,0.1,0.8,0.2,1.2c0.5,1.4,1.9,1.8,2.2,3.4c0.2,1.1,0,1.8,0.2,2.9c0.3,1,1.5,1.6,2,2.6
			c0.4,0.8,0.4,2,0.7,2.7c0.4,1.1,1.7,1.6,2.6,2.4c0.8,0.7,1.4,1.7,2,2.5c0.4,0.4,0.9,0.5,1,1c0.1,0.6-0.2,0.8-0.3,1.3
			c0.6,0.7,1.1,2,2,2.1c0.4,0,0.9-0.4,1.5-0.5c0.3-0.1,0.6,0.1,0.9,0c0.4-0.1,0.7-0.5,1.2-0.6c0.7-0.2,1.6-0.1,2.6-0.3
			c0.9-0.1,1.5-1,2.2-0.8c0.8,1,0.2,2.1,0,3.1c-0.1,0.3-0.1,0.7-0.1,1c-0.4,1.6-1.4,2.7-1.9,4.1c-0.1,0.4-0.1,1-0.3,1.4
			c-0.5,1.4-1.7,2.8-2.6,3.9c-0.5,0.6-0.9,1.2-1.5,1.8c-0.5,0.5-1.2,0.8-1.8,1.3c-1.2,1-2.4,2.5-3.2,3.9c-0.3,0.5-0.5,1.1-0.8,1.6
			c-0.5,0.6-1.2,1-1.6,1.6c-0.3,0.5-0.5,1.4-0.9,2.3c-0.4,1-1.2,1.7-1.1,3.1c0.1,0.5,0.5,0.9,0.6,1.4c0.2,0.9,0.1,1.7-0.1,2.7
			c0.4,1.2,0.7,2.5,1.5,3.3c0.1,1.8-0.1,3.5,0,5c0.1,1,0.4,1.7,0.1,2.5c-0.3,0.8-1.3,2.1-2,2.6c-0.7,0.5-1.7,0.7-2.5,1.3
			c-0.5,0.4-0.9,1.2-1.5,1.8c-0.9,0.9-2,1.7-2.1,2.5c0,0.5,0.3,1.3,0.4,1.8c0.3,1.3,0.6,3.2,0.1,4.6c-0.5,1.5-3.2,1.2-3.5,2.8
			c-0.1,0.5,0.2,0.9,0.1,1.4c0,0.4-0.5,2.1-0.7,2.5c-0.3,0.7-1.1,1.1-1.5,1.7c-0.6,0.8-0.9,1.9-1.5,2.7c-0.9,1.1-2,2.3-3.1,3.2
			c-1,0.8-2.7,1.7-4.2,1.8c-0.9,0.1-1.8-0.3-2.8-0.1c-0.3,0.1-0.7,0.4-1.2,0.5c-0.3,0.1-0.5-0.1-0.8,0c-0.5,0.1-0.9,0.5-1.3,0.5
			c-0.9,0-2.2-1.4-2.2-2.7c0-0.5,0.4-1,0.4-1.5c0-0.6-0.6-1.3-1-2.3c-0.4-1-0.6-2.1-1-2.9c-0.5-0.9-1.1-1.3-1.4-1.9
			c-0.7-1.3-0.7-2.9-0.9-4.6c-0.1-0.5-0.4-1.1-0.4-1.8c-0.1-0.8,0.1-1.7-0.1-2.4c-0.1-0.5-0.6-1-0.9-1.7c-0.5-1.1-0.9-2.6-1.3-3.5
			c-0.4-0.8-1.2-1.7-1.3-2.6c0-0.6,0.1-1.8,0.1-2.5c0.1-0.6,0.5-1.1,0.6-1.8c0.1-0.4,0-0.9,0.1-1.4c0.4-2,2.2-2.7,2-5.2
			c-0.1-1-0.7-1.5-0.8-2.7c0-0.5,0.2-1,0.2-1.6c0-0.7-0.5-1.8-0.8-2.5c-0.7-1.9-1.2-3.7-2.3-5.2c-0.6-0.8-1.3-1.4-1.8-2.1
			c-0.4-0.6-0.9-1.7-0.9-2.2c0-0.5,0.3-0.8,0.4-1.3c0.2-0.6,0.2-1.9,0.4-2.9c0.1-0.5,0.5-1.6,0.4-2.4c-0.1-0.7-1-2.1-1.8-2.4
			c-1-0.3-2.1,0.4-3.4,0.3C165.4,112.3,165.4,110.1,163.8,109.9z M204.2,141.3c0.3-0.6,0.8-2.5,0-2.9c0,0-0.1,0-0.1,0
			C203.7,139.1,203.4,140.9,204.2,141.3z M203.2,122.9c0.2-0.6,0.8-1.2,0.7-2c-0.2-1.7-2.8-0.9-3.1,0.3c-0.2,0.8,0.1,1.5-0.1,2.3
			c0.3,0.6,1,0.8,1.9,0.7C203,124,203,123.5,203.2,122.9z M198.7,132c0.3-0.6-0.5-1.1-0.6-1.8c-0.1-0.8,0.2-1.8-0.4-2.2
			c-0.1,0-0.1,0-0.2,0C197,129.5,197.7,131.8,198.7,132z M248.5,44.8c-0.3-0.7-1.1,0.2-0.7,0.8C248.3,45.7,248.5,45.3,248.5,44.8z
			 M231.5,48.4c1.2-0.3,0-2.5-0.9-2.3C229.5,46.5,230.7,48.6,231.5,48.4z M226.1,59.8c0.4-3-1.6-3.3-2-5.4c0.2,0,0.1-0.3,0.2-0.3
			c0.5-0.3,1.2,0.4,1.5-0.3c0-1-1.1-1.8-2.2-1.3c-0.3-0.3-0.4-0.9-0.4-1.4c-0.8-0.6-2.9-1.9-2.8-3.1c0-1,1.1-1.5,2.3-1.5
			c0.5-0.5,0.2-1.9-0.3-2.2c-1.9-0.5-2.9-0.2-4.1,0.9c-0.6,0.5-1.2,0.8-1.5,1.1c-0.3,0.3-0.7,1-0.7,1.4c0,0.5,0.7,0.9,0.9,1.6
			c0.1,0.4,0.1,0.8,0.2,1.1c0.3,0.8,1.1,1.4,1.8,2.1c0.4,0.5,1.7,1.6,1.7,2.2c0,0.5-0.4,0.6-0.5,1.1c-0.1,0.5-0.3,1.7-0.2,2.2
			c0.2,1,1,1,1.7,1.4c0.8,0.4,1.5,1.1,2.3,1.1C224.8,60.7,225.7,60.3,226.1,59.8z M209,53.4c2-0.4,1.1-2.4,0.1-3.2
			c-0.8-0.5-1.7-1-2.6-1.7c-0.5-0.4-2.5-1.1-2.5-1.8c0-0.8,1.5-1.1,0.9-2.5c-1-0.3-3.4,0.2-3.2,1.5c0.1,0.8,0.8,0.3,1,1.1
			c-0.7,0.3-1.6,1.1-2.3,1c-0.9-0.2-1.1-1.5-1.6-2.3c-0.7,0-1.2-0.8-2-0.7c-0.9,0.1-1.3,1.6-1.8,2.4c-0.2,0.4-0.6,0.6-0.7,1
			c-0.1,0.2,0,0.6-0.1,0.9c-0.3,1-1,1.3-0.9,2.2c0.1,0.8,0.8,1.1,0.8,1.8c0,0.7-0.9,0.3-0.9,1.1c1.3,1.3,1.4-0.6,2-0.9
			c0.5-0.2,1.6,0.2,2.3,0c0.5-0.1,1-0.8,1.6-1.1c0.4-0.2,0.9-0.3,1.4-0.4c2.3-0.1,3.8,1.7,5.8,1.8C207.1,53.6,208.3,53.6,209,53.4z
			 M204.3,63.8c0-0.9-0.3-1.7-0.4-3c-1.3-1-2.4,0.9-3.7,0.7c-0.8-0.1-1.4-1.3-2.3-1.1c-0.5,0.1-0.7,0.9-1.2,1c-1,0.2-1.5-1-2.6-0.5
			c-1.6-1.4-2.3-3.8-2.6-6.4c-0.9-1.3-2.2-0.3-2.8,0.6c-0.4,0-0.9-0.3-0.9,0.3c-0.3,1.6,1.9,1.8,1.9,2.9c0,0.7-0.9,0.6-1.2,1.1
			c-0.4,0.5-0.1,1-0.7,1.3c-1.4,0.2-1.9-0.7-1.9-2.3c-0.6-1.1-1.4-2-2-2.9c-0.2-0.3-0.5-0.9-0.6-1.4c-0.1-0.4,0.2-0.9,0.1-1.4
			c-0.2-0.8-1.5-1.5-2.3-1.9c-0.9-0.5-1.9-1-2.6-1.6c-0.4-0.4-0.6-1.2-1-1.5c-0.3-0.2-0.7-0.2-1-0.4c-0.4-0.3-0.3-0.9-0.9-1.1
			c-0.3-0.1-0.7,0.3-0.9,0.6c-0.4,1.9,0.9,2,1.5,2.9c0.4,0.6,0.6,1.5,1,1.8c0.4,0.4,1,0.3,1.6,0.6c0.4,0.2,0.6,0.8,1,1.1
			c0.7,0.5,1.8,0.6,1.9,1.6c-0.4,0.4-1.4-0.5-1.8,0.4c-0.1,0.6,0.4,0.9,0.4,1.4c0,0.9-0.8,1.8-1.5,1.7c-0.1-0.5,0.4-0.9,0.4-1.5
			c0-1.1-1.9-2.8-2.8-3.3c-0.4-0.2-1-0.3-1.4-0.5c-0.7-0.5-2-1.7-2.4-2.4c-0.5-0.8-1-2.4-2.1-2.3c-0.5,0-0.9,0.6-1.2,0.8
			c-0.4,0.2-0.7,0.4-1.1,0.7c-0.4,0.3-0.8,0.7-1.2,0.7c-0.9,0-1.7-0.8-2.5-0.6c-0.3,0.1-0.5,0.4-0.8,0.7c0,0.5,0.1,0.8,0.1,1.4
			c-0.2,0.5-0.9,0.5-1.5,0.8c-0.8,0.5-1.4,1.5-2,2.2c-0.4,0.5-0.8,0.9-0.8,1.2c0,0.3,0.2,0.8,0.1,1.2c-0.1,0.4-0.7,1.3-1.2,1.7
			c-0.3,0.2-0.6,0.2-0.9,0.4c-0.6,0.4-0.8,0.9-1.3,1.1c-1.3,0.3-3.6-0.3-3.6,1.3c0,1.1,1.2,1.1,2,1.1c1,0,1.9,0.3,2.5,0.1
			c0.4-0.1,0.8-0.7,1.2-0.9c0.3-0.1,0.5-0.1,0.7-0.3c0.4-0.3,0.7-0.7,1-0.9c0.7-0.4,1.9-0.7,2.6-0.7c1-0.1,2,0.1,3.3,0
			c0.5,0,0.9-0.4,1.4-0.4c0.8-0.1,1.8,0.4,2.5,0.4c0.4,0,0.9-0.5,1.5-0.5c0.6,0,1.2,0.5,1.3,1c0.1,0.3-0.1,0.7-0.1,1.1
			c0.1,0.6,0.5,0.9,0.5,1.3c0,0.5-1.2,1.3-1,1.9c0.1,0.4,0.9,0.9,1.3,1.1c0.4,0.3,1.1,0.7,1.6,0.8c0.4,0.1,0.8-0.1,1.2-0.1
			c0.6,0.1,1.6,0.5,2,0.9c0.7,0.6,0.6,1.5,1.4,1.8c0.3,0.1,1,0.1,1.4,0.2c1.1,0.3,1.9,1.3,2.6,1.2c1.2-0.2,0.7-1.6,0.8-2.5
			c0.3-2.2,4-2.1,4.7-0.6c0.5,0.2,1,0,1.6,0.3c0.4,0.1,0.6,0.6,0.9,0.7c0.3,0.1,0.6,0,0.9,0c1.4,0.2,2.7,1.4,3.9,1.2
			c0.8-0.1,1.3-1,2-1.1c1.4-0.1,2.3,1.2,3.8,0.6c1.1-0.5,0.9-1.8,1.2-3.2C203.8,65.2,204.3,64.5,204.3,63.8z M283,33.9
			c0.3-1.1-0.2-2.2-0.7-3c-0.8,0.2-0.2,1.2-0.3,1.8c-0.1,0.9-0.9,1.5-0.8,2.4c-0.3,0.4-0.8,0.5-0.8,1.2c0.5,0.4,0.7-0.3,1-0.7
			C281.9,35,282.8,34.6,283,33.9z M263.9,3.4c-0.8,0-1.1,0.4-1.6,0.7c-0.3,0.2-0.8,0.3-0.7,0.8C262.3,4.8,263.7,4.4,263.9,3.4z
			 M233.1,14.2c1.7,0.5,2.5-1.8,1.4-3.2c-0.3-0.3-1.2-0.4-1.5-1.1c-0.4-0.9-0.4-2-1.5-1.8c0,0.1,0,0.2-0.1,0.3
			c-0.1,1.9,2.2,2.4,2.2,3.9C233.6,13.2,232.8,13.3,233.1,14.2z"/>
		<path class="st0" d="M209,10.9c-0.2-0.9,1.3-0.8,1,0.1C209.8,11.3,209.2,11.2,209,10.9z"/>
		<path class="st0" d="M200.1,63.4c0-0.7,1.4-1,1.7-0.3C201.6,63.7,200.3,64.2,200.1,63.4z"/>
		<path class="st0" d="M175,58.6c0.8-0.7,2.5-0.2,3.5-0.3c-0.2,0.7-0.2,1.5-0.7,1.9C176.7,60,175.5,59.7,175,58.6z"/>
		<path class="st0" d="M169.7,54c1-1.3,2.1-0.6,1.7,1.8c-0.2,0.7-1.3,1.7-1.8,0.6C169.8,55.6,169.7,55,169.7,54z"/>
		<path class="st0" d="M171.1,51.2c0.1,0.7-0.2,1.1-0.5,1.3C169.7,52.3,170.4,50.2,171.1,51.2z"/>
		<path class="st0" d="M157,33.4c0.1-0.5-0.2-1.1-0.7-1.4c-0.2-0.2-0.6-0.1-0.9-0.3c-0.7-0.5-1-1.4-1.4-1.7c0.1-1-0.2-1.7,0-2.3
			c0.1-0.4,1.1-1.4,1.6-1.7c0.6-0.3,1.3,0,1.7-0.6c0.2,0,0.3,0,0.4,0.1c0,0.6-0.4,0.6-0.4,1.1c0.1,0.8,1.3,0.3,1.4,1.1
			c-0.1,0.8-0.7,1-0.7,1.6c0,0.5,0.9,1.5,1.3,2.2c0.3,0.5,0.9,0.9,1.2,1.4c0.3,0.5,0.3,1,0.5,1.2c0.4,0.4,1.3,0.5,1.3,1.1
			c0.1,0.8-0.9,1.2-0.7,2.1c-1,0.9-2.7,0.5-4.3,0.7c-0.7,0.1-1.6,1-2.3,0.3c-0.2-0.6,0.6-0.7,0.7-1.2c-0.1-0.5-0.6-0.4-0.7-0.9
			c0.2-0.7,0.9-0.8,0.8-1.8C156.1,33.9,156.9,34.1,157,33.4z"/>
		<path class="st0" d="M151.5,31.2c1-0.7,2.7-0.2,2.8,0.7c0.1,0.7-0.5,0.8-0.7,1.5c-0.2,0.7,0,1.5-0.2,1.9c-0.2,0.4-0.8,0.4-1.2,0.5
			c-0.9,0.3-2.7,1.6-3.4,0.2c0.1-0.8,0.7-0.9,0.9-1.6c0-0.5-0.4-0.8-0.4-1.3c0.1-0.7,0.5-0.4,1.1-0.7
			C150.8,32.3,150.9,31.7,151.5,31.2z"/>
		<path class="st0" d="M101.6,12.2c0.2,0.8-1.9,1.8-2.1,0.8C99.4,12.2,101.1,11.2,101.6,12.2z"/>
		<path class="st0" d="M99.2,209.9c-0.4,0-0.7,0-1.1,0C98.3,209.8,99,209.8,99.2,209.9z"/>
		<path class="st0" d="M95.9,6c0.1-0.1,0.3-0.1,0.4,0c-0.1,0.2-0.1,0.4-0.4,0.3C95.9,6.2,95.9,6.1,95.9,6z"/>
		<path class="st0" d="M89.4,19.9c0,0.5-1.5,1.3-1.6,0.4c0-0.2,0-0.5,0.3-0.7C88.5,19.3,89.4,19.5,89.4,19.9z"/>
		<path class="st0" d="M59.1,101.4c0,0.1-0.1,0.2-0.1,0.4C58.1,101.7,58.8,100.6,59.1,101.4z"/>
		<path class="st0" d="M29.4,40.1c0.5-0.4,1,0.5,0.7,1C29.5,41.2,29.4,40.4,29.4,40.1z"/>
		<path class="st0" d="M109,43.4c-0.3-0.1-0.8-0.1-1.2-0.2c-0.4-0.1-0.8-0.2-1.2-0.3c-0.9-0.1-1.9,0.2-2.4-0.4
			c0.9-1.4,2-2.8,3.1-3.9c0.3-0.4,1-0.6,0.9-1.3c-0.6-0.7-1.4,0-2,0.4c-0.6,0.4-1.3,1-2,1.1c-1.2,0.2-2.8-0.4-3.8,0.3
			c-0.1,0.7,1.1,0.4,0.9,1.4c-0.5,0.1-0.9,0.1-1.3-0.3c-0.3-0.4-0.1-0.9-0.4-1.1c-0.4-0.4-1.8-0.5-2.4-0.3c-0.8,0.2-1.4,0.7-1.5,1.5
			c0.9,0.5,2.4-0.5,2.8,0.8c-0.5,1.1-1.7,1.7-1.5,3.2c0.1,0.6,0.6,1.3,1,1.4c0.4,0.1,0.6-0.4,1-0.4c0.4,0,0.3,0.6,0.8,0.5
			c0.7-0.4,1.1-1.5,1.9-1.5c1,1.4-0.9,2.1-1.9,2.5c-1.2,0.5-2.7,0.8-3.6,1.2c-0.5,0.2-2.2,2.3-2.5,0.7c-0.2-1.1,0.9-0.8,1.1-1.8
			c-1.1-0.3-2.2,0.6-3.2,1.1c-1.5,0.7-4,1.1-4.3,3.1c-0.1,0.4,0.1,1.1-0.1,1.4c-0.2,0.2-1.2,0.3-1.7,0.4c-0.7,0.3-1.3,0.9-1.8,1.1
			c-0.3,0.1-0.8,0.1-1,0.2c-0.6,0.3-0.8,1.2-1.5,1.8c-0.3,0.3-0.9,0.4-1.1,0.7c-0.4,0.5-0.4,1.6-1.1,1.8c-0.4,0-0.8-0.4-1.2-0.1
			c0,1.1,0.3,2.6-0.1,3.8c-0.9,0.8-1.8,1.4-2.9,2.2c-0.6,0.4-1.2,0.5-1.9,1c-0.5,0.3-1,1.1-1.6,1.5c-1.4,1-3.1,2.2-3.1,4.6
			c0,0.5,0.2,1.1,0.3,1.8c0,0.4,0,0.7,0,1.1c0.1,0.9,0.6,2.1,0,2.7c-1-0.5-2.2-0.6-2.9-1.5c-0.2-0.9,0.4-1.6,0.3-2.4
			c-0.1-0.6-0.8-1.8-1.2-1.8c-0.4-0.1-0.9,0.5-1.3,0.4c-0.5-0.1-1.1-1-1.8-1.1c-1-0.1-1.8,0.3-2.9,0.1c-1.1,0.7-1.4,2-2.8,1.8
			c-0.5,0-0.9-0.5-1.5-0.6c-0.6-0.1-1.5-0.4-2.1-0.3c-1.2,0.1-2.1,1.2-3.2,1.8c-0.9,0.6-2.3,1.3-2.6,2.5c-0.2,0.7,0,1.6-0.2,2.2
			c-0.1,0.4-0.4,0.8-0.6,1.1c-0.8,1.8-1.5,4.2-0.9,6.8c0.1,0.4,0.9,2.5,1.2,3c0.4,0.5,1.5,1.2,2.1,1.2c0.5,0,1.2-0.3,1.7-0.4
			c0.6-0.1,1.4-0.1,1.9-0.4c1.6-0.6,1.3-3.2,2.8-4c0.7-0.4,1.5-0.4,2.7-0.5c0.4,0.4,0.6,1.1,0.5,1.7c0,0.4-0.4,0.9-0.6,1.5
			c-0.2,0.6-0.2,1.2-0.4,1.7c-0.2,0.6-0.7,1-0.9,1.6c-0.1,0.4-0.1,0.8-0.1,1.1c-0.2,0.6-0.8,1-0.5,1.6c1.6,0.7,3.5-0.2,4.8,0.1
			c0.6,0.1,1.8,1,1.8,2c0,0.8-0.5,1.3-0.6,2.2c-0.1,1.1-0.5,2.4-0.5,3.3c-0.1,1.5,1.8,4,3.1,3.9c1.4,0,2.2-1.7,3.9-0.8
			c0.6,0.3,1.1,1.4,1.8,1.3c0.5,0,1.3-1.1,1.6-1.8c0.4-0.9,0.4-1.7,1.2-2.1c0.8-0.5,1.4-0.3,2.4-0.7c0.4-0.2,0.8-0.5,1.2-0.9
			c0.4-0.3,0.7-1.1,1.2-0.5c0.6,0.7-0.7,1.1-0.2,1.8c1,0.6,1.5-1.2,2.3-1.2c0.2,0,1,0.5,1.5,0.9c0.6,0.4,0.8,1.1,1.4,1.2
			c0.4,0.1,1-0.2,1.6-0.1c0.7,0.1,1.2,0.9,1.8,0.9c0.7,0,1-0.9,1.6-1.1c1.3-0.3,1.8,0.2,2.3,1.1c0.6,0.1,0.7-0.9,1.2-0.5
			c-0.3,0.8,0.1,1.1,0.4,1.8c0.2,0.4,0.1,0.7,0.3,0.9c0.3,0.4,1,0.4,1.5,0.8c0.5,0.4,0.8,1.2,1.5,2c0.6,0.9,1.7,1.8,2.6,1.8
			c0.8,0.1,1.5-0.3,2.1-0.2c1.5,0.2,2.4,1.1,3.5,2.1c0.6,0.5,1.1,0.9,1.3,1.6c0.1,0.5,0.1,1.1,0.2,1.6c0.3,1.1,1.6,1.6,1.2,3.5
			c0.2,0.6,0.7,0.8,1.2,1.1c0.4,0.3,0.8,1,1.2,1.1c0.3,0.1,0.6-0.1,0.9-0.1c0.8,0.1,1.4,0.5,2.1,0.8c0.4,0.2,1,0.3,1.3,0.5
			c0.4,0.3,0.4,1.3,0.9,1.6c0.3,0.2,1-0.1,1.5,0c0.8,0.1,1.8,0.7,2.6,0.7c0.4,0,0.8-0.2,1.2-0.2c1.8,0.2,2.8,2.7,4.5,3.5
			c0.5,0.2,1.4,0.1,1.8,0.3c0.6,0.3,1.2,2.7,1.2,3.8c0.1,3.2-1.9,4.2-3.1,6.3c-0.2,0.4-0.4,1.1-0.7,1.8c-0.7,1.2-1.5,1.5-1.4,3.8
			c0,0.6,0.3,1.2,0.3,1.9c0,0.8-0.1,2-0.2,2.7c-0.1,0.6-0.5,1.1-0.6,1.6c-0.1,0.5,0.1,0.9,0.1,1.4c-0.1,0.5-0.5,1.2-0.8,1.9
			c-0.7,1.5-0.8,3.3-2.2,3.9c-0.8,0.4-1.9,0.2-2.8,0.5c-0.4,0.2-0.8,0.5-1.2,0.8c-1.3,0.7-3.1,1.7-3.4,3.2c-0.3,1.4,0.4,2.5,0.2,4.1
			c-0.2,0.5-0.5,1-0.9,1.5c-0.3,0.5-0.5,1.1-0.8,1.6c-0.4,0.7-1.1,1-1.4,1.8c-0.1,0.3,0,0.7-0.1,1.1c0,0.2-0.3,0.5-0.4,0.8
			c-0.1,0.3-0.1,0.7-0.2,1c-0.3,0.8-1.3,2.6-2,2.9c-1.5,0.5-3.1-0.8-4.2-0.5c0.2,0.9,0.7,0.8,1,1.4c0.2,0.4,0.3,0.8,0.6,1.2
			c0.3,0.5,0.6,0.6,0.7,1.1c0.1,1.1-0.6,2.2-1.1,2.5c-0.4,0.3-1.3,0.5-2.1,0.7c-0.5,0.1-1.9,0.1-2.2,0.5c-0.4,0.6,0.2,2.1-0.1,2.7
			c-0.5,1.3-2,0-2.8,0.3c-0.1,0.7,0.1,1.4,0.6,1.7c0.5,0.3,1.2-0.1,1.5,0.5c-0.1,0.9-0.9,1-1.1,1.8c0,0.8,0.2,1.1,0.1,1.6
			c-0.2,1.1-1.6,1.1-1.6,2.3c0.1,1.8,2.9,1.1,2.9,2.8c0,1.1-0.8,1.1-1.1,2.1c-0.2,0.6,0.1,0.7,0,1.1c-0.1,0.6-0.7,0.8-0.7,1.5
			c0,0.8,1,1.8,1.5,2.5c0.5,0.7,1.1,1.7,1.8,2.1c1,0.7,2.6,0.5,3,1.8c-0.1,0.7-0.7,0.9-1.3,1.1c0,0-0.1,0-0.1,0
			c-0.2-0.1-0.9-0.1-1.1,0c-0.3,0-0.7,0-1,0c-1-0.5-2.2-0.9-3.4-1.4c-0.4-0.2-0.9-0.6-1.4-0.9c-0.4-0.2-0.7-0.3-1-0.4
			c-0.6-0.4-1.3-1.7-2-2.2c-0.4-0.3-1-0.5-1.2-0.8c-0.2-0.3-0.4-0.9-0.6-1.3c-0.2-0.4-0.7-0.7-0.9-1.1c-0.6-1-1.4-2.3-1.4-3
			c0-0.7,0.6-1.2,0.4-1.8c-0.2-0.6-1.3-0.5-1.5-1.2c-0.1-0.4,0.3-1.2,0.3-1.8c0-0.4-0.6-0.9-0.4-1.4c0.3-0.6,0.8,0.1,1.2-0.3
			c-0.3-1.3,0-3.3-1-3.7c-0.5,0.5,0.5,1.8-0.4,2.1c-0.9-0.5-0.7-1.9-0.9-2.9c-0.1-0.7-0.4-1.3-0.4-2c0-0.4,0.1-0.8,0.1-1.2
			c-0.2-1.2-1.2-2.2-1.3-3.3c0-0.6,0.3-1.1,0.4-1.7c0.1-0.4,0-0.9,0-1.3c0.1-0.6,0.3-1.1,0.4-1.6c0.1-1,0-2.6-0.1-3.4
			c-0.2-1-0.9-1.9-0.9-3c0-0.4,0.1-1.1,0.1-1.6c0-0.5-0.3-0.9-0.3-1.5c0-0.5,0.1-1,0.1-1.6c0.1-1.1-0.2-2.3-0.1-3.4
			c0-0.3,0.1-0.6,0.1-0.9c0-0.9-0.3-1.8-0.3-2.7c-0.1-1.7,0.2-2.8-0.1-4.4c-0.2-1.2-0.4-3-0.7-3.7c-0.4-0.8-1.9-2.2-2.7-2.7
			c-0.5-0.3-1.1-0.5-1.7-0.8c-1.2-0.7-3.5-2.2-4-3.6c-0.2-0.4-0.1-1-0.3-1.4c-0.3-0.9-1-1.7-1.5-2.5c-0.9-1.7-1.6-3.7-2.6-5.4
			c-0.5-0.9-0.9-1.9-1.4-2.5c-0.3-0.4-1.3-0.8-1.4-1.4c-0.2-0.8-0.7-1.9-0.6-2.5c0.1-0.8,1.5-1.5,1.5-2.3c0-0.7-0.7-1-0.9-1.6
			c-0.4-1.3,0.2-2.1,0.7-3.2c0.1-0.4,0.3-1,0.4-1.2c0.3-0.5,0.8-0.6,1.2-1.1c0.2-0.3,0.3-0.9,0.6-1.3c0.6-0.9,1.5-1.2,1.7-2
			c0.2-0.7,0.3-3.9,0.1-5c-0.1-0.6-0.6-1.2-0.8-1.8c-0.3-1.1-0.4-2.2-1.3-2.2c-0.6,0-1,0.8-1.3,1.2c-0.1,0.6,0,1.3-0.6,1.5
			c-0.8,0.3-1.1-1.1-2.1-1.4c-0.4-0.1-1-0.1-1.2-0.3c-0.7-0.4-0.9-1.6-1.7-2.1c-0.6-0.4-1.2-0.3-1.5-0.9c-0.2-0.4,0-1.2-0.1-1.8
			c-0.8-0.6-1.5-2.7-2.4-3.2c-0.6-0.3-1.6-0.3-2.3-0.6c-0.4-0.1-0.6-0.3-1-0.4c-0.5-0.1-0.9-0.1-1.3-0.4c-1.4-0.9-2.2-3.7-4-3.6
			c-0.8,0-1.5,0.9-2.2,0.9c-0.7,0-1.8-0.7-2.7-1.1c-0.9-0.5-1.9-0.8-2.6-1.2c-0.6-0.4-1-1-1.5-1.3c-0.4-0.2-1-0.3-1.3-0.4
			c-0.5-0.3-1-0.8-1.5-1.3c-0.6-0.5-1.1-1.2-1.2-1.8c0-0.7,0.5-1.3,0.6-1.9c0.2-2.1-1.1-3.6-1.9-4.8c-0.6-0.9-1.3-1.7-1.9-2.5
			c0-0.6,0-0.7,0-1.2c-0.5-0.5-0.8-1.3-1.3-2.1c-0.4-0.7-1.3-1.5-1.4-2.3c-0.1-1,0.3-1.9,0-2.8c-0.5-1.6-2.4-0.9-2.1,1.2
			c0.1,0.6,0.7,1.4,0.9,1.9c0.2,0.6,0.2,1.3,0.4,2c0.2,0.7,0.8,1.3,0.9,2c0.3,1.2,0.3,2.5,0.6,3.2c0.3,0.7,1.2,1.3,0.7,2.1
			c-0.7,0.2-1-0.7-1.4-1.1c-0.2-0.3-1.1-0.8-1.2-1.4c-0.1-0.5,0.3-1.2,0.1-1.8c-0.3-1.2-2.3-1.3-2.3-2.5c0-0.8,0.9-0.9,0.9-1.7
			c0-0.8-1-1.6-1.2-2.3c-0.2-0.7-0.2-1.7-0.3-2.6c-0.1-0.9,0-1.9-0.1-2.5c-0.1-0.6-0.9-1.4-1.4-1.8c-0.6-0.4-1.1-0.3-1.5-0.9
			c-0.3-0.5-0.5-1.7-0.5-2.3c-0.1-1.1,0-2.2-0.1-3.3c0-1.1-0.1-2.2,0-3.4c0.4-0.8,1-1.3,1.4-2.1c0.3-0.6,0.3-1.3,0.6-1.9
			c0.5-1.1,1.7-2.2,2.5-3.3c0.8-1.2,1.6-2.4,2.1-3.8c0.2-0.5,0.7-1.6,0.6-2.2c-0.1-0.8-1.4-1.5-1.3-2.5c0.1-0.6,0.8-0.6,1-1.2
			c0.1-0.3,0.2-1.2,0.2-1.6c0-0.8-0.4-1.7-0.2-2.6c0.1-0.8,1.1-1.1,0.6-1.9c-0.5-0.8-1.4,0.5-1.9-0.1c-0.5-0.5,0.1-1.1,0.1-2
			c0-0.4-0.2-0.8-0.1-1.1c0-0.4,0.7-1.1,0.5-1.3c-0.4-0.6-0.8-2.1-1.7-2.6c-1.1-0.6-2.2-0.2-3.7-0.5c-0.9-0.2-1.3-1.2-2.2-1.1
			c-0.5,0-0.8,0.8-1.5,1.1c-0.7,0.4-1.6,0.2-2.3,0.4c-0.7,0.2-1,0.8-1.8,0.7c-0.6-0.1-0.6-0.7-1.3-0.8c-0.3,0-0.8,0.2-1.2,0.3
			c-1.1,0.1-3.2,0.2-4.3-0.1c-1-0.3-1.7-0.7-2.8-1.3c-0.9-0.5-2.5-1.1-2.4-1.8c0-0.5,1.5-1,2.1-1.2c1-0.3,1.5-0.9,2.3-1
			c0.3,0,0.6,0.2,1,0.2c0.4,0,0.8-0.4,1.3-0.5c1-0.2,2.5,0.1,2.3-1.1c-0.8-0.7-3.9,0.5-4-1.1c0-1,1.2-1.3,2.1-1.5
			c0.8-0.2,2.1-0.6,2.8-0.5c0.8,0.1,1.9,1.2,2.4-0.1c0.2-0.9-0.3-1.6-0.4-2.4c0.6-1,1.8-0.9,2.6-1.1c1-0.2,1.8-0.4,2.8-0.9
			c0.9-0.4,1.8-0.7,2.8-0.9c1-0.2,2-0.6,2.8-0.7c0.7-0.1,1.4,0,2.1-0.2c0.6-0.1,1.3-0.6,2-0.5c0.5,0,0.9,0.4,1.3,0.5
			c0.4,0.1,0.9,0,1.4,0.1c0.4,0.1,0.7,0.4,1,0.4c0.6,0.1,1.1-0.1,1.7,0c0.5,0.1,0.9,0.5,1.4,0.5c1.1,0.2,2.4-0.1,3.5,0.2
			c0.4,0.1,0.8,0.3,1.2,0.4c0.4,0.1,0.9,0,1.3,0.1c0.6,0.1,1.1,0.8,1.7,0.9c1.1,0.1,2.4-0.6,3.6-0.7c0.9-0.1,1.7,0,2.6-0.2
			c0.8-0.2,1.6-0.6,2.3-0.6c0.4,0,0.7,0.1,1.1,0.1c0.4-0.1,0.8-0.6,1.2-0.5c0.5,0.1,0.4,0.9,1,1.1c0.6-0.4,1.3,0,2,0
			c0.7,0,1.3-0.4,2-0.3c1.3,0.3,3.2,1.8,4.2,1c0.3-0.2,0.2-0.6,0.4-1.1c0.3-0.8,1-1.6,0.8-2.7c-1.5,0-2.9,0.9-4.5,1
			c-1.7-1.3,0.4-2.1,1.7-2.6c1-0.5,1.8-1.5,3.1-1.8c1-0.2,2.1,0.3,3.4,0.4c0.7,0.1,1.4-0.1,1.8,0.1c0.7,0.3,1.1,1.1,1.7,1.3
			c0.3,0.1,0.7,0.1,1,0.2c0.7,0.2,1.2,0.6,1.9,0c0.5,0.1,0.6,0.8,1.1,0.9c0.5-0.3,0.9-1.1,1.6-1.3c0.3-0.1,0.7,0.1,1,0
			C78.6,5,79.4,4,79.7,4.9c-0.1,0.6-0.9,0.7-1.4,1.2c-0.4,0.4-1,1.5-0.9,1.9c0.1,0.8,1.1,0.5,1.2,1.6c-0.2,0.6-0.7,0.3-1.2,0.6
			c-0.4,0.3-0.6,0.8-1.1,0.9c-1.3,0.3-2.4-0.4-3.6-0.4c-0.1,0.6,0.6,0.9,0.9,1.1c1,0.7,1.9,0.6,3.4,0.5c0.8,0,1.6,0.3,2.3-0.3
			c0.4-0.3,0.4-1.1,0.7-1.5c0.4-0.5,1.4-1,2-0.9c0.3,0.1,0.8,0.5,0.8,0.9c0,0.8-0.9,0.5-0.9,1.4c0.6,0.4,2.2-0.5,2.3-1.2
			c0.1-0.5-0.5-0.9-0.5-1.4c0-0.9,1.1-0.9,0.9-1.8c-0.5-0.5-1,0.1-1.5,0c-0.7-0.1-1.4-1.2-1.7-1.8c0.3-0.5,1-0.2,1.5-0.1
			c0.5-0.9,1.5-1.2,2.9-1.4C86.1,4.3,86.8,4,87,4.6c0.1,0.8-1,1.3-0.8,2.3c1,0.3,1.3-1.3,2.1-1.9c0.4-0.3,0.9-0.5,1.4-0.7
			C90.2,4,90.7,3.5,91,3.5c0.4,0,0.5,0.4,0.9,0.6c0.4,0.2,0.8-0.1,0.9,0.4c-0.8,1.8-4,0.7-4.8,2.5c0.2,1.2-0.5,2.4,0.1,3.2
			c0.4,0.6,1.3,0.2,1.5,0.8c0.3,0.8-0.9,0.8-0.6,1.8c0.8,0.6,1.7-0.5,2.4-1c0.8-0.5,1.7-1,1.8-2.1c-0.4-0.9-1.8-0.2-2-1.1
			c-0.1-0.5,0.4-1.7,0.6-1.8c0.8-1,3.4-2.5,5.3-2.3c0.4,0,0.7,0.3,1.1,0.4c1.3,0.2,2.7-0.7,3.7,0c0.8-0.6,1.7,0.1,2.8-0.1
			c0.9,0.6,0.6,1.9,1.9,2.5c0.3,0.2,0.8,0,1.2,0.2c0.3,0.1,0.7,0.6,1.1,0.8c0.6,0.3,1,0.2,1.1,0.7c0.1,0.5-0.4,0.8-0.4,1.2
			c0.3,0.3,0.1,0.8,0.2,1.2c0.3,0.8,1.1,0.8,1.9,1.1c0.6,0.3,1.7,1.1,1.7,1.8c0,0.4-1.1,1.2-1.5,1.4c-0.2,0.1-1.5,0.9-1.9,0.8
			c-0.7-0.1-1-1.8-1.9-1.8c-0.4,0-0.8,0.3-0.8,1c0,1.2,1.1,1.2,1.1,2.2c0,1.2-0.5,1.3-1.4,2c-0.6-0.3-1.1-0.7-1.9-0.8
			c-0.5,0.7,0.8,0.9,0.4,1.8c-1.2,0.3-2.1-0.4-3.1-0.8c-0.3-0.1-0.8-0.1-1.1-0.3c-0.4-0.3-0.5-1.1-0.9-1.6c-0.4-0.5-1.2-1.2-1.8-1.2
			c-0.9,0-2.2,1.3-2.9,0.1c0.5-2,2.8-0.5,4.4-1.2c0.6-0.3,0.8-1,1.2-1.3c0.9-0.6,2.5-0.7,2.3-2c-0.1-0.6-0.8-0.6-1.2-1
			c-0.6-0.4-1-2-1.8-2.1c-0.4,0-0.7,0.4-1.2,0.4c-0.9,0.1-2-0.5-2.8,0c-0.4,0.3-0.1,0.7-0.4,1.2c-0.3,0.4-0.9,0.5-1.1,1
			c-0.3,0.5-0.2,1.1-0.6,1.5c-0.6,0.6-1.9,0.7-2.6,1.1c-0.3,0.1-0.8,0.6-1.1,0.6c-0.6,0-0.9-1-1.5-0.6c-0.1,0.9,0.8,1.3,1.4,1.8
			c0.6,0.5,1.2,0.9,1.5,1.8c-0.6,1.5-1.5-0.1-2.5-0.1c-1,0-2.5,2.4-3.4,0.4c0.2-1,1.2-1.2,1.4-2.2c-1,0.2-1.9,1.3-3.1,1.6
			c-0.5,0.1-1,0.1-1.5,0.3c-0.9,0.3-1.5,1.1-2.4,1.5c-0.4,0.2-0.8,0.1-1.2,0.3c-0.9,0.4-1.9,1-2.8,1.6c-0.9,0.6-2,1.2-2.6,1.8
			c-0.3,0.3-1.1,1.5-1.1,1.8c0,0.5,0.9,0.7,0.9,1.2c0,0.3-0.5,1-0.1,1.5c0.3,0.4,0.9,0.1,1.5,0.2c1.1,0.2,1.8,1.3,2.7,1.8
			c0.6,0.4,1.6,0.9,2.3,1.1c1,0.2,2.1-0.4,2.3,0.6c0.1,0.9-0.9,1.3-1,1.8c0.5,0.9-0.4,1.3-0.4,2c0,0.6,0.6,1.5,1.2,1.6
			c0.7,0.1,1.8-0.9,2.1-1.8c0.4-1.1,0.2-2.5,0.9-3.2c3.4,0.1,6.3-1.9,6.1-6.1c0-0.4-0.2-0.9-0.1-1.4c0.1-0.7,1.1-1.2,0.9-2.1
			c1-0.4,0.9-2.2,1.9-2.5c0.8-0.2,1.8,0.7,2.8,0.6c0.4,0,0.8-0.4,1.2-0.3c0.7,0.1,1.1,1.2,1.7,1.7c0.5,0.4,1,0.3,1.1,0.9
			c-0.1,1-0.7,1-0.7,1.9c0.1,0.8,0.7,1.4,1.1,1.5c0.5,0.1,1.3-0.2,1.8-0.5c1-0.6,1.8-2.2,2.6-2c0.6,0.2,1.1,2.6,1.2,3.5
			c0.1,0.9-0.1,1.7-0.1,2.5c0.1,1.5,1.6,1.3,2.4,2.1c0.2,0.2,0.3,0.8,0.5,1.1c0.4,0.6,0.8,0.6,0.9,1.2c0.1,1.5-1.1,1.6-1,3.3
			c-0.3,0.7-0.9,0.6-0.9,1.5c0.1,1.4,1.7,0.3,2.2,1.4c0.2,0.6,0,1-0.2,1.8c0.6,0.8,0.6,2.1-0.4,2.1C109.8,44.3,109.6,43.5,109,43.4z
			 M30.1,41.1c0.3-0.4-0.1-1.3-0.7-1C29.4,40.4,29.5,41.2,30.1,41.1z M81,49.1c-0.3-0.4-1.3-0.3-2-0.2c-0.5,0.1-1,0.2-1.1,0.6
			C78.7,49.9,80.8,50.2,81,49.1z M77.2,47.6c0.6-0.5,0.3-1.7-0.3-1.8c-0.2-0.1-0.6,0.2-0.9,0.2c-0.4,0-0.8-0.5-1.2-0.5
			c-0.6-0.1-1.2,0.3-1.4,0.6c0,0.5,0.3,0.6,0.3,1.1c-0.7,0.6-0.3,2.6,0.4,2.7c0.7,0.1,1.1-2.3,2.1-2.5
			C76.6,47.3,76.8,47.6,77.2,47.6z M76.2,51.1c-1-0.4-2,0.3-2.8,0.4c-0.5,0.1-1.4-0.1-1.3,0.8c0.1,0.7,1.1,0.5,1.6,0.3
			C74.8,52.1,75.6,51.8,76.2,51.1z M73,44.4c1.5-0.7-0.3-3-0.9-3.2c-1.2-0.4-2.9,1-4.2,1.5c-0.8,0.3-1.5,0.3-1.7,1.1
			c0.7,1.4,2.1-0.3,3.1-0.1c0.5,0.1,0.8,0.9,1.3,1.1C70.9,44.7,72.9,44.5,73,44.4z M72,45.8c-0.3-0.4-1.9,0.1-2.4,0.4
			c-0.3,0.3-0.5,0.9-0.9,1.4c-0.3,0.5-0.7,0.9-1,1.3c-0.3,0.4-1.7,3-0.6,3.2c0.5,0.1,1.5-1.1,1.6-1.6c0.3-1.6,0.9-2.8,2-3.5
			C71.3,46.7,71.9,46.7,72,45.8z M62.9,36c0.8,0,1.4-2.9,0-2.5C61.9,33.7,61.7,36,62.9,36z M58.9,101.8c0-0.1,0.1-0.2,0.1-0.4
			C58.8,100.6,58.1,101.7,58.9,101.8z M28,28.4c0-0.2-0.1-0.2-0.1-0.4c-0.2,0-0.5-0.1-0.4,0.3C27.6,28.5,27.9,28.6,28,28.4z
			 M104.8,14.6c0.4,0.1,0.6-0.1,0.5-0.5C105,13.8,104.5,14.1,104.8,14.6z M96.4,6c-0.1-0.1-0.3-0.1-0.4,0c0,0.1,0,0.2,0,0.3
			C96.2,6.4,96.3,6.2,96.4,6z M68.6,12.7c0.2-0.2,0.6-0.4,0.4-0.9c-0.8-0.5-2.2-0.1-3.4-0.3c-0.7-1.1-1.8-1.3-1.9,0.5
			C65.2,13.5,67.2,11.5,68.6,12.7z M55.6,21.8c0.4-0.2,1-0.1,1.1-0.6c-0.3-0.3-0.7-0.8-1.1-0.8c-0.5,0-0.8,0.5-1.3,0.9
			c-0.6,0.4-1.5,0.5-1.5,1.1C53.8,22.7,54.9,22.1,55.6,21.8z M55.2,15.5c0.5-0.1,0.9,0.2,1.2-0.3c-0.3-1.9-2.6-0.8-3.9-0.6
			c-0.3,0.5-0.6,1-0.7,1.8C52.8,16.6,54.1,15.7,55.2,15.5z M77.1,105.1c0.6-0.1,0.4-1.7-0.3-1.3C76.3,104.1,76.6,105.2,77.1,105.1z"
			/>
		<path class="st0" d="M28,28c0,0.2,0.1,0.2,0.1,0.4c-0.1,0.2-0.4,0.2-0.5-0.1C27.5,28,27.7,28,28,28z"/>
		<path class="st0" d="M25.8,33.2c-0.2,0.6-0.6,0.8-1,1.1c-0.1-0.1-0.3-0.3-0.4-0.4C24.4,33,25.4,32.3,25.8,33.2z"/>
	</g>
</g>
<g>
	<polygon class="st0" points="251.3,22.4 200.7,110.1 150,22.4 	"/>
	<g>
		<defs>
			<polygon id="SVGID_1_" points="251.1,21.9 231.2,56.5 225.4,47 216.5,61.8 200.5,35.8 184.6,63.1 174.9,47 169.6,56 149.9,21.9 
							"/>
		</defs>
		<clipPath id="SVGID_2_">
			<use xlink:href="#SVGID_1_"  style="overflow:visible;"/>
		</clipPath>
		<g class="st1">
			<defs>
				
					<ellipse id="SVGID_3_" transform="matrix(0.9941 -0.1085 0.1085 0.9941 -1.507 21.9537)" cx="201" cy="24.8" rx="53.3" ry="53.3"/>
			</defs>
			<clipPath id="SVGID_4_">
				<use xlink:href="#SVGID_3_"  style="overflow:visible;"/>
			</clipPath>
			<ellipse transform="matrix(0.9941 -0.1085 0.1085 0.9941 -1.507 21.9537)" class="st2" cx="201" cy="24.8" rx="53.3" ry="53.3"/>
			<g class="st3">
				<path class="st4" d="M189.7,51.2c-0.2-1.1-0.3-2.1-0.5-3c-0.1-0.9-0.3-1.8-0.6-2.7c-1.9-4.9-8.4-1.8-12.3-3.5
					c-0.8-0.3-1.7-1.1-1.7-1.7c-1.4-5.9-4.7-12-11.6-9.3c-0.9,0.2-1.7,0.5-2.6,0.9c-7.5,3.2-12.7,10.5-12.7,19.1
					c0,1,0.1,1.9,0.2,2.8c0.1,2.7,1.2,5.5,3.5,6.3c6.1,2.5,9.5,7.3,14.5,11.2c0.8,0.6,1.7,0,2.6,0.4c1,0,1.9,0,2.8-0.2
					c2.1-0.6,4.4-0.8,6.6-1.4c5.9-1.4,17.9,1.1,17.3-6.1c-0.3-3.9-4.5-6.7-5.3-11C189.9,52.4,189.8,51.8,189.7,51.2z"/>
				<path class="st5" d="M170.1,61.6c-0.6-0.5-1.2-1.1-1.8-1.7c-2.8-2.6-6-5.6-10.3-7.9c0-0.4-0.1-0.7-0.1-1.1
					c0-4.3,2.6-8.2,6.6-9.9c0,0,0,0,0.1,0c0.1,0.3,0.2,0.7,0.3,1.1c0.8,4.5,4.4,7.8,7.9,9.1c2.6,1,5.1,1.2,7,1.3
					c0,0.1,0,0.2,0.1,0.4c0.1,0.8,0.3,1.5,0.5,2.3c0.4,1.7,0.9,3.2,1.6,4.5c-2,0.1-4.1,0.3-6.1,0.7l-0.1,0c-0.8,0.2-1.7,0.4-2.7,0.6
					C172.1,61.2,171.1,61.4,170.1,61.6z"/>
				<path class="st5" d="M189.7,51.2c-0.2-1.1-0.3-2.1-0.5-3c-0.1-0.9-0.3-1.8-0.6-2.7c-1.9-4.9-8.4-1.8-12.3-3.5
					c-0.8-0.3-1.7-1.1-1.7-1.7c-1.4-5.9-4.7-12-11.6-9.3c-0.9,0.2-1.7,0.5-2.6,0.9c-7.5,3.2-12.7,10.5-12.7,19.1
					c0,1,0.1,1.9,0.2,2.8c0.1,2.7,1.2,5.5,3.5,6.3c6.1,2.5,9.5,7.3,14.5,11.2c0.8,0.6,1.7,0,2.6,0.4c1,0,1.9,0,2.8-0.2
					c2.1-0.6,4.4-0.8,6.6-1.4c5.9-1.4,17.9,1.1,17.3-6.1c-0.3-3.9-4.5-6.7-5.3-11C189.9,52.4,189.8,51.8,189.7,51.2z"/>
				<path class="st5" d="M189.7,51.2c-0.2-1.1-0.3-2.1-0.5-3c-0.1-0.9-0.3-1.8-0.6-2.7c-1.9-4.9-8.4-1.8-12.3-3.5
					c-0.8-0.3-1.7-1.1-1.7-1.7c-1.4-5.9-4.7-12-11.6-9.3c-0.9,0.2-1.7,0.5-2.6,0.9c-7.5,3.2-12.7,10.5-12.7,19.1
					c0,1,0.1,1.9,0.2,2.8c0.1,2.7,1.2,5.5,3.5,6.3c6.1,2.5,9.5,7.3,14.5,11.2c0.8,0.6,1.7,0,2.6,0.4c1,0,1.9,0,2.8-0.2
					c2.1-0.6,4.4-0.8,6.6-1.4c5.9-1.4,17.9,1.1,17.3-6.1c-0.3-3.9-4.5-6.7-5.3-11C189.9,52.4,189.8,51.8,189.7,51.2z"/>
				<path class="st6" d="M189.7,51.2c-0.2-1.1-0.3-2.1-0.5-3c-0.1-0.9-0.3-1.8-0.6-2.7c-1.9-4.9-8.4-1.8-12.3-3.5
					c-0.8-0.3-1.7-1.1-1.7-1.7c-1.4-5.9-4.7-12-11.6-9.3c-0.9,0.2-1.7,0.5-2.6,0.9c-7.5,3.2-12.7,10.5-12.7,19.1
					c0,1,0.1,1.9,0.2,2.8c0.1,2.7,1.2,5.5,3.5,6.3c6.1,2.5,9.5,7.3,14.5,11.2c0.8,0.6,1.7,0,2.6,0.4c1,0,1.9,0,2.8-0.2
					c2.1-0.6,4.4-0.8,6.6-1.4c5.9-1.4,17.9,1.1,17.3-6.1c-0.3-3.9-4.5-6.7-5.3-11C189.9,52.4,189.8,51.8,189.7,51.2z"/>
			</g>
			<g class="st3">
				<path class="st4" d="M209.9,50.4c0.5,1,0.9,1.9,1.4,2.7c0.4,0.8,0.8,1.6,1.3,2.4c3.3,4.1,8.5-0.7,12.8-0.3
					c0.9,0,1.9,0.6,2.1,1.1c3.1,5.2,8.1,10.1,13.8,5.5c0.8-0.5,1.5-1,2.2-1.6c6.2-5.2,9-13.8,6.5-22c-0.3-0.9-0.6-1.8-1-2.6
					c-0.9-2.5-2.8-4.9-5.2-5c-6.6-0.6-11.2-4.1-17.2-6.4c-1-0.3-1.6,0.5-2.6,0.3c-0.9,0.3-1.8,0.6-2.6,1c-1.9,1.2-3.9,2.1-5.9,3.3
					c-5.2,3.1-17.4,4.2-14.7,11c1.4,3.7,6.3,5.1,8.3,8.9C209.4,49.3,209.7,49.8,209.9,50.4z"/>
				<path class="st5" d="M237,52.6c-0.2-0.3-0.4-0.6-0.7-1c-2.1-4.1-6.5-6.1-10.2-6.4c-0.4,0-0.9-0.1-1.3-0.1
					c-2.2,0-4.2,0.5-5.8,0.9c-0.1-0.1-0.1-0.2-0.2-0.3c-0.3-0.6-0.7-1.3-1.1-2c-0.8-1.5-1.8-2.8-2.9-3.9c1.9-0.7,3.8-1.5,5.6-2.5
					l0.1-0.1c0.7-0.4,1.5-0.9,2.4-1.3c0.8-0.4,1.7-0.9,2.6-1.4c0.7,0.3,1.5,0.7,2.2,1.1c3.5,1.7,7.3,3.6,12.2,4.4
					c0.1,0.3,0.3,0.7,0.4,1C241.7,45.3,240.4,49.8,237,52.6C237,52.6,237,52.6,237,52.6z"/>
				<path class="st5" d="M245.1,46.8L245.1,46.8z"/>
				<path class="st5" d="M209.9,50.4c0.5,1,0.9,1.9,1.4,2.7c0.4,0.8,0.8,1.6,1.3,2.4c3.3,4.1,8.5-0.7,12.8-0.3
					c0.9,0,1.9,0.6,2.1,1.1c3.1,5.2,8.1,10.1,13.8,5.5c0.8-0.5,1.5-1,2.2-1.6c6.2-5.2,9-13.8,6.5-22c-0.3-0.9-0.6-1.8-1-2.6
					c-0.9-2.5-2.8-4.9-5.2-5c-6.6-0.6-11.2-4.1-17.2-6.4c-1-0.3-1.6,0.5-2.6,0.3c-0.9,0.3-1.8,0.6-2.6,1c-1.9,1.2-3.9,2.1-5.9,3.3
					c-5.2,3.1-17.4,4.2-14.7,11c1.4,3.7,6.3,5.1,8.3,8.9C209.4,49.3,209.7,49.8,209.9,50.4z"/>
				<path class="st6" d="M209.9,50.4c0.5,1,0.9,1.9,1.4,2.7c0.4,0.8,0.8,1.6,1.3,2.4c3.3,4.1,8.5-0.7,12.8-0.3
					c0.9,0,1.9,0.6,2.1,1.1c3.1,5.2,8.1,10.1,13.8,5.5c0.8-0.5,1.5-1,2.2-1.6c6.2-5.2,9-13.8,6.5-22c-0.3-0.9-0.6-1.8-1-2.6
					c-0.9-2.5-2.8-4.9-5.2-5c-6.6-0.6-11.2-4.1-17.2-6.4c-1-0.3-1.6,0.5-2.6,0.3c-0.9,0.3-1.8,0.6-2.6,1c-1.9,1.2-3.9,2.1-5.9,3.3
					c-5.2,3.1-17.4,4.2-14.7,11c1.4,3.7,6.3,5.1,8.3,8.9C209.4,49.3,209.7,49.8,209.9,50.4z"/>
			</g>
			<g class="st3">
				<path class="st4" d="M246.1,1.6C245.7,4,214.5,18.4,211.9,19c-0.9,0.3-1.8,0.5-2.7,0.7c-3.2,0.5-6.3,0.3-9.2-0.5
					c-1-0.3-1.9-0.6-2.8-1c-0.3-0.2-0.6-0.3-0.9-0.5c-1.1,2.1-2.5,4-4.2,5.5c-0.7,0.7-1.5,1.3-2.3,1.9c-5.7,3.5-12.4,9.9-18.8,6.3
					c-6.1-3.1-1.1-11.5-3.1-17c-0.3-0.6-1.1-1.4-2.2-1.9c-0.7-0.3-1.4-0.6-2.2-0.9c-3-1.1-6.2-2-6.2-5.6c0.1-0.9,0.2-1.8,0.4-2.7
					c0.2-0.9,0.4-1.9,0.6-3c0.1-0.6,0.2-1.2,0.3-1.9c0.8-4.3-2.1-8.4-1-12.2c2.1-7,12.4-0.3,18.4,0.5c2.3,0.3,4.5,0.8,6.7,1.1
					c0.9,0.2,1.8,0.5,2.7,0.9c0.7,0.7,1.7,0.5,2.3,1.4c1.3,2.2,2.4,4.5,3.4,6.7c1.6-0.8,3.1-1.7,4.1-2.9c0.3-0.5,0.6-1.7,0.5-2.9
					c-0.1-0.8-0.2-1.5-0.3-2.3c-0.6-3.1-1.4-6.3,1.6-8.2c0.8-0.4,1.7-0.7,2.6-1c0.9-0.3,1.9-0.6,2.9-1c0.6-0.2,1.2-0.4,1.8-0.7
					c4.1-1.6,6.1-6.2,9.9-7.1c7.1-1.8,24.7,7.1,25.6,9.1c0.3,0.9,6.5,6,6.1,6.9C242.6-7.7,247.6-4.9,246.1,1.6z"/>
				<g class="st7">
					<path class="st4" d="M178.1,20.8c0.3-2.8,0.3-6.3-0.9-9.7l-0.2-0.6l-0.3-0.6c-1.3-2.7-3.8-5-6.9-6.5c-0.6-0.3-1.3-0.6-1.9-0.8
						c0-0.1,0-0.2,0.1-0.4c0.1-0.7,0.3-1.4,0.4-2.2c0.3-1.7,0.3-3.4,0.2-4.8c1.9,0.6,3.9,1.2,6,1.5l0.1,0c0.8,0.1,1.7,0.3,2.7,0.4
						c0.9,0.2,1.9,0.3,2.9,0.5c0.4,0.7,0.7,1.4,1.1,2.2l0.6,1.3l4.4,9l3.3-1.7l-2.4,4.5c-0.6,1.1-1.3,2-2.2,2.8
						c-0.3,0.3-0.7,0.6-1,0.9c-1.2,0.7-2.3,1.5-3.4,2.3C180,19.5,179,20.2,178.1,20.8z M205.6,9.9c-1,0-2-0.1-2.9-0.4
						c-0.4-0.1-0.8-0.3-1.3-0.4c-0.2-0.1-0.5-0.2-0.7-0.4L195,5.9l0.5-0.2c2-1,5-2.7,7.3-5.5l0.4-0.5l0.4-0.6c1.6-2.5,2.3-5.9,2-9.2
						c-0.1-0.7-0.1-1.4-0.3-2c0.1,0,0.2-0.1,0.3-0.1c0.7-0.2,1.4-0.5,2.1-0.8c3.8-1.5,6.3-4,8.2-5.8c0.3-0.3,0.6-0.6,0.8-0.8
						c4.1,0.4,12.3,4,15.3,5.9c0.7,0.9,1.6,1.8,2.7,2.8c-0.2,3.1,0.5,5.7,1,7.6c-7.3,4-22.8,11.3-26.4,12.5l-0.5,0.1
						c-0.5,0.1-1,0.3-1.4,0.3C206.8,9.9,206.2,9.9,205.6,9.9z"/>
				</g>
				<path class="st5" d="M215.2-4.2c0.1-0.5,0.1-1,0.2-1.5c1.6-0.9,2.9-1.9,4.1-2.9c0.8,0.3,1.7,0.7,2.6,1
					C219.8-6.4,217.4-5.3,215.2-4.2z"/>
				<path class="st5" d="M246.1,1.6C245.7,4,214.5,18.4,211.9,19c-0.9,0.3-1.8,0.5-2.7,0.7c-3.2,0.5-6.3,0.3-9.2-0.5
					c-1-0.3-1.9-0.6-2.8-1c-0.3-0.2-0.6-0.3-0.9-0.5c-1.1,2.1-2.5,4-4.2,5.5c-0.7,0.7-1.5,1.3-2.3,1.9c-5.7,3.5-12.4,9.9-18.8,6.3
					c-6.1-3.1-1.1-11.5-3.1-17c-0.3-0.6-1.1-1.4-2.2-1.9c-0.7-0.3-1.4-0.6-2.2-0.9c-3-1.1-6.2-2-6.2-5.6c0.1-0.9,0.2-1.8,0.4-2.7
					c0.2-0.9,0.4-1.9,0.6-3c0.1-0.6,0.2-1.2,0.3-1.9c0.8-4.3-2.1-8.4-1-12.2c2.1-7,12.4-0.3,18.4,0.5c2.3,0.3,4.5,0.8,6.7,1.1
					c0.9,0.2,1.8,0.5,2.7,0.9c0.7,0.7,1.7,0.5,2.3,1.4c1.3,2.2,2.4,4.5,3.4,6.7c1.6-0.8,3.1-1.7,4.1-2.9c0.3-0.5,0.6-1.7,0.5-2.9
					c-0.1-0.8-0.2-1.5-0.3-2.3c-0.6-3.1-1.4-6.3,1.6-8.2c0.8-0.4,1.7-0.7,2.6-1c0.9-0.3,1.9-0.6,2.9-1c0.6-0.2,1.2-0.4,1.8-0.7
					c4.1-1.6,6.1-6.2,9.9-7.1c7.1-1.8,24.7,7.1,25.6,9.1c0.3,0.9,6.5,6,6.1,6.9C242.6-7.7,247.6-4.9,246.1,1.6z"/>
				<path class="st6" d="M246.1,1.6C245.7,4,214.5,18.4,211.9,19c-0.9,0.3-1.8,0.5-2.7,0.7c-3.2,0.5-6.3,0.3-9.2-0.5
					c-1-0.3-1.9-0.6-2.8-1c-0.3-0.2-0.6-0.3-0.9-0.5c-1.1,2.1-2.5,4-4.2,5.5c-0.7,0.7-1.5,1.3-2.3,1.9c-5.7,3.5-12.4,9.9-18.8,6.3
					c-6.1-3.1-1.1-11.5-3.1-17c-0.3-0.6-1.1-1.4-2.2-1.9c-0.7-0.3-1.4-0.6-2.2-0.9c-3-1.1-6.2-2-6.2-5.6c0.1-0.9,0.2-1.8,0.4-2.7
					c0.2-0.9,0.4-1.9,0.6-3c0.1-0.6,0.2-1.2,0.3-1.9c0.8-4.3-2.1-8.4-1-12.2c2.1-7,12.4-0.3,18.4,0.5c2.3,0.3,4.5,0.8,6.7,1.1
					c0.9,0.2,1.8,0.5,2.7,0.9c0.7,0.7,1.7,0.5,2.3,1.4c1.3,2.2,2.4,4.5,3.4,6.7c1.6-0.8,3.1-1.7,4.1-2.9c0.3-0.5,0.6-1.7,0.5-2.9
					c-0.1-0.8-0.2-1.5-0.3-2.3c-0.6-3.1-1.4-6.3,1.6-8.2c0.8-0.4,1.7-0.7,2.6-1c0.9-0.3,1.9-0.6,2.9-1c0.6-0.2,1.2-0.4,1.8-0.7
					c4.1-1.6,6.1-6.2,9.9-7.1c7.1-1.8,24.7,7.1,25.6,9.1c0.3,0.9,6.5,6,6.1,6.9C242.6-7.7,247.6-4.9,246.1,1.6z"/>
			</g>
		</g>
	</g>
	<path class="st8" d="M216.6,61.6l8.9-14.8l4.8,8.1c1.2-2.1,1.8-4.6,1.8-7.2c0-8.2-6.7-14.9-14.8-14.9c-5.8,0-10.9,3.3-13.3,8.2
		L216.6,61.6z"/>
	<polyline class="st9" points="179.4,72 200.7,35.5 222.5,71.1 	"/>
	<polyline class="st9" points="169.5,56.1 175,46.8 204.4,95.3 	"/>
	<polyline class="st9" points="231.1,56.1 225.5,46.8 196.2,95.3 	"/>
	<polygon class="st10" points="251.3,23.5 200.7,111.2 150,23.5 	"/>
	<g>
		<path class="st11" d="M34.1,22.1h5.7v87.1h40.6v4.9H34.1V22.1z"/>
		<path class="st11" d="M87,22.1h50.3V27H92.7v36.9H134v4.9H92.7v40.5H138v4.9H87V22.1z"/>
		<path class="st11" d="M261,27v-4.9H320V27h-26.7v87.1h-5.7V27H261z"/>
	</g>
</g>
<path class="st8" d="M348.3,156.2c0-4.5-4.7-7.3-9.5-5.1c-1.1,0.5-2,1.4-2.5,2.4c-1.2,2.3-0.7,5,0.4,7.3l3.7,9.5
	c0.5,1.4,2.5,1.4,3,0l3.7-9.5C348.3,157.9,348.3,156.2,348.3,156.2z M343.7,160.2c-3.2,1.9-6.5-1.6-4.7-5c0.2-0.5,0.6-0.8,1-1.1
	c3.2-1.9,6.5,1.6,4.7,5C344.5,159.5,344.2,159.9,343.7,160.2z"/>
<path class="st8" d="M164.2,81.9c0-4.5-4.7-7.3-9.5-5.1c-1.1,0.5-2,1.4-2.5,2.4c-1.2,2.3-0.7,5,0.4,7.3l3.7,9.5c0.5,1.4,2.5,1.4,3,0
	l3.7-9.5C164.3,83.5,164.2,81.9,164.2,81.9z M159.7,85.8c-3.2,1.9-6.5-1.6-4.7-5c0.2-0.5,0.6-0.8,1-1.1c3.2-1.9,6.5,1.6,4.7,5
	C160.5,85.2,160.1,85.6,159.7,85.8z"/>
<path class="st8" d="M280.5,42c0-4.5-4.7-7.3-9.5-5.1c-1.1,0.5-2,1.4-2.5,2.4c-1.2,2.3-0.7,5,0.4,7.3l3.7,9.5c0.5,1.4,2.5,1.4,3,0
	l3.7-9.5C280.5,43.6,280.5,42,280.5,42z M276,45.9c-3.2,1.9-6.5-1.6-4.7-5c0.2-0.5,0.6-0.8,1-1.1c3.2-1.9,6.5,1.6,4.7,5
	C276.7,45.3,276.4,45.6,276,45.9z"/>
</svg>
