<svg xmlns="http://www.w3.org/2000/svg" xmlns:xlink="http://www.w3.org/1999/xlink" viewBox="0 0 211.2 278.06"><defs><style>.cls-1,.cls-12,.cls-13{fill:none;}.cls-2{isolation:isolate;}.cls-3{fill:#eceeef;}.cls-4{clip-path:url(#clip-path);}.cls-5{clip-path:url(#clip-path-2);}.cls-6{fill:#7ba9a9;}.cls-7,.cls-8{fill:#17383a;}.cls-10,.cls-8,.cls-9{opacity:0.2;mix-blend-mode:multiply;}.cls-9{fill:#182f30;}.cls-11{fill:#d68900;}.cls-12,.cls-13{stroke:#182f30;stroke-miterlimit:10;}.cls-12{stroke-width:2px;}.cls-13{stroke-width:3px;}</style><clipPath id="clip-path" transform="translate(2.24 99)"><polygon class="cls-1" points="202.66 3.11 163.12 71.58 151.64 52.92 133.92 82.2 102.33 30.66 70.84 84.76 51.57 52.92 41.03 70.7 2 3.11 202.66 3.11"/></clipPath><clipPath id="clip-path-2" transform="translate(2.24 99)"><circle class="cls-1" cx="103.36" cy="8.91" r="105.6" transform="translate(-0.36 11.27) rotate(-6.23)"/></clipPath></defs><title>LEVT_Logo_ohneSchrift</title><g class="cls-2"><g id="Ebene_1" data-name="Ebene 1"><polygon class="cls-3" points="205.2 103 104.87 276.77 4.54 103 205.2 103"/><g class="cls-4"><g class="cls-5"><circle class="cls-6" cx="103.36" cy="8.91" r="105.6" transform="translate(1.88 110.26) rotate(-6.23)"/><path class="cls-7" d="M81,61.2c-.37-2.14-.65-4.12-1-6a36.27,36.27,0,0,0-1.12-5.35c-3.84-9.74-16.56-3.65-24.31-7-1.67-.55-3.33-2.22-3.33-3.32-2.76-11.62-9.4-23.8-23-18.46a41.72,41.72,0,0,0-5.08,1.76A41.17,41.17,0,0,0-1.92,60.81a43,43,0,0,0,.37,5.59c.21,5.29,2.43,10.83,6.86,12.49,12.17,5,18.82,14.39,28.78,22.14,1.66,1.1,3.32,0,5.15.88a35.67,35.67,0,0,0,5.58-.32c4.21-1.12,8.64-1.67,13.07-2.78C69.51,96,93.31,101,92.21,86.64c-.56-7.75-8.86-13.29-10.52-21.77C81.39,63.6,81.15,62.38,81,61.2Z" transform="translate(2.24 99)"/><path class="cls-8" d="M40.76,91.91a14.11,14.11,0,0,0-2.48-.35c-2.2-1.85-4.3-3.81-6.5-5.87-6.26-5.86-12.73-11.93-22.43-16A8.42,8.42,0,0,1,8.45,66l0-.47-.07-.47a33.46,33.46,0,0,1-.28-4.25,31.13,31.13,0,0,1,19-28.71,29.84,29.84,0,0,1,3.83-1.32l.52-.15.5-.19a7,7,0,0,1,2.55-.6c2.34,0,5.19,4.82,6.88,11.55.83,5.15,5.17,9.22,9.57,10.85A29.07,29.07,0,0,0,62.12,54c.89,0,1.78,0,2.68,0l2.26,0a22.45,22.45,0,0,1,2.59.12c.18.81.33,1.64.44,2.47l.29,1.85c.22,1.42.44,2.91.72,4.49.23,1.36.5,2.73.81,4.07,1.23,6,4.42,10.67,7,14.39A30,30,0,0,1,82,86.54c-2.84.83-8.86,1-12.32,1.17-4.83.17-9.83.35-14.14,1.38l-.11,0c-1.86.47-3.78.83-5.81,1.22s-4.42.84-6.71,1.41C42.19,91.83,41.46,91.89,40.76,91.91Z" transform="translate(2.24 99)"/><path class="cls-8" d="M42.14,81.65c-1.16-1-2.32-2.14-3.52-3.26-5.58-5.22-11.78-11-20.45-15.56-.06-.67-.09-1.35-.09-2A21.14,21.14,0,0,1,31,41.33c.21.6.41,1.27.61,2,1.6,9,8.75,15.5,15.71,18.17A37.74,37.74,0,0,0,61.15,64l.09.57c.26,1.49.56,3,.89,4.48a38.35,38.35,0,0,0,3,8.8,65.09,65.09,0,0,0-11.87,1.48l-.22,0c-1.57.4-3.36.74-5.25,1.09S44.13,81.2,42.14,81.65Z" transform="translate(2.24 99)"/><path class="cls-8" d="M81,61.2c-.37-2.14-.65-4.12-1-6a36.27,36.27,0,0,0-1.12-5.35c-3.84-9.74-16.56-3.65-24.31-7-1.67-.55-3.33-2.22-3.33-3.32-2.76-11.62-9.4-23.8-23-18.46a41.72,41.72,0,0,0-5.08,1.76A41.17,41.17,0,0,0-1.92,60.81a43,43,0,0,0,.37,5.59c.21,5.29,2.43,10.83,6.86,12.49,12.17,5,18.82,14.39,28.78,22.14,1.66,1.1,3.32,0,5.15.88a35.67,35.67,0,0,0,5.58-.32c4.21-1.12,8.64-1.67,13.07-2.78C69.51,96,93.31,101,92.21,86.64c-.56-7.75-8.86-13.29-10.52-21.77C81.39,63.6,81.15,62.38,81,61.2Z" transform="translate(2.24 99)"/><path class="cls-9" d="M81,61.2c-.37-2.14-.65-4.12-1-6a36.27,36.27,0,0,0-1.12-5.35c-3.84-9.74-16.56-3.65-24.31-7-1.67-.55-3.33-2.22-3.33-3.32-2.76-11.62-9.4-23.8-23-18.46a41.72,41.72,0,0,0-5.08,1.76A41.17,41.17,0,0,0-1.92,60.81a43,43,0,0,0,.37,5.59c.21,5.29,2.43,10.83,6.86,12.49,12.17,5,18.82,14.39,28.78,22.14,1.66,1.1,3.32,0,5.15.88a35.67,35.67,0,0,0,5.58-.32c4.21-1.12,8.64-1.67,13.07-2.78C69.51,96,93.31,101,92.21,86.64c-.56-7.75-8.86-13.29-10.52-21.77C81.39,63.6,81.15,62.38,81,61.2Z" transform="translate(2.24 99)"/><path class="cls-7" d="M121,59.53c1,1.94,1.84,3.75,2.68,5.43a39.42,39.42,0,0,0,2.64,4.78c6.56,8.16,16.91-1.42,25.3-.54,1.75,0,3.83,1.13,4.15,2.19,6.09,10.29,16,20,27.39,10.84A40.25,40.25,0,0,0,187.51,79,41.16,41.16,0,0,0,200.3,35.39a42.39,42.39,0,0,0-2-5.22c-1.76-5-5.52-9.63-10.24-9.91-13.11-1.16-22.23-8.18-34-12.63-1.92-.57-3.18,1-5.19.68a34.9,34.9,0,0,0-5.23,2c-3.69,2.31-7.77,4.15-11.66,6.52-10.29,6.08-34.5,8.36-29.18,21.78,2.82,7.24,12.39,10.07,16.49,17.68C119.89,57.37,120.48,58.47,121,59.53Z" transform="translate(2.24 99)"/><path class="cls-8" d="M174,75.87c-1.85,0-5.53-2.86-9.32-9.1-2.32-4.69-7.66-7.29-12.35-7.55-.6,0-1.21-.08-1.82-.08-4.43,0-8.41,1.32-11.93,2.49A41.9,41.9,0,0,1,133.92,63c-.41-.72-.8-1.47-1.15-2.23l-1-2.08c-.57-1.18-1.17-2.4-1.83-3.69-.57-1.14-1.24-2.38-1.95-3.62-3-5.42-7.39-8.9-10.94-11.69a29.78,29.78,0,0,1-4.53-4C115,34,120.65,32,123.93,30.89c4.56-1.59,9.27-3.24,13.09-5.49l.11-.07c1.63-1,3.37-1.92,5.2-2.89s4-2.1,6-3.33c.69-.3,1.36-.57,2-.8a13.66,13.66,0,0,0,2.49-.4c2.65,1.11,5.23,2.37,7.94,3.68,7.71,3.75,15.68,7.63,26.14,8.61a8.24,8.24,0,0,1,2,3.28L189,34l.2.45a29.4,29.4,0,0,1,1.52,3.94,31.08,31.08,0,0,1-9.68,33.05,28.27,28.27,0,0,1-3.26,2.41l-.45.29-.43.34A5.8,5.8,0,0,1,174,75.87Z" transform="translate(2.24 99)"/><path class="cls-8" d="M174.65,63.73c-.37-.51-.77-1.1-1.18-1.76-4.19-8.15-12.94-12.23-20.38-12.72-.85-.07-1.72-.11-2.58-.11A40.09,40.09,0,0,0,139.1,51c-.08-.16-.16-.32-.25-.48-.66-1.32-1.39-2.67-2.16-4a38.34,38.34,0,0,0-5.48-7.55A65.3,65.3,0,0,0,142.1,34l.23-.14c1.38-.84,3-1.7,4.69-2.6s3.27-1.73,5-2.75c1.41.65,2.85,1.35,4.33,2.07,6.87,3.34,14.51,7.05,24.12,8.81.26.62.49,1.25.69,1.88A21.16,21.16,0,0,1,174.65,63.73Z" transform="translate(2.24 99)"/><path class="cls-8" d="M121,59.53c1,1.94,1.84,3.75,2.68,5.43a39.42,39.42,0,0,0,2.64,4.78c6.56,8.16,16.91-1.42,25.3-.54,1.75,0,3.83,1.13,4.15,2.19,6.09,10.29,16,20,27.39,10.84A40.25,40.25,0,0,0,187.51,79,41.16,41.16,0,0,0,200.3,35.39a42.39,42.39,0,0,0-2-5.22c-1.76-5-5.52-9.63-10.24-9.91-13.11-1.16-22.23-8.18-34-12.63-1.92-.57-3.18,1-5.19.68a34.9,34.9,0,0,0-5.23,2c-3.69,2.31-7.77,4.15-11.66,6.52-10.29,6.08-34.5,8.36-29.18,21.78,2.82,7.24,12.39,10.07,16.49,17.68C119.89,57.37,120.48,58.47,121,59.53Z" transform="translate(2.24 99)"/><path class="cls-9" d="M121,59.53c1,1.94,1.84,3.75,2.68,5.43a39.42,39.42,0,0,0,2.64,4.78c6.56,8.16,16.91-1.42,25.3-.54,1.75,0,3.83,1.13,4.15,2.19,6.09,10.29,16,20,27.39,10.84A40.25,40.25,0,0,0,187.51,79,41.16,41.16,0,0,0,200.3,35.39a42.39,42.39,0,0,0-2-5.22c-1.76-5-5.52-9.63-10.24-9.91-13.11-1.16-22.23-8.18-34-12.63-1.92-.57-3.18,1-5.19.68a34.9,34.9,0,0,0-5.23,2c-3.69,2.31-7.77,4.15-11.66,6.52-10.29,6.08-34.5,8.36-29.18,21.78,2.82,7.24,12.39,10.07,16.49,17.68C119.89,57.37,120.48,58.47,121,59.53Z" transform="translate(2.24 99)"/><path class="cls-7" d="M192.74-37.06c-.87,4.65-62.68,33.25-67.86,34.35a40.72,40.72,0,0,1-5.44,1.32,40.87,40.87,0,0,1-18.27-1,40.74,40.74,0,0,1-5.6-2.05c-.57-.3-1.18-.6-1.79-.9a40.81,40.81,0,0,1-8.3,10.94,39.53,39.53,0,0,1-4.63,3.75c-11.34,7-24.63,19.69-37.35,12.5-12.18-6.09-2.22-22.7-6.09-33.77A9.82,9.82,0,0,0,33-15.66a44.15,44.15,0,0,0-4.31-1.79c-6-2.2-12.23-4-12.28-11a37.53,37.53,0,0,1,.89-5.4c.38-1.84.83-3.78,1.26-5.91.24-1.18.45-2.4.64-3.69,1.51-8.51-4.25-16.66-2-24.09,4.15-13.83,24.56-.6,36.4,1,4.53.56,8.86,1.63,13.19,2.12a34.65,34.65,0,0,1,5.32,1.71c1.39,1.48,3.34,1,4.49,2.67,2.65,4.41,4.68,8.88,6.81,13.23a24.68,24.68,0,0,0,8.11-5.8,9.78,9.78,0,0,0,1-5.74A45.13,45.13,0,0,0,91.8-63c-1.18-6.24-2.82-12.57,3.14-16.2a38.16,38.16,0,0,1,5.09-2c1.77-.61,3.68-1.23,5.72-2,1.13-.4,2.3-.85,3.49-1.35,8.08-3.08,12.13-12.2,19.67-14.06,14-3.53,49,14,50.81,18,.56,1.77,12.83,11.93,12,13.75C185.8-55.63,195.59-49.9,192.74-37.06Z" transform="translate(2.24 99)"/><path class="cls-8" d="M51.51,14a6,6,0,0,1-3.09-.84l-.22-.12L48,12.93a1.41,1.41,0,0,1-.46-.29c-.68-1.16-.1-6.27.2-9,.65-5.8,1.39-12.38-.86-18.81l-.21-.6-.29-.56a19.28,19.28,0,0,0-9.07-8.33,51.71,51.71,0,0,0-5.18-2.16L31-27.24a41,41,0,0,1-4.49-1.82c.12-.82.28-1.65.48-2.48l.05-.26c.15-.7.31-1.41.47-2.15.26-1.22.54-2.5.81-3.85s.5-2.61.72-4.07c1-6.1-.27-11.56-1.33-16a30.34,30.34,0,0,1-1.06-5.94c3,.24,7.72,1.87,11.92,3.33,4.56,1.57,9.28,3.21,13.67,3.8l.12,0c1.9.24,3.83.59,5.87,1s4.41.81,6.75,1.09c.73.19,1.44.41,2.1.64a14.66,14.66,0,0,0,2.19,1.22c1.38,2.5,2.62,5.07,3.92,7.76.41.85.81,1.69,1.22,2.53l4.43,9.05,9-4.49a34.18,34.18,0,0,0,11.33-8.33l.43-.51.35-.56a19.26,19.26,0,0,0,2.45-12,49.84,49.84,0,0,0-.8-5.54L101.4-66a42.57,42.57,0,0,1-.74-4.79c.76-.32,1.55-.61,2.36-.86l2.08-.7c1.27-.43,2.6-.87,4-1.37s2.57-.94,3.88-1.49c5.76-2.24,9.77-6.16,13-9.32,1.91-1.88,4.09-4,5.34-4.31a7.57,7.57,0,0,1,1.87-.18c11.38,0,33.4,10.57,38.42,14.41a46.47,46.47,0,0,0,6,6.42c.79.77,1.91,1.86,2.93,2.89-1.72,6.82,0,12.41,1.37,16.76a23.27,23.27,0,0,1,1.42,6.6c-10.82,7.14-54.13,27.4-60.72,29.48l-.22,0-.45.14a30.77,30.77,0,0,1-4.14,1,31.1,31.1,0,0,1-5.35.47A30.79,30.79,0,0,1,103.92-12a31.66,31.66,0,0,1-4-1.44c-.49-.26-1-.51-1.51-.76l-9-4.45L84.91-9.93a30.87,30.87,0,0,1-6.26,8.26A30.06,30.06,0,0,1,75.35,1c-2.22,1.38-4.46,2.92-6.63,4.4C62.85,9.45,56.21,14,51.51,14Z" transform="translate(2.24 99)"/><g class="cls-10"><path class="cls-7" d="M58.08.52c.49-5.56.57-12.25-1.79-19l-.42-1.2-.57-1.13A29.1,29.1,0,0,0,41.6-33.7c-1.23-.6-2.43-1.12-3.57-1.58,0-.18.07-.36.11-.55.28-1.38.54-2.86.78-4.46a38.42,38.42,0,0,0,.39-9.34,64.88,64.88,0,0,0,11.59,2.9l.24,0c1.61.2,3.41.53,5.3.88s3.65.66,5.67,1q1,2.05,2.08,4.25L65.44-38l8.84,18.1L80.44-23,76-14.55A20.68,20.68,0,0,1,71.81-9a20.93,20.93,0,0,1-2,1.67c-2.32,1.45-4.56,3-6.74,4.48C61.65-1.86,59.87-.63,58.08.52Zm54.32-21.3a20.55,20.55,0,0,1-5.73-.81,21.11,21.11,0,0,1-2.46-.87l-1.37-.68L91.75-28.62l.57-.28c4-2,9.87-5.29,14.54-10.87l.85-1,.72-1.13a29.2,29.2,0,0,0,3.95-18.28c-.11-1.37-.28-2.66-.48-3.88l.54-.19c1.36-.48,2.82-1,4.27-1.64,7.6-3,12.59-7.87,16.25-11.46.5-.48,1.08-1.06,1.61-1.55,7.91.82,24.1,7.85,30,11.67a66.47,66.47,0,0,0,5.25,5.54,41.25,41.25,0,0,0,2,14.87c-14.59,8-45.08,22.21-52.07,24.76h0l-.9.28a20.82,20.82,0,0,1-2.83.69A21.64,21.64,0,0,1,112.4-20.78Z" transform="translate(2.24 99)"/></g><path class="cls-8" d="M112.2-30.79c.79-.8,1.57-1.66,2.33-2.56l1.28-1.54,1.07-1.68a38.82,38.82,0,0,0,5.66-21,56.1,56.1,0,0,0,15.2-10.56,107.18,107.18,0,0,1,20.32,8.56c.57.65,1.15,1.28,1.75,1.9a48.65,48.65,0,0,0,.58,5.57c-14.64,7.54-36.81,17.89-43.78,20.5l-.72.22a10.84,10.84,0,0,1-1.52.37,11.19,11.19,0,0,1-2,.18Z" transform="translate(2.24 99)"/><path class="cls-9" d="M131.94-49.27c.1-.67.19-1.34.27-2A64.59,64.59,0,0,0,140-56.77c1.36.5,2.76,1.06,4.15,1.64C140.12-53.14,135.92-51.13,131.94-49.27Z" transform="translate(2.24 99)"/></g></g><path class="cls-11" d="M134.24,79.67,152,50.38l9.53,16.1a29.43,29.43,0,1,0-52.11-27.35Z" transform="translate(2.24 99)"/><polyline class="cls-12" points="62.81 200.38 104.87 128.12 148.12 198.68"/><polyline class="cls-12" points="43.19 167.81 54.11 149.38 112.21 245.45"/><polyline class="cls-12" points="165.11 167.81 154.19 149.38 96.08 245.45"/><polygon class="cls-13" points="205.2 101.28 104.87 275.06 4.54 101.28 205.2 101.28"/></g></g></svg>