<?xml version="1.0" encoding="utf-8"?>
<!-- Generator: Adobe Illustrator 22.0.1, SVG Export Plug-In . SVG Version: 6.00 Build 0)  -->
<svg version="1.1" id="Ebene_1" xmlns="http://www.w3.org/2000/svg" xmlns:xlink="http://www.w3.org/1999/xlink" x="0px" y="0px"
	 viewBox="0 0 31.3 40.1" style="enable-background:new 0 0 31.3 40.1;" xml:space="preserve">
<style type="text/css">
	.st0{fill:#17383A;}
	.st1{fill:#182F30;}
</style>
<g>
	<g>
		<path class="st0" d="M28.1,17.5h-0.3L15.6,35.9L4.1,17.5H3.8c-1.7,0-3.2,0.7-3.2,2.8v19.3h29.6V20.3
			C30.1,18.2,29.8,17.5,28.1,17.5z"/>
		<path class="st1" d="M31.3,40.2H0V20.3c0-2.4,1.5-4,3.8-4h0.8L15.7,34l11.6-17.6h0.8c2.1,0,3.2,1.3,3.2,4V40.2z M1.7,38.4h27.8
			V20.3c0-1.9-0.6-2.2-1.3-2.2L15.6,37.2l-12-19.1c-0.9,0-1.9,0.5-1.9,2.2V38.4z"/>
	</g>
	<g>
		<path class="st0" d="M25.8,11.1c0,5.6-4.6,10.2-10.2,10.2S5.5,16.7,5.5,11.1C5.5,5.5,10,0.9,15.6,0.9S25.8,5.5,25.8,11.1z"/>
		<path class="st1" d="M15.6,22.2c-6.1,0-11-5-11-11.1C4.6,5,9.6,0,15.6,0s11,5,11,11.1C26.7,17.2,21.7,22.2,15.6,22.2z M15.6,1.7
			c-5.1,0-9.3,4.2-9.3,9.3c0,5.2,4.2,9.3,9.3,9.3s9.3-4.2,9.3-9.3C25,5.9,20.8,1.7,15.6,1.7z"/>
	</g>
</g>
</svg>
