<?xml version="1.0" encoding="utf-8"?>
<!-- Generator: Adobe Illustrator 22.0.1, SVG Export Plug-In . SVG Version: 6.00 Build 0)  -->
<svg version="1.1" id="Ebene_1" xmlns="http://www.w3.org/2000/svg" xmlns:xlink="http://www.w3.org/1999/xlink" x="0px" y="0px"
	 viewBox="0 0 706.7 418.3" style="enable-background:new 0 0 706.7 418.3;" xml:space="preserve">
<style type="text/css">
	.st0{fill:#ECEEEF;}
	.st1{clip-path:url(#SVGID_2_);}
	.st2{clip-path:url(#SVGID_4_);fill:#7BA9A9;}
	.st3{clip-path:url(#SVGID_4_);}
	.st4{fill:#17383A;}
	.st5{opacity:0.2;fill:#17383A;}
	.st6{opacity:0.2;fill:#182F30;}
	.st7{opacity:0.2;}
	.st8{fill:#D68900;}
	.st9{fill:none;stroke:#182F30;stroke-width:2;stroke-miterlimit:10;}
	.st10{fill:none;stroke:#182F30;stroke-width:3;stroke-miterlimit:10;}
	.st11{fill:#182F30;}
</style>
<g>
	<g>
		<path class="st0" d="M672.5,372.5c-0.4,2.2-1.8,4.6-3.6,6c-1.3,1.1-5.4,3.3-5.9,0.2c-0.1-0.9,0.8-4.9,1.1-5.7
			c1-2.4,2.1-0.8,3.7-0.5C669.6,372.8,671.1,371.2,672.5,372.5z"/>
		<path class="st0" d="M661.3,121.3c0.6,2.1,1,4.1,1.4,6c-1.6,2.4-4.7,1.5-7,2.8c-1.1,0.6-1.4,2.8-2.4,3.1c-0.8,0.3-1.5-0.9-2.3-0.9
			c-2.1,0-3.1,4.2-5.6,3.1c-1.4,1,0.1,5-1.7,5.4c-1.3,0.2-2-1.7-2.7-2.9c-0.9-1.5-2.3-2.3-2.3-3.5c0-1.2,2.1-3.3,2.7-4.1
			c0.8-1.1,2.4-3,3.4-3.3c1.9-0.5,3.9,0.2,5.3-0.5c1.3-0.6,1.3-3,2-3.6c0.6-0.5,1.2-0.4,1.7-0.7c1.3-0.9,2.8-3.9,2-6.9
			c-0.5-1.9-3.1-4-1.4-6.4c2.5,0.3,5.9,3.3,6.3,6.4c0.2,1.2-0.4,2.4-0.3,3.6C660.4,119.6,661,120.4,661.3,121.3z"/>
		<path class="st0" d="M661.8,102.5c-0.3,0.9-1,0.7-1.6,1.2c-0.6,0.5-1.3,2.1-2,2.2c-1.2,0.3-2.5-1.4-3.6-1c-1.3,0.4-0.6,1.6-1,3.1
			c-1.2-0.3-3.1-1.9-3.2-3.5c0-1,1-1.6,1.3-2.8c0.4-2-0.7-3-1.3-4.8c0-0.3,0.1-0.3,0.1-0.5c1.4-0.4,4.2,2.8,7.3,3.5
			C660,100.3,661.7,100.1,661.8,102.5z"/>
		<path class="st0" d="M656.5,277.8c0.1,1.4-1.9,1.3-2.2,0.3C654.4,277,656.3,276.7,656.5,277.8z"/>
		<path class="st0" d="M646.5,88c1.4,0.9,4.9,3,2.4,4.8C647.4,92.2,645.9,89.9,646.5,88z"/>
		<path class="st0" d="M639.8,270.2c1.6-1.1,3.4-3.4,6.3-2.3c-0.6,2.2-2.8,2.1-4.2,3.1c-1.4,1-2.6,2.7-4.3,2.9
			c-0.1-0.3-0.3-0.5-0.6-0.7C637.1,271.4,638.7,271,639.8,270.2z"/>
		<path class="st0" d="M636,237.7c1.7,0,3.3-0.6,4.4,0.2c-0.2,4.3-5.8,1-9.5,1.7c-0.8,0.1-1,0.9-1.9,0.5c0-1.5,1.4-2.9,2.7-3.1
			C632.8,236.9,634.4,237.7,636,237.7z"/>
		<path class="st0" d="M637.4,243.1c0.2,2.4-2.6,2.7-3.3,4.5c1.2,2.2,1.7,5.3,3,7.2c-0.1,1.3,0.2,3-0.4,3.6
			c-2.9,0.7-4.4-5.6-5.6-7.8c-2.2,0.5-0.2,9-3.2,7.9c-1.5-0.5,0-2.9-0.3-4.8c-0.3-1.7-1.6-2-1.7-3.3c-0.1-1.1,1-2.2,1.3-3.3
			c0.5-1.6,0.2-4.6,1.7-4.7c0.8,0,1.8,1.9,2.3,2.1C632.9,245.1,635,242.5,637.4,243.1z"/>
		<path class="st0" d="M632.1,268.8c-0.5,1.3-3.5,0.7-3.7-0.5C628.8,267,631.8,267.4,632.1,268.8z"/>
		<path class="st0" d="M629.3,273c-0.2,0.3-0.4,0.5-0.6,0.7c-1.1-0.4-2.3-0.7-2.6-2.1C627,270.2,629.3,271.4,629.3,273z"/>
		<path class="st0" d="M625.5,268.7c-0.7,1.2-3.3-0.1-4.2,1.2c-1.5,0-3-0.1-3.3-1.6c0.4-1.3,1.8-0.4,2.9-0.5
			C622.6,267.6,625,266.1,625.5,268.7z"/>
		<path class="st0" d="M605.2,334.8c0-1.5-0.8-2.9-1-4.5c-0.1-0.6,0.1-1.3,0-2.1c-0.1-1.1-0.5-2-0.4-2.6c0.2-1.1,1.3-1.3,1.6-2.2
			c0.5-1.6-0.6-1.9-0.6-3.8c0-1.4,0.9-2,1.4-3.8c0.3-0.8,0.3-2.4,0.6-2.9c0.4-0.7,2-1.4,2.6-1.7c2.2-1.3,4-3.7,6.2-4.1
			c0.6-0.1,1.3,0.1,1.7,0c1.3-0.3,2.9-1.6,4.7-2.1c1.7-0.5,3.3-0.3,4.6-1.2c1.4-1,3.5-3.6,4-5.2c0.7-1.9,0.5-3.5,1.7-4.1
			c0.6-0.3,1.2,0,1.9-0.2c0.7-0.2,2.1-1,2.6-1.6c1-1.1,1.2-2.8,2.3-4c0.8-0.8,2.3-2,3.3-2.6c0.6-0.4,1.8-0.8,2.3-0.7
			c2,0.2,3,3.6,5.2,2.9c0.8-0.2,1.6-2.2,2.3-3.5c1-1.8,1.8-4.1,3.6-4.7c1.5-0.4,3.1,0.7,3.9-0.9c0.2-1.1-0.7-1.7,0-2.4
			c1.7,0.1,4.5,2.8,7,2.9c1.4,0.1,3.9-1.8,4.2,0.7c0.1,1.1-1,2-1.3,3.1c-0.2,0.8,0.3,1.2-0.1,2.1c-1.2,0.6-2.4,0.8-2.4,2.4
			c0,2,2.3,2.9,3.7,4c1,0.7,1.8,1.9,2.3,2.2c0.4,0.3,1.1,0.5,1.4,0.7c0.9,0.7,1.6,2.4,2.9,2.4c1.5,0,2.9-2.2,3.7-4.3
			c1-2.5,1-5.5,1.4-8.1c0.1-0.9,0.7-1.7,0.9-2.6c0.6-2.4,1.3-5.6,3-6.4c1.7,2.2,2.3,6.4,2,10c1.1,1,3.2,0.7,3.4,3.1
			c0.1,0.8-0.3,1.9-0.3,2.8c0.1,1.5,1,2.7,1.2,4c0.3,2.3-0.3,4.2,0.6,5.9c1.1,2.1,3.3,2,4.7,4.3c0,1.4,0.4,2,0.7,3.1
			c0.1,0.5,0,1.4,0.1,1.7c0.5,1.2,1.7,1.3,2.2,2.2c0.2,0.5,0.2,1.4,0.4,2.2c0.4,1.3,1.3,2.2,2,3.5c0.6,1.2,1.7,2.5,1.9,3.5
			c0.3,1.7-0.8,2.9-1,4.3c-0.3,1.7,0,3.9-0.6,5.7c-0.7,2.1-2.3,4.1-3.6,6.7c-1.1,2.1-2.5,4.6-4,6c-0.9,0.9-2,1.4-2.9,2.3
			c-1.4,1.3-2.5,3.1-3.7,4.7c-1.3,1.6-2.9,2.9-3.9,4.3c-1.5,2.1-2.2,5.4-4.7,5.7c-1.5,0.2-2.8,0-4.2,0.7c-2.1,1-3.5,2.9-4.6,2.9
			c-1.1,0-2.1-1.6-3.2-1.7c-1.2-0.2-2.1,1-3.7,1c-0.7,0-1-0.5-2-0.9c-2.1-0.8-4.3-0.7-4.6-3.5c-0.2-1.5,0.8-2.1,0.7-3.5
			c-0.1-1.3-1.1-1.6-1.6-2.8c0.3-1.2,0.3-2.7-0.7-3.5c0-1.1,0.2-1.8,0.6-2.4c-0.8,0.4-1.9,0.7-2.9,1.4c-1,0.8-1.8,2.5-3,2.2
			c-1.1-0.5-0.3-1.8-0.4-2.9c-0.1-0.8-1.7-4.4-2.4-5c-0.8-0.7-3.9-2.1-4.9-2.3c-4.4-0.8-7.3,2-10.8,2.4c-0.9,0.1-1.9-0.2-2.7,0
			c-2.9,0.6-6.1,3.4-7.9,5.2c-3,0.4-6-0.7-9.1,0.3c-3,1.1-4.8,4.1-9.5,3.3c-0.9-1-2.6-1.4-2.6-3.1c0-1.3,1.6-2.2,2.2-3.1
			c0.6-1,1.5-3.4,1.6-4.8c0-1.1-0.6-2.5-0.6-4C604.7,337.1,605.2,335.9,605.2,334.8z"/>
		<path class="st0" d="M602.8,262.8c0.8-0.1,1.4-0.8,2.2-0.9c1.7-0.1,3.3,1.5,5.3,1.2c0.4,0.6,0.1,1,0.1,1.9
			c1.7,1.1,4.4,0.9,5.3,2.9c-1.3,1.6-3.1,0.5-4.7,0.2c-1.5-0.2-3-0.1-4.6-0.3c-2-0.3-3.8-1.6-5.7-1.9c-1.2-0.2-2.4,0.2-3.5,0
			c-1.3-0.2-6.1-2.4-6.2-4c-0.1-1.6,2.2-2,4.2-1.7C597.7,260.6,599.4,263.3,602.8,262.8z"/>
		<path class="st0" d="M606.6,250.9c-1.1-0.4-2.1-0.2-2.6-0.5c-1-0.7-0.8-2.8-1.2-4c-0.3-1.2-1.5-1.8-2.2-3.5
			c-0.9-2.4-1.3-7.6,1.1-8.1c1-0.2,2,0.7,2.7,0.5c1.4-0.4,1.1-2.6,2.3-3.5c0.6-0.5,1.8-0.3,2.7-0.7c0.9-0.4,1.6-1.5,2.3-2.4
			c0.6-0.9,1.1-2.3,1.9-2.9c0.9-0.7,1.7-0.7,2.4-1.4c1.9-1.7,1.9-4.1,3.4-6.2c1.3-1.8,3.3,1.7,3.5,3.1c0.7,1.1,2.1,1.4,2.7,2.6
			c-0.8,3-3.2,3.3-2.7,7.6c0.1,0.7,0.5,2,0.9,2.9c0.4,1,1.6,2.1,1.6,2.8c-0.1,1.3-2.3,1.2-2.7,2.6c-0.4,1.3,0,1.3-0.1,3.3
			c-0.6,1.4-2.2,1.7-2.7,3.5c-0.6,2.1,0.1,4.7-1.3,6.2c-1-0.1-2,1-3.2,0.9c-1.3-0.1-2.5-2.2-4.5-2.2c-0.8,0-1.7,0.6-2.4,0.5
			C608,251.8,607.5,251.2,606.6,250.9z"/>
		<path class="st0" d="M597.3,247c3.7,0,3.7,6.8,0,6.8C593.7,253.8,593.7,247,597.3,247z"/>
		<path class="st0" d="M592,246.2c0.4,0.1,2,2.7,2,3.5c-0.1,1.2-1.6,1.2-2,2.8c-0.7,2.5,0.3,5.3-0.9,6.6c-0.7,0.5-1.8,0.3-2.9,0.3
			c-2.6-2.2-4.7-4.8-6.9-7.8c-0.8-1.1-1.8-2-2.3-3.1c-0.7-1.6-1-3.5-1.9-5c-0.8-1.4-2.1-2.3-2.9-3.8c-0.6-1.2-0.7-2.8-1.3-4
			c-0.6-1.1-1.6-1.6-2.3-2.4c-0.5-0.6-0.7-1.5-1.1-2.1c-1.8-2.6-5.3-4-5.5-7.8c0.7-1,1.5,0.4,2.9,0.7c0.9,0.2,1.9-0.1,2.6,0.2
			c1.3,0.5,2.2,3,3.6,4.3c0.8,0.8,1.8,1.3,2.6,2.1c0.9,0.9,1.5,2.1,2.2,2.6c0.9,0.7,2.2,1.1,3.5,2.1c1.7,1.3,4.6,2.6,5,5.2
			c0.1,0.6-0.3,1.7-0.1,2.2c0.2,0.9,1.2,1.3,1.7,2.1c0.7,1,0.9,2.4,1.9,2.6C590.8,247.8,590.9,246,592,246.2z"/>
		<path class="st0" d="M524.1,209.9c1.2,0.5,5.4,6.5,4.2,9.8c-0.3,0.9-1.8,2.2-3.2,1.9c-2.8-0.5-2.3-8.2-1.4-11.2
			C523.8,210.2,523.9,210,524.1,209.9z"/>
		<path class="st0" d="M428.5,297.3c0.1-1.4,1-3.7,1.9-4.5c1.3-1.2,3.1-1.1,4.5-1.9c1.1-0.7,2.6-1.8,3.4-3.1
			c0.7-1.1,0.7-2.3,1.3-3.1c0.4-0.6,1.3-0.7,1.7-1.4c0.4-0.6,0.3-1.7,1-2.4c2-1,2.6,3.4,2.9,6.4c0.1,0.9,0.5,2,0.4,2.4
			c-0.2,1.4-1.5,1.7-1.9,2.6c-0.1,3.8-1.3,7.1-2.4,10.2c-1,2.7-1.5,5.6-2.3,7.9c-0.3,0.8-0.9,1.5-1.1,2.2c-1,2.9-1.4,7.6-3.3,8.8
			c-0.7,0.4-3.3,1.2-4,1.2c-1.8,0-3.3-1.6-3.7-3.5c-0.2-1,0-2-0.1-3.1c-0.2-1.4-0.9-2.6-0.7-4.1c0.3-3.5,3.2-5.2,3.3-8.1
			C429.3,301.7,428.3,299.5,428.5,297.3z"/>
		<path class="st0" d="M359.2,51.5c0.2,2.9-3.7,2.5-4.2,5c-0.2,1.1,0.4,2.6,0.3,3.6c-0.3,1.8-1.8,1.3-3.6,2.2
			c-0.9,0.5-1.9,2.3-2.9,2.4c-0.9,0.1-1.5-0.7-2.2-0.5c-0.9,0.2-0.6,1.6-2,1.9c-1.1,0.2-3-1.2-3.2,0.5c-0.1,1.1,1.7,1.7,2.9,1.6
			c0.9-0.1,1.6-0.9,2.4-0.9c1.7,0,2.8,1.5,3.9,1.6c2.5,0.1,4.9-2.7,7.5-2.4c1.2,0.1,1.9,1.1,2.7,1c1.4-0.2,2.6-2.1,3.6-2.8
			c-0.4-2.9,0-6.7,2.3-6.9c1.6-0.1,3.9,3.2,4.2,0c0.1-1.4-1.2-2.6-2.2-2.6c-0.8,0-1.9,2-2.6,0.3c0-1.6,1.5-1.2,2.3-1.6
			c0.6-0.3,1-1.1,1.7-1.4c3.4-1.4,8.2,1.4,9.5-2.1c-3-3.1-8.2,1.1-11.6,0.9c-1.5-0.1-3.4-1.4-3.9-3.1c-0.1-0.5,0-1.2-0.1-2.2
			c-0.1-1.1-0.6-2.3-0.6-2.9c0.1-3.1,6.6-3.7,6.6-7.6c-1.2-1.4-4.9-1.2-6,0.3c-0.4,0.5-0.4,1.7-1,2.8c-1.3,2.4-5.5,2.6-6.8,5.5
			c-0.3,0.6-0.8,2.4-0.6,3.5C356.1,49.4,359.1,49.8,359.2,51.5z M325,220.5c-4.1-0.7-8.4,1.3-11.2,2.8c-1.6,0.9-3.3,2.2-4.7,2.2
			c-1.4,0.1-2.7-0.9-4-1c-1.7-0.2-3.9,0-5.6,0.3c-1.7,0.4-3.1,1.8-4.6,1.9c-2.8,0.3-5.4-3-7.2-4.7c-1.1-1-2.2-1.8-3.2-2.8
			c-1.1-1-2.5-1.6-3.3-2.6c-1.1-1.3-1.1-3.6-1.7-5.4c-0.7-2.1-2.8-3.6-4.5-5.5c-1.2-1.5-4-3.6-4.3-5.5c-0.2-1,0.3-2.1,0.3-3.1
			c-0.1-1.5-1-2.4-1-3.5c0-1.5,1.5-2.7,1.9-4c0.2-0.7,0.1-1.6,0.3-2.4c0.4-1.8,1.4-2.8,1.2-5.4c-0.1-1-0.8-2-0.9-3.3
			c0-0.9,0.5-1.4,0.4-2.2c-0.1-1.5-1.7-1.8-1.9-3.5c-0.2-1.7,1.4-3.2,2.3-5.2c0.4-0.9,0.6-2.3,1-2.9c0.8-1.5,2.1-2.2,2.7-3.6
			c0.5-1.1,0.6-2.7,1-3.5c0.5-1,1.6-1.6,2.6-2.9c0.8-1.1,1.2-2.4,1.7-2.9c0.7-0.6,1.8-0.8,2.6-1.2c2.7-1.5,4.6-3.3,5.9-6.4
			c-0.4-2.8,0.2-4,1.2-5.9c0.9-1.8,1.5-3.5,3-4.5c1.8-1.2,3.5-1.3,4.7-3.6c0.6-1.1,1.6-3.1,1.6-4.3c0-1.7-1.5-3.9-2.7-4.1
			c-1.3-0.2-3.3,1.2-4-0.5c-0.2-0.5,0.1-1.8,0-2.4c-0.2-1.1-1-1.9-1-2.8c-0.1-1.6,1.3-3.3,1.7-5.2c0.5-2.5,0-4.5-0.1-7.4
			c2-3.8,6.5-1.9,10.9-1.6c0.7,0.1,1.4-0.2,2.2-0.2c2.6,0.1,4.7,1,5.6-1.7c0.3-1,0.6-4.9,0.4-5.9c-0.2-1.2-2.1-4.2-3-4.8
			c-1.4-1.1-3.5-0.6-4.3-2.6c0.7-3.4,3.8-0.6,5.7-1.4c1-0.4,0.9-2.4,1.7-2.8c0.6-0.2,1.3,0.7,2.2,0.7c0.7,0,3.2-1.5,3.9-2.1
			c0.9-0.7,1.2-2.3,2-2.9c0.5-0.4,1.3-0.4,1.9-0.7c1.2-0.6,2.8-1.9,3.6-3.1c1.2-1.7,1.7-3.8,3.2-4.1c1.9-0.4,6.3,0.5,6.6-2.1
			c0.3-2.4-1.8-4.3-1-6.9c0.6-2.1,2.1-1.7,4.3-2.9c1,0.9,0.7,3.4,0.9,5c1.3,0,4.1-0.5,4.3-1.9c0.3-1.8-1.9-3.6-2.4-4.7
			c-0.5-1.2-0.7-3.2-1.7-3.5c-2.2-0.5-4.3,3.6-7,3.6c-1.8,0-3.7-1.7-4.2-3.3c-0.3-0.9,0-1.8-0.1-2.8c-0.2-1.4-0.9-2.9-0.6-4.8
			c1.1-2.3,3.6-2.6,5.5-3.8c0.7-0.4,1.2-1.4,2-1.7c1.3-0.6,3.2,0,4.5-0.9c0.8-0.5,0.6-1.5,1.2-2.6c0.4-0.7,1.2-1.1,1.7-1.9
			c0.3-0.6,0.4-1.4,0.7-1.9c1.2-1.9,3.5-2.6,4.5-4.5c0.4-0.9-0.7-1.2-0.4-2.4c0.5-1.2,2.3-0.3,3.3-0.5c1.4-0.3,2.8-2.4,4.3-2.8
			c1.6-0.4,3.4-0.2,4.9-0.9c0.9-0.4,1.7-1.4,2.6-1.6c0.3-0.1,1.2,0.2,1.6,0.2c0.5,0,1.1-0.4,1.9-0.5c1.1-0.1,2.4,0.3,3.7,0.3
			c2.3,0.1,4.4-0.8,6.3,0.2c1,0.5,0.9,1.9,2.2,2.4c0.6,0.3,1.5-0.1,2.4,0c1.4,0.2,2.9,1.3,4.7,1.6c0.7,0.1,1.4-0.1,2,0
			c2.1,0.3,4.3,1.6,6.3,2.4c1.7,0.7,5.3,1.5,5.3,3.5c0.1,2.3-3.1,2.9-4.5,2.9c-2.3,0-5.3-1.6-7.6-0.7c0,3.9,3.5,6.9,6.8,6.4
			c0.3-1.8-1.8-0.8-1.6-2.6c1.4-1.3,3.2,0.9,5.2,0.5c0.8-0.3,0.7-1.6,0.9-2.6c1.7-1.2,3.9-3.1,6.5-1.7c0.1-0.3,0.3-0.5,0.6-0.7
			c0.2-1.9-1.7-2.9-0.7-4.7c0.5-1.2,3.2-0.8,3.6,0.2c0.2,1.2-0.7,1-0.6,2.1c0.5,1.4,1.7,1.6,2.3,1.6c1.4-0.1,1.7-1.6,3-2.4
			c0.5-0.3,1.3-0.4,2-0.7c0.8-0.4,1.5-1.2,2.2-1.4c0.5-0.2,1.2,0,1.9-0.2c0.8-0.2,1.7-1,2.4-1c0.9,0,1.5,1.2,2.6,1.4
			c0.6,0.1,1.3-0.4,2.2-0.5c0.7-0.1,1.4,0.1,2,0c1.4-0.2,2.3-1.1,3.5-1c0.8,0.1,2.2,1.4,2.7,0.7c0.9-1.1-1.2-1.9-0.6-2.9
			c2.2,0.2,4.5,0.1,6.8,0.5c3.3,0.6,6.4,2.5,9.3,2.6c-0.3-2.4-2.6-1.7-3.6-2.8c-0.3-0.3-1.6-2.9-1.6-3.6c0-0.4,1.6-3.7,2-4.1
			c1.3-1.4,5.4-1.4,6.6,0.5c0.8,1.3,0.5,3.3,1.7,3.3c1,0,1.6-3,2.7-3.1c1-0.1,1.5,1.9,2.4,1.9c1.2,0,2-2.7,3.6-2.8
			c0.8,0,1.1,0.5,2.4,0.7c0.9-0.7-0.3-1.6,0.1-2.6c1.6-1.4,5.3-0.3,7.3-1.2c0.6-0.8-0.7-1.4-0.1-2.2c1.8-1.5,4.7-1.6,7.8-2.2
			c1.8-0.4,3.6-1.9,5-2.1c1.5-0.2,3,1.1,4.3,1c0.8,0,1.8-0.3,2.6-0.7c0.8-0.4,1.4-1.3,2.2-1.6c1.3-0.4,2.9,0.2,4.3,0
			c1.5-0.2,2.9-0.9,4-0.7c1,0.2,1.9,1.5,2.9,1.7c3,0.6,6.2-0.5,8.9,0.3c0.5,0.2,1,0.8,1.6,1c1.8,0.8,3.1,0.6,3.5,3.3
			c1.5,0.6,2.3,2.2,4,2.8c1.1,0.4,2.3-0.2,3.6-0.2c1.7,0,3.9,0.1,5.3,0.3c0.8,0.2,1.5,0.9,2.3,1c0.6,0.1,1.4-0.1,2,0
			c0.9,0.1,1.7,0.5,2.4,0.5c1.5-0.1,2.7-1.7,3.9-1.9c0.7-0.1,1.5,0.3,2.2,0.3c2.4,0.2,5.2-0.4,7.2,0.2c1.1,0.3,2.9,1.7,4,2.8
			c0.8,0.8,1.4,2,2.2,2.6c0.8,0.6,2.7,1.5,3.5,1.4c0.9-0.2,1-1.4,1.9-1.9c2.9-0.8,7.9,1.1,10.2-0.2c0.9-0.5,0.7-1.6,1.4-2.2
			c4.3-0.3,8.6,0.2,12.7,0.3c1.4,0,2.9-0.4,4.2-0.2c1.4,0.3,2.5,2,3.9,2.6c0.9,0.4,2.6,0.2,4,0.5c1,0.2,1.7,0.9,2.4,1
			c1.5,0.3,3-0.2,4.5-0.3c3.3-0.3,7.5-0.5,10.8,1c1.7,0.8,2.5,2.5,4.3,2.8c2.7,0.4,6.8-0.3,9.5,0c0.6,0.1,1.3,0.4,1.7,0.3
			c0.9-0.1,1.5-1,2.6-1c1.4,0,3.7,2.7,5.8,2.2c0.9-0.7-0.7-1.7,0.1-2.4c0.8-0.8,1.9,0,3.2,0c0.7,0,1.5-0.4,2.2-0.3
			c1.6,0.2,3.1,1.9,5,2.4c1.5,0.4,3.7,0.6,5.6,0.3c1.4-0.2,2.6-0.7,3.9-0.5c0.6,0.1,1.2,0.7,1.9,0.9c0.6,0.2,1.2,0,1.7,0.2
			c0.5,0.2,1,0.7,1.4,0.9c2.7,0.9,6.2,1.4,9.1,2.4c1.7,0.6,3.4,1.9,4.7,1.9c0.7,0,1.3-0.4,2.2-0.3c4.3,0,9.5,2.2,9.1,7.1
			c-5.1,1.3-9.3-4.2-14.7-2.6c-0.8,0.3-1.8,1.4-1.7,2.4c0.2,3,6.5,2.8,7,5.7c-1,0.9-2.2,0.1-3,0.2c-1.3,0.2-3.5,1.8-4.3,2.8
			c-1,1.1-1.8,3.9-2.9,4.1c-1.3,0.3-3.2-1.5-5.2-1c-0.7,0.2-1.4,1.2-2,1.4c-1.6,0.4-3.6-1-4.6,1.2c0.5,1.6,0.2,3.8,1.3,4.7
			c0.7,0.6,1.6,0.1,2.4,0.5c1,0.5,1.6,1.9,2.4,2.8c0.7,0.7,1.5,0.7,1.9,1.6c0.1,1.3-0.4,1.4-0.3,2.2c0.2,1.4,2.1,1.8,2.2,2.8
			c0.1,1.2-1.2,1-1.4,2.2c-0.1,0.8,0.8,1,0.9,2.1c0.1,0.7-0.5,1.4-0.4,2.2c0.1,1.2,0.8,1.9,0.7,2.9c-0.1,0.9-0.7,1.6-1.3,1.9
			c-2.8-2.1-5.2-5.1-8.2-7.8c-3-2.8-7.8-6.2-8.3-12.1c0-0.9,1.6-1.6,1.9-2.9c0.1-0.5-0.2-1.3-0.1-2.1c0.1-2,1.5-4,1.4-5.2
			c-0.1-1.3-2.1-3.8-3.2-4.1c-0.8,0.5,0,1.6-0.1,2.4c-0.2,1-1.2,2.3-2.2,2.4c-2.7,0.3-3-4.2-7.3-2.9c-1.1,0.3-2.7,2.4-2.3,4.8
			c0.1,0.8,1.8,1.6,1.7,2.6c-0.1,1-3.9,1.3-4.7,1.2c-2.3-0.2-3.5-2.3-5.6-2.2c-1,0-1.9,1-2.7,1.2c-4.5,1-11.2-2.7-12.8,2.1
			c-0.2,0.7-0.1,1.5-0.3,2.2c-0.3,1-0.9,1.8-1.2,2.4c-0.2,0.5-0.1,1.6-0.4,2.4c-0.3,0.8-3,3.7-0.6,4.5c0.6,0.2,0.8-0.3,1.6-0.2
			c1.2,0.2,3.3,2.6,4.7,2.6c0.9,0,2.1-1.2,2.7-1.2c1.3-0.1,2.3,1,3.3,1.6c1,0.6,2.4,1.8,3.2,1.7c1.4-0.1,0.7-1.2,2-1.7
			c2.5,0.9,3.7,4.1,6,6.6c0.9,0.9,2.1,1.7,3.3,2.9c0.6,0.7,2.6,2.6,2.7,3.5c0.1,0.8-0.6,1.2-0.7,1.9c-0.2,1.1,0.3,1.8-0.3,2.6
			c-2.3-1-2.8-3.7-4.5-6c-0.6-0.9-1.2-1.9-2.2-3.1c-0.4-0.6-1.9-2.5-2.9-2.1c-1.8,0.8,1,4.1,1.4,4.8c1,1.5,2.2,3.6,2.3,5.2
			c0.1,1-0.6,2.9-0.6,4.7c0,1.2,0.2,2.3,0.1,3.3c-0.1,1-0.7,2.2-1,3.3c-0.3,1.3-0.4,2.8-0.7,3.6c-0.6,1.6-2.4,3.4-3.7,3.5
			c-1.2,0.1-1.7-1.1-2.9-1c-1.8,0.1-2.1,2.1-3.2,3.6c0.1,1.7,0.5,2.3,0.3,3.5c-0.4,1.8-2.5,2.1-2.4,4c0.1,1.7,1.9,2,2.9,2.8
			c1.3,1,3.5,3.3,4.7,5.2c0.8,1.2,2,3.5,1.9,4.8c-0.1,1.7-4.2,4.1-5.9,3.5c-1.6-0.6-1.1-2.4-1.4-4.1c-0.3-1.3-1.1-1.9-1.6-2.9
			c-0.2-0.6-0.1-1.4-0.4-2.1c-0.9-1.8-2.4-0.8-4.2-1.9c-1.2-0.7-0.8-2.2-1.3-3.6c-0.6-1.9-3.2-2.7-5.3-2.2c-1.5,0.4-2,1.9-3.5,2.2
			c-2.1-1.5,0.4-5.2-2.2-5.5c-2-0.2-3.3,3.4-4.5,4.5c-0.8,0.7-2.2,0.9-2.3,1.9c-0.2,1.9,1.7,1.5,3.2,2.2c1.3,0.7,1.5,2.5,2.7,2.6
			c1,0.1,1.7-1.3,2.7-1.4c1.8-0.2,3.2,0.8,4.3,1.6c-0.7,2.1-4.6,3.6-4.6,6.4c0,1.6,1.5,1.9,2.7,2.9c1,0.9,2.3,3.4,3.7,5.2
			c0.6,0.8,1.6,1.3,1.9,1.7c0.7,1.1,0.6,2.5,1.3,3.3c0.1,0.9-0.4,1.2-0.3,2.1c0.4,1.2,1.9,1,2.3,2.2c-0.3,3,0.7,5.8-1.3,6.9
			c-0.9,5.3-2,9.5-5,12.4c-2.7,2.6-6.3,3.4-9.6,4.7c-0.9,0.3-1.5,1.4-2.3,1.7c-1.9,0.8-5.3,0.3-5.5,3.1c-0.1,1.4,1.5,2.2,1.6,3.6
			c0.2,2.2-1.4,4.3-2.6,4.5c-0.8,0.1-2.6-0.6-2.7-2.4c-0.1-2.1,2.1-2.9,2.3-4.1c0.3-2.2-1.6-4.3-3.7-4.1c-1.9,0.2-6.2,4.7-6.3,7.3
			c-0.1,1.9,3.1,5.8,4.2,6.9c4,4.3,8.3,6.8,7.6,17.3c-1,2.6-3.6,3.2-5.6,4.7c-1.5,1.1-2.3,4.5-4.9,4.8c-1-0.4-0.4-2.4-0.7-3.3
			c-0.4-1.2-2.5-1.8-3.7-3.1c-1.1-1-1.5-2.7-2.3-3.6c-1-1.2-2.5-1.4-3.7-2.2c-0.8-0.5-1.4-2.3-2.2-2.2c-1.3,0.1-0.8,1.5-1.1,4
			c-0.3,2.4-1.8,4.2-1.3,7.1c0.2,1.2,1.4,2.1,2,3.3c1,2,1.1,4.2,2.2,5.4c0.7,0.7,1.8,0.9,2.6,1.6c1.5,1.3,4.2,4.1,4.7,5.7
			c0.6,1.8,0,4,0.4,5.9c0.5,2.2,2.9,3.8,1.4,6c-1.4-0.3-2.6-1.4-3.7-2.2c-2-1.5-2.9-2.7-4.2-5.2c-0.4-0.7-0.9-1.4-1.2-2.1
			c-0.5-1.5-0.4-3.3-0.9-5.2c-0.4-1.6-2-4.2-3.2-5.5c-1-1.1-2.8-1.8-2.9-3.5c-0.1-2.3,0.7-5,0.6-7.8c0-0.6-0.4-1.2-0.4-1.9
			c-0.2-1.3,0.1-2.9-0.1-4.1c-0.2-1.1-0.9-2.1-1.3-3.1c-0.4-1-0.8-2-1.1-3.3c-0.6-2-1.2-5.8-2.6-6c-1.4-0.2-2.9,3.2-4.7,3.3
			c-1,0-2.3-0.9-2.4-2.1c-0.2-1.1,0.5-2.1,0.4-3.3c-0.1-2.3-1.4-3.2-2.4-4.8c-0.4-0.7-0.5-1.6-0.9-2.1c-0.7-0.9-1.9-1.5-2.7-2.4
			c-0.8-0.9-1.7-2.2-2-3.1c-0.6-1.4-0.7-3.1-1.6-3.3c-0.8-0.2-1.7,1.2-2.6,1.6c-0.9,0.3-3,0.8-3.9,0.9c-2.9,0.2-5.2-0.7-4.9,3.5
			c-0.4,1.9-2.1,1.9-3.2,2.8c-1.4,1.1-2.4,3.4-3.9,5.2c-0.7,0.9-1.8,1.4-2.4,2.2c-0.5,0.7-0.7,1.8-1.3,2.4c-1.5,1.7-3.8,1.9-4.9,4.3
			c-0.1,2.9,1.1,5,0.9,7.8c-0.1,1.2-0.9,2.3-1,3.6c-0.1,1.1,0.4,2.3,0.1,3.5c-0.1,0.6-0.7,1-1.2,1.7c-0.4,0.7-0.6,1.6-0.9,2.1
			c-0.5,0.7-1.3,1.3-1.7,1.9c-0.7,1-0.9,1.8-1.6,1.9c-3.1,0.5-3.9-6.7-5.3-9.7c-0.6-1.4-1.9-2.6-2.6-4.3c-0.7-1.9-1-4.4-2-6.6
			c-0.9-1.9-2.1-3.8-2.7-5.7c-0.5-1.6-1-3.7-1.4-5.5c-0.5-1.9-1.1-4.4-1.2-5.9c-0.1-2.2,0.4-3.6-1.2-4.5c-1.4,0.4-2,2.1-3.6,2.1
			c-1.5,0-5.7-3.2-4.5-6c-1-1.7-3.5-2.6-5.5-4.7c-1.1-1.2-2.1-3.9-4-4.1c-0.5-0.1-1.2,0.3-1.7,0.3c-1.2,0.1-3.4-0.1-4.7,0
			c-1.7,0.2-3.9,0.6-6,0.3c-1.4-0.2-3.2-0.5-4.6-0.7c-1.8-0.2-4.3-0.8-5.3-1.9c-0.6-0.7-0.9-3-2-3.3c-1.3-0.4-2.1,0.9-3.3,1.2
			c-2.6,0.7-4.8-0.6-6.6-2.1c-1.3-1-2.4-1.5-3.3-2.2c-2.2-1.8-2.6-7-5.9-7.1c-1.2,0-3,0.9-3.2,2.4c-0.1,1.1,1.1,3.1,1.6,4
			c1.6,2.7,4.6,3.8,5.5,7.4c0.6,0.3,1.8-0.6,2.4,0.2c0.6,1.6,0,4.5,1.3,5.2c6,1.2,7.7-2.7,10.4-5.5c1.5,1.2,1,2.3,1.6,3.6
			c0.6,1.4,1.4,2.5,2.4,2.9c0.7,0.3,1.6,0,2.7,0.5c0.7,0.3,3.5,3.5,3.6,4.7c0.1,1-1.9,4.5-2.5,5.4c-0.6,0.9-1.5,1.3-1.7,2.1
			c-0.2,0.6-0.1,1.9-0.3,2.2c-0.3,0.7-1.6,1.6-2.3,2.4c-0.8,0.9-1.7,1.6-2.4,2.2c-0.9,0.8-1.5,2-2.4,2.4c-1.9,0.8-3.7,0.5-5.3,1.7
			c-1,0.8-1,2.6-2.3,3.6c-1.3,1-3.6,1-5.5,2.1c-1.2,0.7-2,2-3,2.4c-0.4,0.2-1,0-1.4,0.2c-1,0.3-1.8,1.1-2.7,1.4
			c-0.7,0.2-1.5,0.1-2.2,0.3c-2.2,0.8-4.2,3.5-6.5,1.9c-1-2.9-1.2-6.6-2.4-9.2c-0.6-1.3-1.9-1.7-2.3-3.1c-0.1-1.1,1.1-0.8,1.1-1.7
			c-0.4-1.9-1.8-2.7-2.7-4.3c-0.4-0.8-0.6-1.9-1.2-2.8c-1.7-3-5.1-4.6-5.8-8.3c-0.2-1,0-1.8-0.1-2.6c-0.3-1.3-1-2.6-1.7-3.6
			c-0.5-0.8-1.7-1.3-2.3-2.4c-0.4-0.7-0.5-1.8-0.9-2.6c-1.4-3.2-3.5-6-5.7-8.3c-1.2,0.2-2.4,0.3-3,1.2c0.6,2.3,1.5,4.2,2.4,6
			c0.9,1.7,2.1,3.6,2.7,5.5c0.2,0.7,0.2,1.7,0.4,2.4c0.9,2.7,3.7,3.6,4.3,6.7c0.4,2.1-0.1,3.6,0.4,5.7c0.5,2,3,3.2,4,5.2
			c0.8,1.6,0.8,3.8,1.4,5.4c0.9,2.2,3.3,3.2,5,4.7c1.6,1.3,2.7,3.4,4,4.8c0.8,0.8,1.8,1,2,1.9c0.2,1.2-0.4,1.6-0.6,2.6
			c1.1,1.4,2.2,3.9,4,4.1c0.8,0.1,1.7-0.8,2.9-1c0.6-0.1,1.2,0.1,1.7,0c0.8-0.2,1.4-1,2.3-1.2c1.5-0.4,3.2-0.2,5-0.5
			c1.8-0.3,3-2.1,4.3-1.6c1.5,1.9,0.4,4.2,0,6c-0.1,0.7-0.1,1.3-0.3,1.9c-0.8,3.1-2.8,5.4-3.7,8.1c-0.3,0.8-0.2,1.9-0.6,2.8
			c-1.1,2.8-3.3,5.5-5,7.8c-1,1.3-1.8,2.4-2.9,3.5c-1,1-2.3,1.6-3.5,2.6c-2.3,2-4.7,4.9-6.3,7.6c-0.6,1-0.9,2.2-1.6,3.1
			c-0.9,1.3-2.4,1.9-3.2,3.1c-0.6,1-1,2.7-1.7,4.5c-0.8,2-2.4,3.3-2.2,6c0.1,1,0.9,1.7,1.2,2.8c0.4,1.8,0.1,3.4-0.1,5.4
			c0.8,2.4,1.4,5,2.9,6.6c0.2,3.5-0.2,6.9,0,9.8c0.2,1.9,0.8,3.3,0.1,5c-0.5,1.5-2.6,4.2-3.9,5.2c-1.4,1.1-3.4,1.3-4.9,2.6
			c-1,0.9-1.9,2.4-2.9,3.5c-1.7,1.7-4,3.3-4.2,5c-0.1,1,0.7,2.5,0.9,3.5c0.6,2.6,1.1,6.2,0.1,9c-1,3-6.3,2.4-6.9,5.5
			c-0.2,1,0.4,1.7,0.3,2.8c-0.1,0.9-1,4.1-1.4,5c-0.6,1.4-2.1,2.1-3,3.3c-1.2,1.5-1.8,3.7-3,5.4c-1.7,2.2-4,4.5-6.2,6.4
			c-1.9,1.7-5.3,3.4-8.3,3.6c-1.7,0.1-3.6-0.5-5.5-0.2c-0.7,0.1-1.4,0.9-2.3,1c-0.5,0.1-1-0.1-1.6,0c-0.9,0.2-1.7,1-2.6,1
			c-1.9,0-4.3-2.7-4.3-5.4c0-1,0.7-2,0.7-2.9c0-1.1-1.1-2.5-2-4.5c-0.8-1.9-1.2-4.1-2-5.7c-0.9-1.7-2.1-2.5-2.7-3.8
			c-1.3-2.7-1.4-5.8-1.9-9c-0.1-1-0.7-2.2-0.9-3.5c-0.2-1.6,0.2-3.3-0.1-4.7c-0.2-1-1.2-2-1.7-3.3c-1-2.2-1.7-5.2-2.6-6.9
			c-0.8-1.6-2.4-3.3-2.6-5.2c-0.1-1.3,0.1-3.6,0.3-4.8c0.2-1.2,0.9-2.2,1.2-3.5c0.2-0.9,0-1.8,0.1-2.8c0.7-4,4.4-5.4,3.9-10.2
			c-0.2-2-1.4-3-1.6-5.4c-0.1-1.1,0.5-2,0.4-3.1c0-1.5-1.1-3.6-1.6-5c-1.5-3.8-2.3-7.3-4.5-10.2c-1.1-1.6-2.7-2.7-3.6-4.1
			c-0.8-1.2-1.7-3.4-1.7-4.3c0-1,0.6-1.6,0.9-2.6c0.3-1.3,0.3-3.7,0.7-5.7c0.2-0.9,1-3.2,0.9-4.7c-0.1-1.4-1.9-4.2-3.5-4.7
			c-2-0.6-4.1,0.8-6.6,0.5C328,225.4,328.2,221,325,220.5z M404.5,282.3c0.7-1.3,1.5-4.8,0-5.7c-0.1,0-0.2,0-0.3,0
			C403.6,278,402.9,281.5,404.5,282.3z M402.5,246.2c0.5-1.2,1.6-2.5,1.4-4c-0.4-3.3-5.6-1.7-6.2,0.7c-0.4,1.6,0.2,2.9-0.3,4.5
			c0.6,1.3,2,1.5,3.7,1.4C402.2,248.3,402.1,247.3,402.5,246.2z M393.7,264c0.6-1.3-0.9-2.1-1.2-3.5c-0.3-1.6,0.3-3.5-0.9-4.3
			c-0.1,0-0.3,0-0.4,0C390.3,259.1,391.7,263.7,393.7,264z M491.8,92.5c-0.5-1.3-2.1,0.4-1.4,1.6C491.3,94.1,491.7,93.4,491.8,92.5z
			 M458.3,99.6c2.3-0.5,0-5-1.7-4.5C454.3,95.8,456.7,99.9,458.3,99.6z M447.6,121.8c0.7-6-3.2-6.4-3.9-10.7
			c0.3,0.1,0.2-0.5,0.4-0.5c0.9-0.5,2.4,0.9,2.9-0.5c0-2-2.1-3.6-4.3-2.6c-0.6-0.5-0.7-1.7-0.9-2.8c-1.6-1.2-5.7-3.7-5.6-6
			c0-1.9,2.1-3,4.5-2.9c1-0.9,0.4-3.7-0.6-4.3c-3.7-1-5.7-0.3-8.1,1.7c-1.1,1-2.4,1.7-3,2.2c-0.6,0.5-1.4,2-1.3,2.8
			c0.1,1.1,1.4,1.7,1.9,3.1c0.3,0.7,0.2,1.6,0.4,2.2c0.6,1.7,2.2,2.7,3.4,4.1c0.9,1,3.3,3.1,3.3,4.3c0,1-0.7,1.2-1,2.2
			c-0.3,1-0.6,3.4-0.4,4.3c0.3,1.9,1.9,2,3.4,2.8c1.5,0.8,2.9,2.2,4.5,2.2C445,123.6,446.7,123,447.6,121.8z M413.9,109.4
			c3.9-0.8,2.1-4.8,0.1-6.2c-1.5-1.1-3.3-2-5-3.3c-1-0.7-4.9-2.1-4.9-3.6c0-1.6,2.9-2.2,1.7-5c-2-0.6-6.6,0.3-6.3,2.9
			c0.2,1.5,1.7,0.7,2,2.2c-1.4,0.6-3.1,2.2-4.6,1.9c-1.8-0.3-2.2-2.9-3.2-4.5c-1.4,0.1-2.3-1.6-3.9-1.4c-1.7,0.2-2.6,3.2-3.5,4.7
			c-0.5,0.8-1.2,1.2-1.4,1.9c-0.1,0.4,0,1.1-0.1,1.7c-0.5,1.9-1.9,2.6-1.7,4.3c0.1,1.5,1.5,2.2,1.6,3.5c-0.1,1.3-1.9,0.6-1.7,2.2
			c2.6,2.6,2.7-1.2,4-1.7c1.1-0.4,3.1,0.3,4.5,0c1.1-0.3,1.9-1.5,3.2-2.1c0.8-0.3,1.7-0.6,2.7-0.7c4.6-0.2,7.5,3.3,11.5,3.5
			C410.1,109.8,412.5,109.7,413.9,109.4z M404.7,129.8c0.1-1.9-0.6-3.2-0.7-5.9c-2.7-1.9-4.6,1.8-7.3,1.4c-1.7-0.2-2.8-2.6-4.6-2.2
			c-1,0.2-1.4,1.7-2.4,1.9c-2.1,0.5-3-2-5.2-1c-3.1-2.8-4.5-7.4-5.2-12.6c-1.7-2.6-4.2-0.5-5.5,1.2c-0.8,0-1.7-0.5-1.9,0.5
			c-0.6,3.2,3.8,3.5,3.7,5.7c0,1.4-1.7,1.3-2.4,2.2c-0.8,1-0.3,1.9-1.3,2.6c-2.8,0.4-3.8-1.5-3.7-4.5c-1.2-2.2-2.8-3.9-3.9-5.7
			c-0.4-0.7-1-1.7-1.2-2.8c-0.1-0.8,0.3-1.8,0.1-2.8c-0.3-1.6-2.9-2.9-4.5-3.8c-1.7-1-3.8-1.9-5-3.1c-0.9-0.9-1.3-2.4-2-2.9
			c-0.6-0.5-1.4-0.4-2-0.9c-0.8-0.7-0.7-1.8-1.7-2.1c-0.5-0.2-1.4,0.6-1.7,1.2c-0.7,3.8,1.9,4,3,5.7c0.8,1.1,1.2,2.9,2,3.6
			c0.9,0.8,2,0.7,3.2,1.2c0.8,0.4,1.3,1.5,2,2.1c1.4,1,3.6,1.2,3.7,3.1c-0.9,0.7-2.8-1-3.4,0.7c-0.2,1.1,0.7,1.7,0.7,2.8
			c0,1.7-1.6,3.6-3,3.3c-0.1-1,0.8-1.8,0.7-2.9c-0.1-2.2-3.7-5.6-5.6-6.6c-0.9-0.5-1.9-0.5-2.7-1c-1.4-1-3.9-3.3-4.7-4.7
			c-1-1.6-1.9-4.7-4.2-4.5c-0.9,0.1-1.7,1.1-2.4,1.6c-0.7,0.4-1.5,0.8-2.2,1.4c-0.8,0.7-1.5,1.3-2.3,1.4c-1.8,0.1-3.3-1.6-4.9-1.2
			c-0.5,0.1-1,0.7-1.6,1.4c0,1,0.3,1.7,0.1,2.8c-0.5,1-1.9,0.9-2.9,1.6c-1.5,0.9-2.8,2.9-4,4.3c-0.8,0.9-1.5,1.7-1.6,2.4
			c-0.1,0.6,0.4,1.7,0.3,2.4c-0.1,0.8-1.4,2.6-2.3,3.3c-0.5,0.4-1.2,0.5-1.7,0.9c-1.1,0.8-1.6,1.9-2.6,2.1c-2.5,0.6-7.1-0.6-7,2.6
			c0,2.1,2.4,2.1,3.9,2.1c2-0.1,3.8,0.5,4.9,0.2c0.8-0.2,1.6-1.3,2.4-1.7c0.5-0.3,1-0.3,1.4-0.5c0.9-0.5,1.3-1.4,2-1.7
			c1.3-0.7,3.8-1.3,5.2-1.4c1.9-0.1,4,0.2,6.5,0c0.9-0.1,1.8-0.8,2.7-0.9c1.6-0.1,3.6,0.7,4.9,0.7c0.9,0,1.9-1.1,2.9-1
			c1.2,0,2.4,1,2.6,1.9c0.1,0.5-0.2,1.3-0.1,2.1c0.2,1.3,1.1,1.8,1,2.6c-0.1,1.1-2.3,2.5-2,3.8c0.2,0.8,1.8,1.7,2.6,2.2
			c0.8,0.6,2.2,1.4,3.2,1.6c0.8,0.1,1.5-0.3,2.3-0.2c1.2,0.2,3.2,1.1,4,1.7c1.4,1.1,1.2,3,2.7,3.6c0.7,0.3,1.9,0.1,2.7,0.3
			c2.1,0.5,3.6,2.6,5.2,2.4c2.4-0.3,1.3-3.1,1.6-5c0.6-4.4,7.8-4.2,9.2-1.2c1,0.3,2,0.1,3.2,0.5c0.7,0.3,1.2,1.2,1.9,1.4
			c0.5,0.2,1.2-0.1,1.9,0c2.8,0.4,5.3,2.8,7.6,2.4c1.5-0.3,2.6-2,4-2.1c2.8-0.2,4.5,2.5,7.5,1.2c2.2-0.9,1.7-3.6,2.4-6.4
			C403.6,132.5,404.6,131.2,404.7,129.8z M559.6,70.9c0.6-2.2-0.3-4.4-1.4-5.9c-1.7,0.3-0.5,2.4-0.6,3.6c-0.2,1.7-1.7,2.9-1.6,4.7
			c-0.6,0.8-1.5,1.1-1.6,2.4c0.9,0.8,1.3-0.6,2-1.4C557.6,73.1,559.2,72.4,559.6,70.9z M522,11c-1.6,0-2.2,0.8-3.2,1.4
			c-0.5,0.3-1.6,0.5-1.3,1.6C518.9,13.7,521.6,12.9,522,11z M461.3,32.2c3.4,0.9,5-3.6,2.7-6.2c-0.5-0.6-2.3-0.8-3-2.2
			c-0.9-1.7-0.8-3.9-2.9-3.5c0,0.2,0,0.5-0.1,0.5c-0.2,3.8,4.4,4.7,4.3,7.8C462.3,30.2,460.9,30.3,461.3,32.2z"/>
		<path class="st0" d="M414,25.6c-0.4-1.9,2.5-1.6,2,0.2C415.6,26.3,414.3,26.3,414,25.6z"/>
		<path class="st0" d="M396.3,128.9c0.1-1.4,2.8-1.9,3.3-0.7C399.4,129.6,396.9,130.6,396.3,128.9z"/>
		<path class="st0" d="M347,119.6c1.5-1.5,4.8-0.5,6.9-0.5c-0.4,1.3-0.4,3-1.3,3.8C350.3,122.4,348.1,121.7,347,119.6z"/>
		<path class="st0" d="M336.5,110.4c2-2.5,4-1.2,3.3,3.6c-0.5,1.4-2.5,3.3-3.5,1.2C336.7,113.6,336.6,112.4,336.5,110.4z"/>
		<path class="st0" d="M339.4,104.9c0.2,1.5-0.3,2.1-1,2.6C336.5,107.1,337.9,103,339.4,104.9z"/>
		<path class="st0" d="M311.5,69.9c0.2-1-0.5-2.2-1.3-2.8c-0.5-0.3-1.2-0.2-1.7-0.5c-1.4-0.9-1.9-2.9-2.7-3.3c0.1-1.9-0.4-3.3,0-4.5
			c0.3-0.7,2.1-2.9,3.2-3.3c1.3-0.5,2.6-0.1,3.3-1.2c0.3-0.1,0.6,0,0.7,0.2c0,1.1-0.8,1.3-0.9,2.2c0.2,1.6,2.5,0.6,2.7,2.1
			c-0.2,1.6-1.4,1.9-1.4,3.1c0,1,1.7,3,2.6,4.3c0.6,1,1.7,1.7,2.3,2.8c0.5,0.9,0.6,2,1,2.4c0.8,0.9,2.5,1,2.6,2.2
			c0.2,1.6-1.7,2.3-1.4,4.1c-2,1.9-5.3,0.9-8.5,1.4c-1.5,0.2-3.1,2-4.6,0.5c-0.4-1.2,1.3-1.3,1.4-2.4c-0.1-1-1.2-0.9-1.4-1.7
			c0.4-1.3,1.7-1.6,1.6-3.6C309.7,70.9,311.3,71.3,311.5,69.9z"/>
		<path class="st0" d="M300.7,65.7c1.9-1.4,5.3-0.3,5.5,1.4c0.1,1.3-1,1.5-1.4,2.9c-0.4,1.3,0.1,2.9-0.4,3.8c-0.4,0.8-1.6,0.7-2.4,1
			c-1.8,0.6-5.3,3.2-6.8,0.3c0.2-1.5,1.4-1.8,1.9-3.1c0-1-0.9-1.5-0.7-2.6c0.2-1.3,1-0.9,2.2-1.4C299.3,67.7,299.6,66.5,300.7,65.7z
			"/>
		<path class="st0" d="M202.5,28.2c0.3,1.5-3.8,3.5-4.2,1.6C198.1,28.2,201.5,26.2,202.5,28.2z"/>
		<path class="st0" d="M197.8,417.5c-0.7,0-1.4,0-2.2,0C196,417.3,197.4,417.3,197.8,417.5z"/>
		<path class="st0" d="M191.3,16c0.2-0.2,0.7-0.2,0.9,0c-0.1,0.4-0.3,0.8-0.9,0.7C191.3,16.4,191.3,16.2,191.3,16z"/>
		<path class="st0" d="M178.5,43.4c0,1-2.9,2.5-3.2,0.7c-0.1-0.3,0-1,0.6-1.4C176.7,42.2,178.5,42.5,178.5,43.4z"/>
		<path class="st0" d="M118.7,203.9c-0.1,0.3-0.2,0.4-0.3,0.7C116.9,204.5,118.3,202.2,118.7,203.9z"/>
		<path class="st0" d="M60.4,83.2c1-0.7,2,1.1,1.3,1.9C60.6,85.3,60.3,83.8,60.4,83.2z"/>
		<path class="st0" d="M217.1,89.5c-0.7-0.2-1.6-0.2-2.4-0.3c-0.7-0.2-1.6-0.4-2.3-0.5c-1.8-0.3-3.7,0.4-4.7-0.9
			c1.7-2.7,4-5.4,6.2-7.8c0.7-0.7,2.1-1.2,1.7-2.6c-1.2-1.3-2.7,0.1-3.9,0.9c-1.2,0.8-2.7,2-4,2.2c-2.4,0.4-5.5-0.8-7.5,0.7
			c-0.3,1.3,2.2,0.8,1.9,2.8c-1,0.2-1.9,0.3-2.6-0.5c-0.7-0.7-0.3-1.8-0.7-2.2c-0.7-0.7-3.5-0.9-4.7-0.7c-1.5,0.3-2.8,1.4-3,2.9
			c1.8,1,4.8-1.1,5.5,1.6c-1,2.2-3.3,3.3-3,6.2c0.1,1.1,1.2,2.6,2,2.8c0.8,0.2,1.2-0.8,2-0.7c0.8,0.1,0.6,1.2,1.6,1
			c1.4-0.7,2.1-3,3.7-2.9c1.9,2.8-1.7,4.1-3.7,5c-2.3,1-5.3,1.5-7,2.4c-0.9,0.5-4.4,4.5-4.9,1.4c-0.4-2.3,1.7-1.6,2.2-3.5
			c-2.2-0.5-4.3,1.2-6.3,2.1c-2.9,1.3-7.8,2.1-8.5,6c-0.1,0.8,0.3,2.2-0.1,2.8c-0.3,0.4-2.4,0.5-3.3,0.9c-1.4,0.6-2.6,1.8-3.5,2.1
			c-0.6,0.2-1.6,0.2-2,0.3c-1.1,0.5-1.6,2.4-2.9,3.6c-0.5,0.5-1.7,0.9-2.2,1.4c-0.7,0.9-0.8,3.1-2.2,3.5c-0.8,0.1-1.5-0.8-2.3-0.2
			c-0.1,2.2,0.6,5.2-0.1,7.4c-1.7,1.7-3.6,2.8-5.7,4.3c-1.2,0.8-2.3,1-3.7,1.9c-1,0.6-2,2.1-3.2,2.9c-2.7,1.9-6.1,4.2-6,9.2
			c0,1.1,0.5,2.2,0.6,3.5c0.1,0.7-0.1,1.4,0,2.2c0.2,1.8,1.3,4.1,0,5.4c-1.9-1-4.4-1.3-5.8-2.9c-0.4-1.7,0.7-3.1,0.6-4.7
			c-0.1-1.2-1.6-3.5-2.4-3.6c-0.9-0.2-1.7,1-2.6,0.9c-1.1-0.1-2.1-1.9-3.5-2.1c-2-0.3-3.5,0.6-5.7,0.2c-2.2,1.4-2.8,3.9-5.5,3.6
			c-0.9-0.1-1.8-0.9-2.9-1.2c-1.2-0.3-3-0.8-4.2-0.7c-2.4,0.2-4.2,2.3-6.3,3.6c-1.9,1.2-4.5,2.6-5,5c-0.3,1.3,0,3.1-0.4,4.3
			c-0.3,0.8-0.8,1.5-1.2,2.2c-1.6,3.5-2.9,8.2-1.7,13.3c0.2,0.8,1.8,5,2.4,5.9c0.7,1,2.9,2.4,4.2,2.4c1.1,0,2.3-0.6,3.3-0.9
			c1.2-0.3,2.7-0.3,3.7-0.7c3.1-1.2,2.5-6.2,5.6-7.9c1.4-0.7,2.9-0.9,5.3-1c0.8,0.8,1.1,2.1,1,3.3c-0.1,0.9-0.8,1.7-1.2,2.9
			c-0.3,1.1-0.4,2.4-0.7,3.3c-0.4,1.2-1.4,2-1.7,3.1c-0.2,0.7-0.1,1.6-0.3,2.2c-0.3,1.1-1.6,1.9-1,3.1c3.1,1.5,6.8-0.4,9.5,0.2
			c1.1,0.2,3.5,1.9,3.4,4c0,1.6-1,2.6-1.2,4.3c-0.2,2.2-0.9,4.8-1,6.6c-0.1,2.9,3.5,7.8,6,7.8c2.7,0,4.3-3.3,7.6-1.6
			c1.1,0.6,2.2,2.7,3.5,2.6c1-0.1,2.5-2.2,3.2-3.6c0.8-1.8,0.9-3.3,2.3-4.1c1.5-1,2.8-0.5,4.7-1.4c0.9-0.4,1.6-1.1,2.4-1.7
			c0.7-0.6,1.4-2.1,2.3-1c1.1,1.4-1.4,2.2-0.4,3.6c2,1.3,3-2.4,4.5-2.4c0.5,0,2.1,1.1,2.9,1.7c1.1,0.9,1.5,2.1,2.7,2.4
			c0.8,0.2,2.1-0.4,3.2-0.2c1.5,0.3,2.3,1.8,3.5,1.7c1.4,0,2-1.8,3.2-2.1c2.5-0.6,3.5,0.3,4.6,2.2c1.3,0.3,1.3-1.7,2.4-1
			c-0.6,1.5,0.2,2.2,0.7,3.5c0.3,0.8,0.3,1.4,0.6,1.7c0.7,0.8,2,0.8,3,1.6c1.1,0.8,1.7,2.3,2.9,4c1.3,1.7,3.4,3.5,5,3.6
			c1.6,0.1,2.9-0.5,4.2-0.3c3,0.4,4.8,2.2,6.9,4.1c1.2,1.1,2.2,1.8,2.6,3.1c0.3,0.9,0.1,2.1,0.4,3.1c0.6,2.1,3.2,3.2,2.3,6.9
			c0.4,1.1,1.4,1.5,2.4,2.2c0.8,0.6,1.5,1.9,2.4,2.1c0.6,0.1,1.2-0.2,1.7-0.2c1.6,0.1,2.8,0.9,4.2,1.6c0.9,0.4,2,0.6,2.6,1
			c0.7,0.6,0.8,2.6,1.7,3.1c0.6,0.3,1.9-0.1,2.9,0c1.5,0.2,3.6,1.4,5,1.4c0.8,0,1.5-0.4,2.3-0.3c3.5,0.3,5.5,5.4,8.9,6.9
			c1.1,0.5,2.7,0.1,3.4,0.5c1.3,0.7,2.3,5.3,2.4,7.4c0.3,6.3-3.7,8.3-6,12.4c-0.5,0.9-0.8,2.2-1.4,3.5c-1.4,2.4-2.9,2.9-2.7,7.4
			c0.1,1.2,0.6,2.4,0.6,3.8c0,1.7-0.1,3.9-0.4,5.4c-0.2,1.1-1,2.1-1.2,3.1c-0.1,1.1,0.3,1.9,0.1,2.8c-0.1,1-1,2.4-1.6,3.8
			c-1.3,2.9-1.6,6.4-4.3,7.6c-1.6,0.7-3.7,0.3-5.5,1c-0.7,0.3-1.6,1.1-2.4,1.6c-2.5,1.4-6.1,3.3-6.8,6.4c-0.6,2.8,0.9,5,0.4,8.1
			c-0.4,0.9-1,1.9-1.7,2.9c-0.6,1-0.9,2.1-1.6,3.1c-0.9,1.3-2.2,1.9-2.7,3.6c-0.2,0.6-0.1,1.3-0.3,2.2c-0.1,0.3-0.6,0.9-0.9,1.6
			c-0.2,0.6-0.2,1.4-0.4,1.9c-0.7,1.6-2.6,5.2-4,5.7c-3,1-6.1-1.5-8.2-1c0.3,1.7,1.3,1.6,2,2.8c0.4,0.7,0.6,1.7,1.1,2.4
			c0.6,0.9,1.2,1.2,1.3,2.2c0.2,2.1-1.2,4.3-2.2,5c-0.9,0.7-2.6,1.1-4.2,1.4c-1.1,0.2-3.8,0.2-4.3,1c-0.7,1.2,0.4,4.2-0.1,5.4
			c-1.1,2.5-4-0.1-5.5,0.7c-0.1,1.3,0.3,2.7,1.2,3.3c0.9,0.6,2.3-0.2,2.9,1c-0.3,1.7-1.8,1.9-2.2,3.6c0,1.6,0.5,2.1,0.3,3.1
			c-0.4,2.2-3.2,2.1-3.2,4.5c0.1,3.5,5.6,2.1,5.8,5.5c0.1,2.1-1.6,2.1-2.2,4.1c-0.3,1.1,0.2,1.3,0,2.2c-0.2,1.2-1.4,1.6-1.4,2.9
			c0,1.7,2,3.5,3,4.8c1,1.3,2.2,3.2,3.6,4.1c2,1.3,5,1,5.9,3.5c-0.3,1.5-1.4,1.8-2.6,2.2c-0.1,0-0.2,0-0.3,0c-0.4-0.3-1.8-0.3-2.2,0
			c-0.7,0-1.3,0-2,0c-1.9-1.1-4.3-1.8-6.6-2.8c-0.8-0.4-1.8-1.2-2.7-1.7c-0.7-0.4-1.5-0.5-2-0.9c-1.2-0.8-2.6-3.3-3.9-4.3
			c-0.8-0.6-1.9-0.9-2.4-1.6c-0.5-0.6-0.7-1.9-1.2-2.6c-0.5-0.8-1.3-1.4-1.9-2.2c-1.2-1.9-2.7-4.5-2.7-5.9c0-1.4,1.1-2.3,0.7-3.6
			c-0.4-1.2-2.6-1-2.9-2.4c-0.2-0.9,0.6-2.4,0.6-3.6c0-0.7-1.2-1.7-0.7-2.8c0.5-1.2,1.5,0.1,2.3-0.5c-0.6-2.5,0-6.5-2-7.3
			c-1.1,1.1,1.1,3.5-0.7,4.1c-1.7-0.9-1.3-3.7-1.7-5.7c-0.3-1.3-0.8-2.5-0.9-4c0-0.8,0.2-1.6,0.1-2.4c-0.3-2.3-2.5-4.2-2.6-6.6
			c-0.1-1.1,0.6-2.1,0.7-3.3c0.1-0.8-0.1-1.7,0-2.6c0.1-1.1,0.6-2.1,0.7-3.1c0.2-1.9,0-5.2-0.3-6.7c-0.4-2-1.7-3.7-1.9-5.9
			c-0.1-0.8,0.2-2.1,0.1-3.1c-0.1-0.9-0.5-1.9-0.6-2.9c-0.1-1,0.2-1.9,0.3-3.1c0.2-2.2-0.4-4.6-0.3-6.7c0-0.6,0.3-1.1,0.3-1.7
			c0-1.8-0.5-3.6-0.6-5.4c-0.1-3.3,0.3-5.6-0.1-8.6c-0.3-2.3-0.7-5.8-1.4-7.3c-0.8-1.6-3.8-4.3-5.3-5.4c-1-0.7-2.2-0.9-3.3-1.6
			c-2.3-1.4-6.9-4.3-7.9-7.1c-0.3-0.8-0.3-1.9-0.6-2.8c-0.6-1.8-1.9-3.3-2.9-5c-1.8-3.3-3.2-7.3-5-10.7c-0.9-1.7-1.7-3.6-2.7-5
			c-0.6-0.8-2.5-1.6-2.7-2.8c-0.3-1.6-1.3-3.8-1.2-5c0.2-1.7,2.9-3,2.9-4.5c0-1.3-1.4-2-1.7-3.1c-0.7-2.6,0.4-4.2,1.3-6.4
			c0.3-0.7,0.6-1.9,0.9-2.4c0.5-1,1.6-1.2,2.3-2.2c0.4-0.6,0.6-1.8,1.2-2.6c1.1-1.7,2.9-2.4,3.3-4c0.4-1.3,0.6-7.7,0.1-9.8
			c-0.3-1.2-1.2-2.3-1.6-3.5c-0.6-2.1-0.8-4.4-2.6-4.3c-1.1,0-1.9,1.5-2.6,2.4c-0.2,1.2-0.1,2.6-1.2,2.9c-1.6,0.6-2.3-2.1-4.2-2.8
			c-0.8-0.3-2-0.3-2.4-0.5c-1.4-0.8-1.8-3.2-3.3-4.1c-1.2-0.8-2.3-0.5-3-1.7c-0.3-0.8-0.1-2.3-0.1-3.5c-1.6-1.1-2.9-5.2-4.7-6.2
			c-1.2-0.6-3.1-0.6-4.6-1.2c-0.7-0.3-1.3-0.7-2-0.9c-0.9-0.2-1.9-0.3-2.6-0.7c-2.8-1.7-4.4-7.2-7.9-7.1c-1.5,0-3,1.7-4.3,1.7
			c-1.4,0-3.6-1.3-5.3-2.2c-1.8-1-3.7-1.5-5.2-2.4c-1.2-0.7-2-2-3-2.6c-0.8-0.4-1.9-0.5-2.6-0.9c-0.9-0.5-1.9-1.6-3-2.6
			c-1.1-0.9-2.3-2.3-2.3-3.4c0-1.4,1-2.5,1.2-3.8c0.4-4.1-2.2-7.1-3.7-9.5c-1.2-1.8-2.6-3.3-3.7-5c0.1-1.1,0.1-1.3,0-2.4
			c-0.9-1-1.6-2.6-2.6-4.1c-0.9-1.4-2.5-2.9-2.7-4.5c-0.3-1.9,0.6-3.6,0-5.5c-1-3.1-4.6-1.7-4.2,2.4c0.1,1.1,1.5,2.7,1.9,3.8
			c0.4,1.2,0.3,2.6,0.7,4c0.4,1.3,1.5,2.5,1.9,4c0.6,2.4,0.6,4.9,1.2,6.4c0.5,1.3,2.3,2.6,1.3,4.1c-1.4,0.3-1.9-1.3-2.7-2.2
			c-0.5-0.5-2.2-1.5-2.4-2.8c-0.2-1,0.5-2.4,0.3-3.6c-0.5-2.4-4.6-2.5-4.6-5c0-1.6,1.7-1.8,1.7-3.3c0-1.7-1.9-3.1-2.3-4.5
			c-0.4-1.3-0.4-3.4-0.6-5.2c-0.1-1.7,0-3.7-0.3-5c-0.3-1.2-1.8-2.8-2.7-3.5c-1.3-0.8-2.3-0.5-2.9-1.7c-0.5-1.1-0.9-3.3-1-4.5
			c-0.2-2.1,0-4.3-0.1-6.6c-0.1-2.2-0.3-4.3,0-6.7c0.7-1.7,2-2.5,2.7-4.1c0.5-1.2,0.6-2.6,1.1-3.8c1.1-2.3,3.3-4.3,4.9-6.6
			c1.7-2.4,3.2-4.7,4.2-7.4c0.3-1,1.3-3.1,1.2-4.3c-0.2-1.7-2.8-3-2.6-5c0.1-1.2,1.6-1.2,2-2.4c0.2-0.6,0.4-2.4,0.4-3.1
			c0-1.7-0.7-3.4-0.4-5.2c0.2-1.5,2.1-2.1,1.2-3.8c-1-1.6-2.7,0.9-3.7-0.2c-1-1,0.2-2.2,0.3-4c0-0.7-0.3-1.5-0.3-2.1
			c0.1-0.8,1.3-2.1,1-2.6c-0.8-1.2-1.6-4.2-3.3-5.2c-2.1-1.3-4.4-0.4-7.3-1c-1.8-0.4-2.7-2.4-4.3-2.2c-1,0.1-1.6,1.5-3,2.2
			c-1.4,0.7-3.2,0.5-4.6,0.9c-1.4,0.4-2,1.5-3.5,1.4c-1.2-0.1-1.2-1.4-2.6-1.6c-0.5-0.1-1.6,0.4-2.4,0.5c-2.2,0.3-6.2,0.4-8.5-0.2
			c-2.1-0.5-3.3-1.3-5.6-2.6c-1.7-1-4.9-2.1-4.7-3.6c0.1-1,3-2,4.2-2.4c1.9-0.7,3-1.8,4.5-1.9c0.6,0,1.3,0.4,2,0.3
			c0.7-0.1,1.6-0.9,2.6-1c2-0.3,4.8,0.1,4.6-2.2c-1.5-1.4-7.7,1.1-7.9-2.1c-0.1-1.9,2.4-2.5,4.2-2.9c1.6-0.4,4.1-1.1,5.6-1
			c1.6,0.1,3.8,2.3,4.7-0.2c0.5-1.8-0.6-3.2-0.9-4.7c1.2-2,3.5-1.8,5.2-2.1c2-0.3,3.5-0.8,5.5-1.7c1.7-0.8,3.5-1.4,5.5-1.7
			c2-0.3,3.8-1.2,5.6-1.4c1.4-0.2,2.8,0,4.2-0.3c1.2-0.3,2.5-1.1,3.9-1c0.9,0,1.7,0.8,2.6,1c0.9,0.2,1.8-0.1,2.7,0.2
			c0.7,0.2,1.3,0.7,2,0.9c1.1,0.2,2.3-0.2,3.3,0c1,0.2,1.8,0.9,2.7,1c2.2,0.3,4.7-0.1,6.9,0.3c0.8,0.2,1.6,0.7,2.4,0.9
			c0.8,0.2,1.8,0,2.6,0.2c1.1,0.3,2.1,1.6,3.3,1.7c2.2,0.3,4.7-1.2,7-1.4c1.7-0.2,3.4,0.1,5.2-0.3c1.6-0.4,3.2-1.1,4.6-1.2
			c0.8,0,1.4,0.3,2.2,0.2c0.7-0.1,1.6-1.2,2.4-1c1.1,0.2,0.9,1.8,2,2.2c1.3-0.8,2.5,0.1,3.9,0c1.3-0.1,2.5-0.8,4-0.5
			c2.6,0.5,6.3,3.6,8.3,1.9c0.5-0.4,0.4-1.2,0.9-2.2c0.6-1.5,1.9-3.2,1.6-5.4c-2.9,0.1-5.6,1.7-8.9,1.9c-3.3-2.5,0.9-4,3.3-5.2
			c2-0.9,3.6-3,6-3.5c2-0.3,4.2,0.5,6.6,0.9c1.4,0.2,2.8-0.1,3.6,0.2c1.4,0.5,2.1,2.2,3.3,2.6c0.5,0.2,1.3,0.2,2,0.3
			c1.3,0.4,2.4,1.2,3.7,0c1,0.2,1.1,1.5,2.2,1.7c1-0.6,1.7-2.2,3.2-2.6c0.6-0.2,1.3,0.1,2,0c1.2-0.2,2.7-2.1,3.5-0.3
			c-0.3,1.2-1.9,1.4-2.7,2.4c-0.8,0.9-2,2.9-1.9,3.8c0.2,1.6,2.2,1,2.3,3.1c-0.3,1.2-1.5,0.7-2.4,1.2c-0.9,0.5-1.2,1.5-2.2,1.7
			c-2.6,0.6-4.8-0.8-7-0.7c-0.1,1.2,1.1,1.9,1.7,2.2c2.1,1.3,3.7,1.1,6.6,1c1.5,0,3.2,0.5,4.5-0.5c0.8-0.7,0.8-2.1,1.4-2.9
			c0.8-1,2.7-2,3.9-1.7c0.7,0.1,1.6,1.1,1.6,1.7c0,1.6-1.8,1.1-1.9,2.8c1.2,0.9,4.4-1,4.6-2.4c0.1-1.1-1-1.7-1-2.8
			c0.1-1.8,2.1-1.8,1.9-3.6c-1-0.9-2,0.2-3,0c-1.4-0.3-2.7-2.3-3.3-3.6c0.6-0.9,1.9-0.3,2.9-0.2c1.1-1.8,3-2.4,5.8-2.8
			c1-0.1,2.3-0.6,2.7,0.5c0.2,1.6-2,2.6-1.6,4.5c1.9,0.6,2.6-2.6,4.2-3.8c0.7-0.5,1.7-0.9,2.7-1.4c0.9-0.4,1.9-1.4,2.6-1.4
			c0.8,0,0.9,0.8,1.7,1.2c0.7,0.4,1.6-0.2,1.9,0.9c-1.7,3.5-7.9,1.5-9.5,5c0.4,2.4-1,4.6,0.1,6.2c0.8,1.1,2.6,0.4,3,1.6
			c0.6,1.6-1.7,1.6-1.1,3.5c1.5,1.1,3.3-1,4.7-1.9c1.5-0.9,3.4-2,3.6-4.1c-0.8-1.8-3.6-0.4-4-2.2c-0.2-1,0.9-3.2,1.1-3.6
			c1.5-2,6.7-4.9,10.5-4.5c0.7,0.1,1.4,0.6,2.2,0.7c2.5,0.3,5.4-1.3,7.3,0c1.6-1.1,3.4,0.1,5.6-0.2c1.7,1.2,1.2,3.7,3.7,4.8
			c0.7,0.3,1.5,0.1,2.4,0.3c0.7,0.2,1.4,1.1,2.2,1.6c1.1,0.6,1.9,0.5,2.2,1.4c0.2,0.9-0.8,1.5-0.7,2.4c0.6,0.6,0.1,1.5,0.4,2.4
			c0.6,1.6,2.2,1.5,3.7,2.2c1.1,0.5,3.4,2.2,3.3,3.5c-0.1,0.9-2.2,2.4-2.9,2.8c-0.5,0.3-2.9,1.7-3.7,1.6c-1.4-0.2-1.9-3.5-3.7-3.5
			c-0.8,0-1.6,0.6-1.6,1.9c0,2.3,2.1,2.4,2.2,4.3c0.1,2.3-1.1,2.5-2.7,4c-1.2-0.6-2.2-1.4-3.7-1.6c-0.9,1.3,1.5,1.8,0.7,3.5
			c-2.3,0.6-4.1-0.8-6.2-1.6c-0.7-0.2-1.6-0.1-2.2-0.5c-0.8-0.6-1.1-2.2-1.7-3.1c-0.8-1-2.3-2.4-3.6-2.4c-1.8,0-4.3,2.7-5.7,0.2
			c1-4,5.6-1,8.6-2.4c1.1-0.5,1.5-2,2.4-2.6c1.9-1.3,4.9-1.5,4.6-4c-0.1-1.3-1.6-1.3-2.4-1.9c-1.1-0.9-2-4-3.6-4.1
			c-0.8-0.1-1.4,0.8-2.3,0.9c-1.9,0.2-3.9-0.9-5.6,0c-0.8,0.5-0.3,1.4-0.9,2.4c-0.5,0.8-1.7,1.1-2.2,1.9c-0.6,1-0.4,2.2-1.2,2.9
			c-1.2,1.3-3.7,1.5-5.2,2.1c-0.7,0.3-1.5,1.2-2.2,1.2c-1.2,0-1.7-1.9-3-1.2c-0.1,1.8,1.6,2.6,2.7,3.5c1.2,0.9,2.5,1.8,2.9,3.5
			c-1.2,3-3-0.2-4.9-0.2c-2,0-5,4.7-6.8,0.9c0.4-2,2.3-2.3,2.7-4.3c-2,0.4-3.8,2.5-6.2,3.1c-1,0.3-2,0.2-2.9,0.5
			c-1.7,0.6-2.9,2.1-4.7,2.9c-0.7,0.3-1.6,0.2-2.3,0.5c-1.7,0.7-3.8,1.9-5.6,3.1c-1.8,1.2-3.9,2.4-5,3.6c-0.6,0.6-2.2,2.9-2.2,3.6
			c0.1,1,1.7,1.4,1.7,2.4c0,0.6-0.9,2-0.3,2.9c0.6,0.8,1.8,0.2,3,0.3c2.2,0.3,3.6,2.5,5.3,3.6c1.3,0.8,3.2,1.9,4.6,2.1
			c2,0.3,4.2-0.7,4.5,1.2c0.3,1.8-1.9,2.5-2,3.6c1.1,1.7-0.7,2.5-0.7,4c0,1.2,1.2,3,2.3,3.1c1.4,0.1,3.6-1.7,4.2-3.5
			c0.7-2.1,0.4-4.9,1.7-6.4c6.7,0.2,12.4-3.7,11.9-11.9c0-0.8-0.4-1.9-0.3-2.8c0.2-1.3,2.1-2.5,1.9-4.1c1.9-0.7,1.8-4.3,3.7-4.8
			c1.6-0.4,3.5,1.4,5.6,1.2c0.7-0.1,1.6-0.8,2.3-0.7c1.4,0.2,2.3,2.3,3.3,3.3c0.9,0.9,1.9,0.6,2.2,1.7c-0.3,1.9-1.4,2-1.3,3.8
			c0.1,1.6,1.5,2.8,2.2,2.9c1,0.2,2.5-0.4,3.6-1c1.9-1.1,3.6-4.4,5.2-4c1.3,0.3,2.3,5.2,2.4,6.9c0.2,1.9-0.2,3.3-0.1,5
			c0.2,2.9,3.2,2.6,4.7,4.1c0.5,0.5,0.6,1.6,1,2.2c0.7,1.2,1.6,1.2,1.7,2.4c0.3,3-2.3,3.2-2,6.6c-0.5,1.3-1.8,1.2-1.7,2.9
			c0.2,2.7,3.4,0.6,4.3,2.8c0.5,1.1-0.1,2-0.4,3.6c1.1,1.6,1.1,4.1-0.9,4.1C218.6,91.4,218.3,89.9,217.1,89.5z M61.7,85.1
			c0.7-0.8-0.3-2.6-1.3-1.9C60.3,83.8,60.6,85.3,61.7,85.1z M162,100.8c-0.6-0.7-2.6-0.5-3.9-0.3c-0.9,0.1-2.1,0.4-2.2,1.2
			C157.5,102.5,161.5,103.1,162,100.8z M154.5,97.8c1.1-1.1,0.6-3.2-0.6-3.6c-0.5-0.1-1.1,0.4-1.9,0.3c-0.8-0.1-1.6-1-2.3-1
			c-1.1-0.1-2.3,0.6-2.7,1.2c0,1,0.6,1.2,0.6,2.2c-1.4,1.2-0.7,5.2,0.7,5.4c1.5,0.2,2.2-4.4,4.2-4.8C153.2,97.3,153.6,98,154.5,97.8
			z M152.5,104.7c-2-0.9-3.9,0.6-5.6,0.9c-1,0.2-2.8-0.2-2.6,1.6c0.2,1.5,2.1,0.9,3.2,0.5C149.8,106.8,151.2,106.1,152.5,104.7z
			 M146.2,91.6c2.9-1.5-0.6-6-1.9-6.4c-2.3-0.7-5.6,2.1-8.3,2.9c-1.5,0.5-3,0.5-3.3,2.1c1.4,2.7,4.1-0.6,6-0.2
			c1,0.2,1.6,1.9,2.6,2.1C142,92.3,145.9,91.8,146.2,91.6z M144.2,94.4c-0.6-0.8-3.8,0.1-4.7,0.9c-0.6,0.5-1.1,1.8-1.7,2.8
			c-0.7,1-1.4,1.7-2,2.6c-0.5,0.8-3.4,5.8-1.2,6.4c1,0.2,3-2.2,3.2-3.1c0.6-3.2,1.8-5.4,3.9-6.9C142.8,96.1,144,96.2,144.2,94.4z
			 M126.2,75c1.6-0.1,2.7-5.8,0-5C124.4,70.5,124,75.1,126.2,75z M118.5,204.6c0.1-0.3,0.2-0.4,0.3-0.7
			C118.3,202.2,116.9,204.5,118.5,204.6z M57.6,60c0-0.3-0.2-0.4-0.1-0.7c-0.4,0-0.9-0.1-0.9,0.5C56.8,60.3,57.4,60.4,57.6,60z
			 M208.7,32.9c0.7,0.1,1.1-0.2,1-1C209.1,31.3,208.2,32,208.7,32.9z M192.2,16c-0.2-0.2-0.7-0.2-0.9,0c0,0.2,0,0.5,0,0.7
			C191.9,16.8,192.1,16.4,192.2,16z M137.6,29.3c0.5-0.4,1.2-0.9,0.9-1.7c-1.6-0.9-4.3-0.2-6.6-0.5c-1.3-2.3-3.5-2.6-3.7,1
			C130.8,30.7,134.8,26.8,137.6,29.3z M111.8,47.1c0.8-0.3,1.9-0.2,2.2-1.2c-0.7-0.6-1.4-1.5-2.2-1.6c-1,0-1.5,1.1-2.6,1.7
			c-1.2,0.8-2.9,1-3,2.2C108.5,48.8,110.5,47.6,111.8,47.1z M111.1,34.6c0.9-0.2,1.9,0.3,2.4-0.7c-0.7-3.8-5.1-1.5-7.6-1.2
			c-0.5,1.1-1.3,1.9-1.4,3.5C106.5,36.8,108.9,35.1,111.1,34.6z M154.2,211.1c1.1-0.2,0.8-3.4-0.6-2.6
			C152.6,209.1,153.2,211.3,154.2,211.1z"/>
		<path class="st0" d="M57.5,59.3c0,0.3,0.2,0.4,0.1,0.7c-0.2,0.4-0.8,0.3-1-0.2C56.6,59.2,57.1,59.3,57.5,59.3z"/>
		<path class="st0" d="M53.2,69.5c-0.3,1.1-1.1,1.6-2,2.1c-0.3-0.2-0.5-0.5-0.7-0.9C50.5,69.1,52.5,67.9,53.2,69.5z"/>
	</g>
</g>
<g>
	<polygon class="st0" points="502.4,49.8 400.1,227 297.8,49.8 	"/>
	<g>
		<defs>
			<polygon id="SVGID_1_" points="502.1,48.9 461.8,118.7 450.1,99.7 432,129.5 399.8,77 367.7,132.1 348,99.7 337.3,117.8 
				297.5,48.9 			"/>
		</defs>
		<clipPath id="SVGID_2_">
			<use xlink:href="#SVGID_1_"  style="overflow:visible;"/>
		</clipPath>
		<g class="st1">
			<defs>
				
					<ellipse id="SVGID_3_" transform="matrix(0.9941 -0.1085 0.1085 0.9941 -3.5803 43.8056)" cx="400.8" cy="54.8" rx="107.7" ry="107.7"/>
			</defs>
			<clipPath id="SVGID_4_">
				<use xlink:href="#SVGID_3_"  style="overflow:visible;"/>
			</clipPath>
			
				<ellipse transform="matrix(0.9941 -0.1085 0.1085 0.9941 -3.5803 43.8056)" class="st2" cx="400.8" cy="54.8" rx="107.7" ry="107.7"/>
			<g class="st3">
				<path class="st4" d="M378,108.1c-0.4-2.2-0.7-4.2-1-6.1c-0.3-1.9-0.6-3.7-1.1-5.5c-3.9-9.9-16.9-3.7-24.8-7.1
					c-1.7-0.6-3.4-2.3-3.4-3.4c-2.8-11.9-9.6-24.3-23.4-18.8c-1.8,0.5-3.5,1.1-5.2,1.8c-15.1,6.4-25.6,21.3-25.6,38.7
					c0,1.9,0.1,3.8,0.4,5.7c0.2,5.4,2.5,11,7,12.7c12.4,5.1,19.2,14.7,29.3,22.6c1.7,1.1,3.4,0,5.2,0.9c1.9,0.1,3.8-0.1,5.7-0.3
					c4.3-1.1,8.8-1.7,13.3-2.8c11.8-2.8,36.1,2.3,35-12.4c-0.6-7.9-9-13.5-10.7-22.2C378.4,110.6,378.2,109.3,378,108.1z"/>
				<path class="st5" d="M337,139.6c-0.8-0.2-1.7-0.3-2.6-0.4c-2.3-1.9-4.4-3.9-6.7-6c-6.4-6-13-12.2-22.9-16.3
					c-0.3-0.5-0.9-1.9-1-4l0-0.5l-0.1-0.5c-0.2-1.4-0.3-2.9-0.3-4.4c0-12.9,7.7-24.4,19.5-29.4c1.3-0.5,2.6-1,3.9-1.4l0.5-0.1
					l0.5-0.2c1-0.4,2-0.6,2.7-0.6c2.5,0,5.4,4.9,7.2,11.9c0.8,5.2,5.2,9.3,9.6,10.9c3.9,1.6,7.9,1.8,11.3,1.8c0.9,0,1.8,0,2.7,0
					c0.8,0,1.5,0,2.3,0c1.4,0,2.3,0.1,2.8,0.1c0.2,0.9,0.4,1.8,0.5,2.7l0.3,1.9c0.2,1.5,0.5,3,0.7,4.6c0.2,1.4,0.5,2.8,0.8,4.1
					c1.2,6.1,4.5,10.8,7.1,14.6c1.3,1.9,2.8,4.1,3.3,5.5c-2.8,0.9-9.2,1.1-12.8,1.3c-4.9,0.2-10,0.4-14.4,1.4l-0.1,0
					c-1.9,0.5-3.9,0.8-5.9,1.2c-2.2,0.4-4.5,0.9-6.8,1.4C338.5,139.5,337.7,139.6,337,139.6z"/>
				<path class="st5" d="M338.3,129.4c-1.2-1.1-2.5-2.3-3.7-3.5c-5.7-5.3-12.1-11.3-20.9-15.9c-0.1-0.8-0.1-1.5-0.1-2.3
					c0-8.8,5.3-16.8,13.4-20.2c0.1,0,0.2-0.1,0.3-0.1c0.3,0.7,0.5,1.6,0.8,2.5c1.6,9.1,8.8,15.6,15.8,18.2
					c5.2,2.1,10.3,2.5,14.3,2.5c0,0.3,0.1,0.6,0.2,0.9c0.3,1.5,0.6,3.1,0.9,4.6c0.7,3.6,1.9,6.7,3.3,9.4c-4.2,0.2-8.5,0.5-12.6,1.5
					l-0.2,0.1c-1.6,0.4-3.4,0.8-5.4,1.1C342.4,128.5,340.4,128.9,338.3,129.4z"/>
				<path class="st5" d="M340.1,117.4c0.1,0,0.2,0.1,0.2,0.1c0.8,0.3,1.6,0.6,2.3,0.8c-0.1,0-1,0.2-1.3,0.2
					C340.9,118.2,340.5,117.8,340.1,117.4z"/>
				<path class="st6" d="M378,108.1c-0.4-2.2-0.7-4.2-1-6.1c-0.3-1.9-0.6-3.7-1.1-5.5c-3.9-9.9-16.9-3.7-24.8-7.1
					c-1.7-0.6-3.4-2.3-3.4-3.4c-2.8-11.9-9.6-24.3-23.4-18.8c-1.8,0.5-3.5,1.1-5.2,1.8c-15.1,6.4-25.6,21.3-25.6,38.7
					c0,1.9,0.1,3.8,0.4,5.7c0.2,5.4,2.5,11,7,12.7c12.4,5.1,19.2,14.7,29.3,22.6c1.7,1.1,3.4,0,5.2,0.9c1.9,0.1,3.8-0.1,5.7-0.3
					c4.3-1.1,8.8-1.7,13.3-2.8c11.8-2.8,36.1,2.3,35-12.4c-0.6-7.9-9-13.5-10.7-22.2C378.4,110.6,378.2,109.3,378,108.1z"/>
			</g>
			<g class="st3">
				<path class="st4" d="M418.8,106.4c1,2,1.9,3.8,2.7,5.5c0.8,1.7,1.7,3.3,2.7,4.9c6.7,8.3,17.2-1.4,25.8-0.6
					c1.8,0,3.9,1.2,4.2,2.2c6.2,10.5,16.3,20.3,27.9,11.1c1.6-1,3-2.1,4.4-3.2c12.5-10.5,18.2-27.9,13-44.5
					c-0.6-1.8-1.3-3.6-2.1-5.3c-1.8-5.1-5.6-9.8-10.4-10.1c-13.4-1.2-22.7-8.3-34.7-12.9c-2-0.6-3.2,1-5.3,0.7
					c-1.8,0.5-3.6,1.2-5.3,2c-3.8,2.4-7.9,4.2-11.9,6.6c-10.5,6.2-35.2,8.5-29.7,22.2c2.9,7.4,12.6,10.3,16.8,18
					C417.7,104.2,418.3,105.3,418.8,106.4z"/>
				<path class="st5" d="M472.9,123.3c-1.9,0-5.8-2.9-9.7-9.4c-2.3-4.7-7.7-7.3-12.4-7.6c-0.6-0.1-1.2-0.1-1.8-0.1
					c-4.5,0-8.5,1.3-12.1,2.5c-1.7,0.5-3.6,1.2-4.9,1.4c-0.5-0.8-0.9-1.6-1.3-2.4l-0.1-0.2c-0.3-0.6-0.6-1.2-0.9-1.9
					c-0.6-1.2-1.2-2.5-1.9-3.8c-0.6-1.2-1.3-2.4-2-3.7c-3-5.5-7.5-9-11.1-11.9c-1.8-1.4-3.9-3.1-4.8-4.3c2.4-1.7,8.4-3.8,11.9-5
					c4.6-1.6,9.4-3.3,13.3-5.6l0.1-0.1c1.7-1,3.4-2,5.3-2.9c2-1.1,4-2.1,6.1-3.4c0.7-0.3,1.4-0.6,2.1-0.8c1-0.1,1.9-0.2,2.6-0.4
					c2.7,1.1,5.4,2.4,8.2,3.8c7.9,3.8,16,7.8,26.7,8.8c0.5,0.4,1.4,1.6,2.1,3.5l0.2,0.5l0.2,0.4c0.6,1.3,1.1,2.7,1.6,4
					c3.8,12.3-0.1,25.6-9.9,33.9c-1.1,0.9-2.2,1.7-3.3,2.5l-0.5,0.3l-0.4,0.3C475.3,122.3,473.9,123.3,472.9,123.3z"/>
				<path class="st5" d="M473.4,111.3c-0.5-0.6-0.9-1.3-1.5-2.2c-4.2-8.2-13-12.3-20.5-12.8c-0.9-0.1-1.7-0.1-2.6-0.1
					c-4.5,0-8.5,0.9-11.8,1.9c-0.1-0.3-0.3-0.5-0.4-0.8c-0.7-1.3-1.4-2.7-2.2-4.1c-1.8-3.2-3.8-5.8-5.9-8.1c4-1.4,7.9-3,11.6-5.2
					l0.2-0.1c1.4-0.9,3.1-1.7,4.8-2.7c1.6-0.9,3.4-1.8,5.3-2.9c1.5,0.7,3,1.4,4.6,2.2c7,3.4,14.9,7.2,24.7,9
					c0.3,0.7,0.6,1.4,0.8,2.2c2.6,8.5-0.1,17.6-6.8,23.3C473.6,111.1,473.5,111.2,473.4,111.3z"/>
				<path class="st5" d="M452.1,86.3c-0.8-0.1-1.7-0.1-2.5-0.1c0.1,0,0.9-0.5,1.2-0.6c0.5,0.2,1,0.5,1.6,0.8
					C452.3,86.4,452.2,86.3,452.1,86.3z"/>
				<path class="st6" d="M418.8,106.4c1,2,1.9,3.8,2.7,5.5c0.8,1.7,1.7,3.3,2.7,4.9c6.7,8.3,17.2-1.4,25.8-0.6
					c1.8,0,3.9,1.2,4.2,2.2c6.2,10.5,16.3,20.3,27.9,11.1c1.6-1,3-2.1,4.4-3.2c12.5-10.5,18.2-27.9,13-44.5
					c-0.6-1.8-1.3-3.6-2.1-5.3c-1.8-5.1-5.6-9.8-10.4-10.1c-13.4-1.2-22.7-8.3-34.7-12.9c-2-0.6-3.2,1-5.3,0.7
					c-1.8,0.5-3.6,1.2-5.3,2c-3.8,2.4-7.9,4.2-11.9,6.6c-10.5,6.2-35.2,8.5-29.7,22.2c2.9,7.4,12.6,10.3,16.8,18
					C417.7,104.2,418.3,105.3,418.8,106.4z"/>
			</g>
			<g class="st3">
				<path class="st4" d="M492,7.9c-0.9,4.7-63.9,33.9-69.2,35c-1.8,0.6-3.7,1-5.5,1.3c-6.4,1.1-12.8,0.7-18.6-1
					c-2-0.6-3.9-1.3-5.7-2.1c-0.6-0.3-1.2-0.6-1.8-0.9c-2.2,4.3-5.1,8-8.5,11.2c-1.5,1.4-3.1,2.7-4.7,3.8
					c-11.6,7.1-25.1,20.1-38.1,12.7c-12.4-6.2-2.3-23.1-6.2-34.4c-0.6-1.1-2.3-2.8-4.5-3.8c-1.4-0.7-2.9-1.3-4.4-1.8
					c-6.1-2.2-12.5-4.1-12.5-11.2c0.2-1.8,0.5-3.7,0.9-5.5c0.4-1.9,0.9-3.9,1.3-6c0.2-1.2,0.5-2.4,0.7-3.8c1.5-8.7-4.3-17-2-24.6
					c4.2-14.1,25-0.6,37.1,1c4.6,0.6,9,1.7,13.4,2.2c1.8,0.4,3.7,1,5.4,1.7c1.4,1.5,3.4,1.1,4.6,2.7c2.7,4.5,4.8,9,6.9,13.5
					c3.2-1.6,6.2-3.4,8.3-5.9c0.7-1.1,1.3-3.4,1-5.9c-0.1-1.5-0.4-3.1-0.7-4.7c-1.2-6.4-2.9-12.8,3.2-16.5c1.7-0.8,3.4-1.5,5.2-2
					c1.8-0.6,3.8-1.3,5.8-2c1.2-0.4,2.3-0.9,3.6-1.4c8.2-3.1,12.4-12.4,20.1-14.3c14.3-3.6,50,14.3,51.8,18.4
					c0.6,1.8,13.1,12.2,12.3,14C484.9-11,494.9-5.2,492,7.9z"/>
				<path class="st5" d="M348,60.2c-1.2,0-2.2-0.3-3.2-0.9l-0.2-0.1l-0.2-0.1c-0.4-0.2-0.5-0.3-0.5-0.3c-0.8-1.1-0.2-6.5,0.2-9.4
					c0.7-5.9,1.4-12.6-0.9-19.1l-0.2-0.6l-0.3-0.6c-1.7-3.4-5.1-6.5-9.2-8.4c-1.8-0.9-3.7-1.6-5.3-2.2l-1.1-0.4
					c-1.5-0.5-3.6-1.3-4.7-1.9c0.1-0.9,0.3-1.8,0.5-2.7l0.1-0.3c0.1-0.7,0.3-1.4,0.5-2.2c0.3-1.2,0.6-2.5,0.8-3.9
					c0.3-1.3,0.5-2.6,0.7-4.1c1.1-6.2-0.3-11.7-1.4-16.2c-0.5-2.3-1.1-4.8-1.1-6.3c3.1,0.2,8,1.9,12.4,3.4c4.6,1.6,9.4,3.3,13.9,3.9
					l0.1,0c1.9,0.2,3.9,0.6,6,1c2.2,0.4,4.5,0.8,6.9,1.1c0.8,0.2,1.5,0.4,2.2,0.7c0.8,0.6,1.6,1,2.3,1.3c1.4,2.6,2.7,5.2,4,8
					c0.4,0.9,0.8,1.7,1.2,2.6l4.4,9l9-4.5c3.5-1.8,8-4.3,11.5-8.4l0.4-0.5l0.4-0.6c2-3.2,2.9-7.7,2.5-12.1c-0.2-2-0.5-3.9-0.8-5.6
					l-0.2-1.2c-0.3-1.6-0.7-3.8-0.8-5.1c0.8-0.3,1.7-0.7,2.5-0.9c0,0,1.5-0.5,2.1-0.7c1.3-0.4,2.7-0.9,4.1-1.4
					c1.3-0.4,2.6-1,3.9-1.5c5.8-2.3,9.9-6.3,13.2-9.5c2-1.9,4.2-4.1,5.5-4.4c0.3-0.1,0.8-0.2,2-0.2c11.7,0,34.2,10.8,39.3,14.7
					c1.2,1.8,3.1,3.7,6.1,6.5c0.8,0.8,2,1.9,3.1,3c-1.8,7,0,12.7,1.4,17.1c0.8,2.7,1.5,4.7,1.5,6.9c-10.9,7.3-55.3,28-62.1,30.1
					l-0.2,0l-0.5,0.1c-1.4,0.4-2.8,0.8-4.2,1c-1.8,0.3-3.7,0.5-5.5,0.5c-2.9,0-5.9-0.4-8.7-1.2c-1.4-0.4-2.8-0.9-4.1-1.5
					c-0.5-0.3-1-0.5-1.5-0.8l-9-4.4l-4.5,8.7c-1.7,3.2-3.8,6-6.4,8.5c-1.1,1-2.2,1.9-3.4,2.8c-2.3,1.4-4.5,3-6.8,4.5
					C359.6,55.5,352.8,60.2,348,60.2z"/>
				<g class="st7">
					<path class="st4" d="M354.2,47c0.5-5.8,0.8-12.9-1.7-20l-0.4-1.2l-0.6-1.1c-2.7-5.4-7.7-10.1-13.8-13c-1.3-0.7-2.7-1.2-3.9-1.7
						c0.1-0.3,0.1-0.6,0.2-0.9c0.3-1.4,0.6-2.9,0.8-4.5c0.6-3.6,0.6-7,0.3-10c4,1.3,8.1,2.6,12.3,3.1l0.2,0c1.7,0.2,3.5,0.5,5.4,0.9
						c1.8,0.3,3.8,0.7,6,1c0.7,1.5,1.5,3,2.2,4.5c0.4,0.9,0.8,1.7,1.3,2.6l8.8,18.1l7-3.5l-5,9.7c-1.1,2.2-2.6,4.1-4.4,5.8
						c-0.7,0.6-1.4,1.2-2.1,1.7c-2.4,1.5-4.6,3-6.9,4.6C358.4,44.3,356.3,45.7,354.2,47z M410.1,24.9c-2,0-4-0.3-6-0.8
						c-0.9-0.2-1.7-0.6-2.6-0.9c-0.5-0.2-0.9-0.5-1.4-0.7l-12-5.9l1.3-0.6c4.1-2,10-5.3,14.7-11l0.9-1l0.7-1.1
						c3.2-5.1,4.7-11.8,4-18.4c-0.1-1.5-0.3-2.9-0.5-4.3c0.3-0.1,0.6-0.2,0.9-0.3c1.4-0.5,2.9-1.1,4.3-1.7c7.7-3,12.7-8,16.4-11.6
						c0.5-0.5,1.2-1.2,1.8-1.7c8.1,0.8,24.9,8.1,31,12c1.5,1.9,3.3,3.7,5.5,5.8c-0.4,6.4,1,11.8,2.2,15.5
						c-14.8,8.2-46.3,22.8-53.5,25.4l-0.1,0l-0.9,0.3c-1,0.3-2,0.5-2.9,0.7C412.6,24.8,411.3,24.9,410.1,24.9z"/>
				</g>
				<g class="st7">
					<path class="st4" d="M410.1,14.9c-0.5,0-1,0-1.5-0.1c1.1-1.1,2.2-2.2,3.2-3.5l1.3-1.5l1.1-1.7c3.8-6.1,5.8-13.7,5.7-21.4
						c7.1-3.2,12.2-7.5,15.9-11.1c6.5,1.8,16.3,6,21.2,8.9c0.6,0.7,1.3,1.4,2,2.1c0.1,2.2,0.3,4.3,0.7,6.2
						c-15,7.7-37.9,18.4-45.1,21.1l-0.8,0.2c-0.5,0.2-1.1,0.3-1.6,0.4C411.4,14.9,410.7,14.9,410.1,14.9z M353.2,10.4
						c-0.7-0.7-1.5-1.4-2.2-2c0.1,0,1,0.2,1.4,0.3C352.6,9.2,352.9,9.8,353.2,10.4z"/>
				</g>
				<path class="st6" d="M429-3.2c0.2-1.3,0.4-2.6,0.6-3.8c3.3-1.9,6.2-4,8.6-6c2,0.7,4.2,1.6,6.2,2.5C439.2-8,433.9-5.5,429-3.2z"
					/>
			</g>
		</g>
	</g>
	<path class="st8" d="M432.3,129l18.1-29.9l9.7,16.4c2.4-4.3,3.7-9.2,3.7-14.5c0-16.6-13.4-30-30-30c-11.8,0-21.9,6.8-26.9,16.6
		L432.3,129z"/>
	<polyline class="st9" points="357.2,150.1 400.1,76.4 444.2,148.4 	"/>
	<polyline class="st9" points="337.2,117.9 348.3,99.1 407.6,197.1 	"/>
	<polyline class="st9" points="461.5,117.9 450.4,99.1 391.1,197.1 	"/>
	<polygon class="st10" points="502.4,49.1 400.1,226.2 297.8,49.1 	"/>
	<g>
		<path class="st11" d="M73.6,47.8h11.2v171.5h80v9.6H73.6V47.8z"/>
		<path class="st11" d="M177.7,47.8h99v9.6h-87.9V130h81.3v9.6h-81.3v79.7H278v9.6H177.7V47.8z"/>
		<path class="st11" d="M520.4,57.4v-9.6h116v9.6h-52.6v171.5h-11.2V57.4H520.4z"/>
	</g>
</g>
<path class="st8" d="M688.1,311.8c0-8.9-9.3-14.5-18.8-10c-2.1,1-3.9,2.7-5,4.8c-2.4,4.6-1.3,9.9,0.8,14.3l7.4,18.7
	c1.1,2.7,4.9,2.7,5.9,0l7.2-18.8C688.2,315,688.1,311.8,688.1,311.8z M679.2,319.5c-6.4,3.7-12.8-3.1-9.3-9.9c0.5-0.9,1.2-1.7,2-2.1
	c6.4-3.7,12.8,3.1,9.3,9.9C680.8,318.3,680,319,679.2,319.5z"/>
<path class="st8" d="M325.7,165.4c0-8.9-9.3-14.5-18.8-10c-2.1,1-3.9,2.7-5,4.8c-2.4,4.6-1.3,9.9,0.8,14.3l7.4,18.7
	c1.1,2.7,4.9,2.7,5.9,0l7.2-18.8C325.8,168.6,325.7,165.4,325.7,165.4z M316.8,173.1c-6.4,3.7-12.8-3.1-9.3-9.9
	c0.5-0.9,1.2-1.7,2-2.1c6.4-3.7,12.8,3.1,9.3,9.9C318.4,171.9,317.7,172.7,316.8,173.1z"/>
<path class="st8" d="M554.7,86.8c0-8.9-9.3-14.5-18.8-10c-2.1,1-3.9,2.7-5,4.8c-2.4,4.6-1.3,9.9,0.8,14.3l7.4,18.7
	c1.1,2.7,4.9,2.7,5.9,0l7.2-18.8C554.8,90,554.7,86.8,554.7,86.8z M545.8,94.5c-6.4,3.7-12.8-3.1-9.3-9.9c0.5-0.9,1.2-1.7,2-2.1
	c6.4-3.7,12.8,3.1,9.3,9.9C547.3,93.3,546.6,94,545.8,94.5z"/>
</svg>
